<svg width="24" height="24" viewBox="0 0 24 24" fill="none" xmlns="http://www.w3.org/2000/svg">
<g clip-path="url(#clip0_824_579)">
<path fill-rule="evenodd" clip-rule="evenodd" d="M15.707 11.2929C15.8945 11.4805 15.9998 11.7348 15.9998 11.9999C15.9998 12.2651 15.8945 12.5194 15.707 12.7069L10.05 18.3639C9.95776 18.4594 9.84742 18.5356 9.72541 18.588C9.60341 18.6404 9.47219 18.668 9.33941 18.6692C9.20663 18.6703 9.07495 18.645 8.95205 18.5948C8.82916 18.5445 8.7175 18.4702 8.62361 18.3763C8.52972 18.2824 8.45547 18.1708 8.40519 18.0479C8.3549 17.925 8.3296 17.7933 8.33076 17.6605C8.33191 17.5278 8.3595 17.3965 8.41191 17.2745C8.46431 17.1525 8.5405 17.0422 8.63601 16.9499L13.586 11.9999L8.63601 7.04994C8.45385 6.86133 8.35305 6.60873 8.35533 6.34653C8.35761 6.08434 8.46278 5.83353 8.64819 5.64812C8.8336 5.46271 9.08441 5.35754 9.34661 5.35526C9.6088 5.35298 9.86141 5.45378 10.05 5.63594L15.707 11.2929Z" fill="#F5F5F5"/>
</g>
<defs>
<clipPath id="clip0_824_579">
<rect width="24" height="24" fill="white"/>
</clipPath>
</defs>
</svg>
