<svg width="22" height="32" viewBox="0 0 22 32" fill="none" xmlns="http://www.w3.org/2000/svg">
<path d="M11.8674 7.81824C11.8674 7.54209 11.6436 7.31824 11.3674 7.31824C11.0913 7.31824 10.8674 7.54209 10.8674 7.81824L11.3674 7.81824L11.8674 7.81824ZM11.0139 24.5353C11.2091 24.7306 11.5257 24.7306 11.721 24.5353L14.903 21.3533C15.0982 21.1581 15.0982 20.8415 14.903 20.6462C14.7077 20.451 14.3911 20.451 14.1959 20.6462L11.3674 23.4747L8.53901 20.6462C8.34374 20.451 8.02716 20.451 7.8319 20.6462C7.63664 20.8415 7.63664 21.1581 7.8319 21.3533L11.0139 24.5353ZM11.3674 7.81824L10.8674 7.81824L10.8674 24.1818L11.3674 24.1818L11.8674 24.1818L11.8674 7.81824L11.3674 7.81824Z" fill="#181818"/>
</svg>
