<svg width="24" height="24" viewBox="0 0 24 24" fill="none" xmlns="http://www.w3.org/2000/svg">
<path d="M16.8 0C20.7765 0 24 3.10592 24 6.93718C24 8.0845 23.7711 9.29063 23.3133 10.5556L21.3941 8.60902C21.5104 8.11486 21.5773 7.63975 21.5951 7.18414L21.6 6.93718C21.6 4.48434 19.4791 2.44082 16.8 2.44082C15.8867 2.44082 15.0192 2.67938 14.2735 3.11444L10.9136 6.40795C10.445 6.88455 10.445 7.65725 10.9136 8.13385C11.3822 8.6105 12.1421 8.6105 12.6107 8.13385L15.8673 4.68932L17.5008 6.37305L22.1341 11.0849C23.54 12.5148 23.54 14.833 22.1341 16.2628C21.6842 16.7203 21.1449 17.0315 20.5734 17.1962L20.5141 17.2119C20.766 18.389 20.4421 19.6679 19.5423 20.583C18.6161 21.5249 17.3109 21.8463 16.1261 21.5472C15.9635 22.1132 15.6604 22.6349 15.2184 23.0445C13.9556 24.2148 12.111 24.3232 10.7297 23.297L10.517 23.1092L9.58263 22.2568C3.19421 16.3296 0 11.223 0 6.93718C0 3.10586 3.22357 0 7.20005 0C9.0446 0 10.7271 0.6683 12.001 1.76732C13.274 0.6679 14.956 0 16.8 0ZM7.20005 2.44082C4.52092 2.44082 2.40002 4.48434 2.40002 6.93718C2.40002 10.3676 5.26359 14.9456 11.1851 20.4398L11.724 20.9316C12.1988 21.4187 13.0775 21.7961 13.5883 21.2952C14.0523 20.8401 14.0048 20.207 13.6409 19.7376L12.9002 18.9691L10.1272 16.149L10.0762 16.1034L11.7934 14.3558L14.279 16.92L15.2184 17.8749C15.2821 17.9398 15.3434 18.0071 15.402 18.0768L16.0016 18.6981C16.6264 19.3336 17.401 19.3571 17.8697 18.8805C18.3383 18.4039 18.3235 17.6076 17.6987 16.9721L14.8286 14.0103L13.4818 12.6398L15.1786 10.9129L16.0467 11.7961C16.1346 11.8702 16.2191 11.9484 16.2998 12.0306L17.3942 13.1682L18.7401 14.5368C19.2087 15.0134 19.9685 15.0134 20.4371 14.5368C20.9057 14.0602 20.9057 13.2875 20.4371 12.8109L15.9204 8.21834L14.3077 9.85981C12.9018 11.2897 10.6225 11.2897 9.21656 9.85981C7.8107 8.43001 7.8107 6.11179 9.21656 4.68199L10.3392 3.53921L10.2234 3.44608C9.3785 2.80192 8.32376 2.44082 7.20005 2.44082Z" fill="#E51236"/>
</svg>
