<svg width="24" height="25" viewBox="0 0 24 25" fill="none" xmlns="http://www.w3.org/2000/svg">
<path fill-rule="evenodd" clip-rule="evenodd" d="M9.1725 23.7389C10.0542 24.1649 11.0208 24.3861 12 24.3861C12.9792 24.3861 13.9458 24.1649 14.8275 23.7389L15.0388 23.6366C15.5888 23.3709 16.0528 22.9555 16.3776 22.4382C16.7023 21.9208 16.8747 21.3224 16.875 20.7116V19.9511C16.875 17.7541 18.136 15.7959 19.3775 13.9824C20.2957 12.6397 20.83 11.0719 20.9229 9.44794C21.0158 7.82397 20.6638 6.20544 19.9047 4.76678C19.1456 3.32813 18.0083 2.12391 16.6154 1.28392C15.2224 0.44392 13.6266 0 12 0C10.3734 0 8.77759 0.44392 7.38464 1.28392C5.99169 2.12391 4.85439 3.32813 4.09532 4.76678C3.33625 6.20544 2.98419 7.82397 3.07709 9.44794C3.16999 11.0719 3.70432 12.6397 4.6225 13.9824C5.864 15.7959 7.125 17.7541 7.125 19.9527V20.7116C7.12496 21.3227 7.29722 21.9214 7.62202 22.4391C7.94681 22.9568 8.41098 23.3724 8.96125 23.6382L9.1725 23.7389ZM13.768 21.5452L13.9793 21.4412C14.1166 21.3746 14.2324 21.2708 14.3135 21.1414C14.3945 21.0121 14.4375 20.8626 14.4375 20.7099V19.9511C14.4375 19.6748 14.451 19.404 14.4781 19.1386C12.8613 19.6213 11.1387 19.6213 9.52188 19.1386C9.54788 19.404 9.56142 19.6748 9.5625 19.9511V20.7099C9.56249 20.8626 9.60547 21.0121 9.68652 21.1414C9.76757 21.2708 9.8834 21.3746 10.0208 21.4412L10.232 21.5436C10.7833 21.81 11.3877 21.9485 12 21.9485C12.6123 21.9485 13.2167 21.8117 13.768 21.5452ZM6.63425 12.6044C7.2745 13.5404 8.08213 14.7202 8.68663 16.0949C9.67631 16.7266 10.8259 17.0622 12 17.0622C13.1741 17.0622 14.3237 16.7266 15.3134 16.0949C15.9179 14.7202 16.7255 13.5404 17.3674 12.6044C18.0348 11.6279 18.423 10.4877 18.4903 9.30677C18.5576 8.12585 18.3013 6.94896 17.7492 5.9029C17.1971 4.85683 16.37 3.98126 15.357 3.37052C14.3441 2.75977 13.1836 2.43701 12.0008 2.43701C10.818 2.43701 9.65757 2.75977 8.64461 3.37052C7.63165 3.98126 6.80454 4.85683 6.25241 5.9029C5.70028 6.94896 5.44405 8.12585 5.51134 9.30677C5.57863 10.4877 5.96687 11.6279 6.63425 12.6044Z" fill="#E51236"/>
<path d="M12 4.87427C11.6768 4.87427 11.3668 5.00267 11.1382 5.23123C10.9097 5.45979 10.7813 5.76978 10.7812 6.09302C10.7813 6.41625 10.9097 6.72624 11.1382 6.9548C11.3668 7.18336 11.6768 7.31177 12 7.31177C12.431 7.31177 12.8443 7.48297 13.149 7.78772C13.4538 8.09247 13.625 8.50579 13.625 8.93677C13.625 9.26 13.7534 9.56999 13.982 9.79855C14.2105 10.0271 14.5205 10.1555 14.8438 10.1555C15.167 10.1555 15.477 10.0271 15.7055 9.79855C15.9341 9.56999 16.0625 9.26 16.0625 8.93677C16.0625 7.85933 15.6345 6.82601 14.8726 6.06415C14.1108 5.30228 13.0774 4.87427 12 4.87427Z" fill="#E51236"/>
</svg>
