<svg width="24" height="24" viewBox="0 0 24 24" fill="none" xmlns="http://www.w3.org/2000/svg">
<path fill-rule="evenodd" clip-rule="evenodd" d="M5.672 4.09491C7.35375 2.43778 9.61837 1.50637 11.9794 1.50076C14.3404 1.49515 16.6094 2.41579 18.299 4.06491H18.301L18.333 4.09491C21.878 7.58191 21.885 13.1829 18.375 16.6349L12.704 22.2129C12.5169 22.397 12.265 22.5002 12.0025 22.5002C11.74 22.5002 11.4881 22.397 11.301 22.2129L5.63 16.6349C4.79743 15.8209 4.13589 14.8488 3.68424 13.7756C3.23259 12.7024 2.99994 11.5498 2.99994 10.3854C2.99994 9.22105 3.23259 8.06842 3.68424 6.99522C4.13589 5.92203 4.79743 4.94989 5.63 4.13591L5.672 4.09491ZM12 6.49991C11.606 6.49991 11.2159 6.57751 10.852 6.72827C10.488 6.87904 10.1573 7.10001 9.87868 7.37859C9.60011 7.65717 9.37913 7.98788 9.22836 8.35186C9.0776 8.71584 9 9.10595 9 9.49991C9 9.89388 9.0776 10.284 9.22836 10.648C9.37913 11.0119 9.60011 11.3427 9.87868 11.6212C10.1573 11.8998 10.488 12.1208 10.852 12.2715C11.2159 12.4223 11.606 12.4999 12 12.4999C12.7957 12.4999 13.5587 12.1838 14.1213 11.6212C14.6839 11.0586 15 10.2956 15 9.49991C15 8.70426 14.6839 7.9412 14.1213 7.37859C13.5587 6.81598 12.7957 6.49991 12 6.49991Z" fill="#F5F5F5"/>
</svg>
