<svg width="24" height="24" viewBox="0 0 24 24" fill="none" xmlns="http://www.w3.org/2000/svg">
<g clip-path="url(#clip0_1359_974)">
<path d="M7.71429 18V21.4285C7.71429 21.8832 7.8949 22.3192 8.21639 22.6407C8.53788 22.9622 8.97391 23.1428 9.42857 23.1428H21.4286C21.8832 23.1428 22.3193 22.9622 22.6408 22.6407C22.9622 22.3192 23.1429 21.8832 23.1429 21.4285V2.5714C23.1429 2.11675 22.9622 1.68071 22.6408 1.35922C22.3193 1.03773 21.8832 0.857117 21.4286 0.857117H9.42857C8.97391 0.857117 8.53788 1.03773 8.21639 1.35922C7.8949 1.68071 7.71429 2.11675 7.71429 2.5714V5.99997M12.8571 12H0.857143M0.857143 12L4.28571 8.5714M0.857143 12L4.28571 15.4285" stroke="currentColor" stroke-width="2" stroke-linecap="round" stroke-linejoin="round"/>
</g>
<defs>
<clipPath id="clip0_1359_974">
<rect width="24" height="24" fill="white" transform="matrix(-1 0 0 1 24 0)"/>
</clipPath>
</defs>
</svg>
