<svg width="24" height="24" viewBox="0 0 24 24" fill="none" xmlns="http://www.w3.org/2000/svg">
<path fill-rule="evenodd" clip-rule="evenodd" d="M11.9649 2.14243C11.9723 2.14227 11.9797 2.14372 11.9865 2.14668C11.9933 2.14964 11.9994 2.15403 12.0043 2.15956L12.0472 2.20584L15.1132 5.25489C15.26 5.40094 15.446 5.50129 15.6486 5.54382C15.8513 5.58634 16.0619 5.56921 16.255 5.49449C16.4482 5.41978 16.6155 5.29068 16.7368 5.12284C16.858 4.95499 16.9281 4.75559 16.9384 4.54876C16.9675 3.97631 17.2126 3.43472 17.6222 3.03366L16.8733 2.26754L17.6308 3.02509C17.849 2.80045 18.1098 2.62144 18.3978 2.49847C18.6859 2.3755 18.9955 2.31101 19.3087 2.30877C19.6219 2.30652 19.9325 2.36656 20.2223 2.48539C20.5121 2.60422 20.7753 2.77947 20.9968 3.00096C21.2183 3.22244 21.3935 3.48574 21.5124 3.77556C21.6312 4.06537 21.6912 4.37592 21.689 4.68914C21.6867 5.00236 21.6222 5.31201 21.4993 5.60009C21.3763 5.88817 21.1973 6.14893 20.9727 6.36722L20.9641 6.37579C20.5635 6.78695 20.0224 7.03178 19.4491 7.06136C19.2416 7.07201 19.0417 7.14278 18.8737 7.26505C18.7057 7.38733 18.5769 7.55582 18.503 7.75C18.4291 7.94418 18.4132 8.15568 18.4573 8.35872C18.5015 8.56175 18.6037 8.74757 18.7516 8.89353L21.8005 11.8929L21.8382 11.9272C21.8435 11.9319 21.8477 11.9377 21.8507 11.9442C21.8536 11.9507 21.8552 11.9577 21.8553 11.9649C21.8555 11.9723 21.854 11.9796 21.851 11.9865C21.8481 11.9933 21.8437 11.9993 21.8382 12.0043L21.7936 12.0454L20.1141 13.7251L20.0695 13.6805L20.0609 13.6736C19.645 13.2378 19.1464 12.8892 18.5942 12.6484C18.0419 12.4077 17.4472 12.2795 16.8448 12.2714C16.2424 12.2633 15.6445 12.3754 15.086 12.6012C14.5274 12.8271 14.0196 13.1621 13.5921 13.5866C13.1647 14.0111 12.8262 14.5167 12.5965 15.0736C12.3668 15.6306 12.2505 16.2278 12.2544 16.8303C12.2583 17.4327 12.3823 18.0283 12.6193 18.5823C12.8562 19.1362 13.2012 19.6373 13.6342 20.0563L13.6461 20.07L13.7113 20.1317L12.0986 21.8096L12.0712 21.8387C12.0663 21.8442 12.0604 21.8486 12.0538 21.8516C12.0471 21.8546 12.0399 21.8561 12.0326 21.8561C12.0253 21.8561 12.0181 21.8546 12.0114 21.8516C12.0048 21.8486 11.9989 21.8442 11.994 21.8387L11.9512 21.7924L8.88519 18.7434C8.73895 18.5983 8.554 18.4985 8.35248 18.4559C8.15097 18.4133 7.94144 18.4297 7.749 18.5031C7.55657 18.5765 7.38938 18.7039 7.26748 18.8699C7.14558 19.036 7.07413 19.2336 7.06169 19.4392C7.03377 19.8931 6.87541 20.3293 6.60563 20.6954C6.33584 21.0615 5.96611 21.3419 5.54084 21.503C5.11557 21.664 4.65285 21.6988 4.20827 21.6033C3.76369 21.5077 3.35614 21.2858 3.03459 20.9643C2.71305 20.6427 2.49117 20.2351 2.39561 19.7905C2.30006 19.3459 2.33489 18.8832 2.49593 18.4579C2.65697 18.0326 2.93736 17.6628 3.30342 17.393C3.66948 17.1232 4.10565 16.9648 4.55953 16.9369C4.76601 16.9241 4.96437 16.8518 5.13064 16.7287C5.29691 16.6056 5.42397 16.437 5.49647 16.2432C5.56897 16.0494 5.58381 15.8388 5.5392 15.6368C5.49458 15.4347 5.39242 15.25 5.24505 15.1048L2.1979 12.1054L2.1602 12.0711C2.15473 12.0663 2.15034 12.0604 2.14734 12.0537C2.14434 12.0471 2.14279 12.0399 2.14279 12.0326C2.14279 12.0253 2.14434 12.0181 2.14734 12.0114C2.15034 12.0048 2.15473 11.9988 2.1602 11.994L2.19961 11.958L3.91342 10.2664L4.0094 10.3624C4.874 11.1428 6.0064 11.5594 7.17059 11.5254C8.33478 11.4914 9.44093 11.0093 10.2585 10.1798C11.0761 9.35024 11.542 8.23715 11.5591 7.07252C11.5763 5.90789 11.1433 4.78158 10.3505 3.92832L10.2871 3.86662L11.8998 2.1887L11.9272 2.15956C11.932 2.15425 11.9378 2.14998 11.9442 2.14703C11.9507 2.14408 11.9578 2.14251 11.9649 2.14243ZM16.1209 1.50485C15.8227 1.79621 15.569 2.12871 15.3668 2.48521L13.5759 0.706166C13.3697 0.482648 13.1192 0.304449 12.8405 0.182885C12.5617 0.0613199 12.2607 -0.000955908 11.9566 1.1091e-05C11.6525 0.00097809 11.352 0.0651667 11.074 0.188502C10.796 0.311837 10.5467 0.491624 10.3419 0.716449L7.87404 3.28389C7.75714 3.40589 7.67076 3.55382 7.62195 3.71559C7.57314 3.87736 7.56329 4.04838 7.59321 4.21468C7.62313 4.38099 7.69196 4.53785 7.79408 4.67247C7.8962 4.80708 8.02872 4.91563 8.18081 4.98924C8.42074 5.10693 8.63783 5.25718 8.83206 5.44C9.23813 5.89308 9.45518 6.48454 9.43856 7.09275C9.42194 7.70097 9.17293 8.27969 8.74272 8.70992C8.31252 9.14016 7.73382 9.38919 7.12565 9.40581C6.51747 9.42242 5.92605 9.20536 5.47299 8.79927C5.29001 8.60676 5.13796 8.38706 5.02226 8.14798C4.94801 7.99463 4.83825 7.86121 4.7021 7.75879C4.56595 7.65637 4.40734 7.5879 4.23942 7.55908C4.07151 7.53025 3.89914 7.5419 3.73663 7.59305C3.57412 7.6442 3.42616 7.73338 3.30502 7.85319L0.710314 10.4172C0.486433 10.6227 0.30769 10.8725 0.185414 11.1507C0.0631391 11.4289 0 11.7295 0 12.0334C0 12.3373 0.0631391 12.6379 0.185414 12.9161C0.30769 13.1944 0.486433 13.4441 0.710314 13.6496L2.47382 15.3807C1.87174 15.7241 1.35696 16.2017 0.969504 16.7765C0.582049 17.3512 0.332356 18.0076 0.239838 18.6946C0.14732 19.3815 0.21447 20.0806 0.436067 20.7374C0.657664 21.3941 1.02774 21.991 1.51752 22.4814C2.00914 22.9722 2.60753 23.3427 3.26597 23.564C3.9244 23.7853 4.62508 23.8514 5.31328 23.7571C6.00148 23.6629 6.6586 23.4108 7.23331 23.0207C7.80803 22.6305 8.2848 22.1128 8.6264 21.5079L10.4225 23.2938C10.6287 23.5174 10.8791 23.6955 11.1579 23.8171C11.4366 23.9387 11.7376 24.001 12.0417 24C12.3458 23.999 12.6464 23.9348 12.9244 23.8115C13.2023 23.6882 13.4516 23.5084 13.6564 23.2836L16.1243 20.7161C16.2412 20.5941 16.3276 20.4462 16.3764 20.2844C16.4252 20.1226 16.4351 19.9516 16.4051 19.7853C16.3752 19.619 16.3064 19.4621 16.2043 19.3275C16.1022 19.1929 15.9696 19.0844 15.8175 19.0108C15.5713 18.8914 15.3456 18.7334 15.1492 18.5429C14.9052 18.2953 14.7182 17.9974 14.6013 17.67C14.4844 17.3427 14.4403 16.9937 14.4723 16.6476C14.5042 16.3014 14.6114 15.9664 14.7862 15.666C14.9611 15.3656 15.1994 15.1069 15.4846 14.9082C15.7698 14.7095 16.0949 14.5754 16.4373 14.5154C16.7797 14.4554 17.131 14.4708 17.4668 14.5607C17.8026 14.6506 18.1147 14.8127 18.3813 15.0358C18.6479 15.2588 18.8626 15.5374 19.0104 15.852C19.0848 16.0057 19.1949 16.1394 19.3315 16.2419C19.4681 16.3444 19.6272 16.4128 19.7956 16.4413C19.964 16.4698 20.1367 16.4577 20.2995 16.4058C20.4622 16.354 20.6102 16.264 20.731 16.1434L23.2932 13.5811C23.5165 13.3752 23.6946 13.1253 23.8162 12.847C23.9379 12.5688 24.0005 12.2683 24 11.9646C23.9995 11.6609 23.936 11.3606 23.8134 11.0827C23.6909 10.8049 23.512 10.5555 23.288 10.3504L21.5297 8.62273C21.8832 8.42 22.2073 8.16972 22.4928 7.87889C23.3079 7.02774 23.7572 5.89121 23.7445 4.71279C23.7319 3.53437 23.2582 2.40777 22.425 1.57434C21.5919 0.740905 20.4655 0.266927 19.2871 0.253939C18.1088 0.24095 16.9722 0.689985 16.1209 1.50485Z" fill="#E51236"/>
</svg>
