<svg width="265" height="352" viewBox="0 0 265 352" fill="none" xmlns="http://www.w3.org/2000/svg">
<path d="M177.631 223.152C179.686 240.838 194.165 254.979 211.868 256.61C219.736 257.336 227.161 255.688 233.523 252.268C234.852 251.541 236.181 250.779 237.528 250.124L250.925 243.496C255.001 241.493 259.237 240.483 263.49 240.483V349.628H1.5V87.6383H110.645C110.645 83.3852 109.635 79.1145 107.632 75.0386L101.004 61.6591C100.331 60.3123 99.5866 58.9832 98.8601 57.6541C95.4399 51.2922 93.7918 43.8671 94.5184 35.9989C96.1488 18.2955 110.29 3.78183 127.958 1.76162C151.049 -0.896559 170.649 17.0727 170.649 39.6317C170.649 45.1076 169.497 50.3176 167.406 55.0137L165.846 58.1504L157.517 75.0386C155.515 79.1145 154.505 83.3675 154.505 87.6383H263.507V196.641C259.254 196.641 255.019 195.631 250.943 193.629L234.055 185.3L230.918 183.74C226.204 181.649 221.012 180.497 215.536 180.497C192.96 180.497 174.99 200.097 177.648 223.17L177.631 223.152Z" fill="#FCFCFC" stroke="#5376C1" stroke-width="3" stroke-miterlimit="10"/>
</svg>
