<svg width="352" height="352" viewBox="0 0 352 352" fill="none" xmlns="http://www.w3.org/2000/svg">
<path d="M349.402 223.259C347.382 240.501 333.471 254.43 316.21 256.486C307.917 257.46 300.084 255.812 293.438 252.197C292.109 251.471 290.798 250.709 289.451 250.053L276.143 243.478C272.067 241.458 267.778 240.466 263.543 240.466V349.61H154.522C154.522 345.357 155.532 341.122 157.535 337.046L165.864 320.158L167.423 317.021C169.514 312.307 170.666 307.115 170.666 301.639C170.666 279.08 151.084 261.093 127.994 263.769C110.326 265.789 96.1842 280.285 94.5538 297.989C93.8273 305.857 95.4576 313.282 98.8956 319.662C99.6221 320.991 100.366 322.302 101.04 323.649L107.632 337.046C109.635 341.122 110.645 345.357 110.645 349.61H1.51774V240.466C5.77082 240.466 10.0062 241.458 14.1175 243.478L27.4261 250.053C28.7729 250.709 30.0842 251.471 31.4133 252.197C38.0588 255.794 45.8915 257.443 54.2205 256.486C71.4632 254.43 85.3566 240.483 87.3768 223.259C90.1059 200.115 72.1012 180.48 49.5067 180.48C44.0308 180.48 38.8209 181.631 34.1425 183.723L30.8462 185.353L14.0998 193.629C10.0062 195.649 5.7708 196.641 1.5 196.641V87.6384H110.627C110.627 83.3853 109.617 79.1145 107.614 75.0387L101.022 61.6591C100.349 60.2769 99.6044 58.9833 98.8778 57.6542C95.4222 51.2923 93.8095 43.8671 94.5361 35.9989C96.1665 18.26 110.308 3.78183 127.976 1.76162C151.067 -0.89656 170.649 17.0727 170.649 39.6317C170.649 45.1076 169.497 50.3176 167.406 55.0137L165.846 58.1504L157.517 75.0387C155.515 79.1145 154.504 83.3676 154.504 87.6384H263.525V196.641C267.76 196.641 272.049 195.649 276.125 193.629L292.871 185.353L296.168 183.723C300.846 181.631 306.056 180.48 311.532 180.48C334.126 180.48 352.131 200.132 349.402 223.259Z" fill="#FCFCFC" stroke="#5376C1" stroke-width="3" stroke-miterlimit="10"/>
</svg>
