<svg width="266" height="352" viewBox="0 0 266 352" fill="none" xmlns="http://www.w3.org/2000/svg">
<path d="M177.631 223.134C179.651 240.82 194.165 254.962 211.868 256.592C219.736 257.318 227.161 255.67 233.523 252.25C234.852 251.524 236.164 250.762 237.528 250.106L250.908 243.478C254.984 241.476 259.237 240.466 263.507 240.466V349.61H1.51774V240.466C5.77082 240.466 10.0062 241.476 14.1175 243.478L27.4261 250.053C28.7729 250.726 30.0842 251.471 31.4133 252.197C38.0588 255.795 45.8915 257.46 54.2205 256.486C71.4632 254.465 85.3566 240.483 87.3768 223.258C90.1059 200.115 72.1012 180.48 49.5067 180.48C44.0308 180.48 38.8207 181.631 34.1424 183.723L30.8462 185.353L14.0997 193.629C10.0061 195.631 5.7708 196.641 1.5 196.641V87.6383H110.627C110.627 83.3852 109.617 79.1145 107.614 75.0386L101.022 61.6591C100.349 60.3123 99.6044 58.9832 98.8778 57.6541C95.4576 51.2922 93.8095 43.8671 94.5361 35.9989C96.1665 18.2955 110.308 3.78183 127.976 1.76162C151.067 -0.896559 170.649 17.0727 170.649 39.6317C170.649 45.1076 169.497 50.3176 167.406 55.0137L165.846 58.1504L157.517 75.0386C155.515 79.1145 154.505 83.3675 154.505 87.6383H263.525V196.641C259.272 196.641 255.001 195.631 250.925 193.629L234.037 185.3L230.9 183.74C226.187 181.649 220.994 180.497 215.519 180.497C192.959 180.497 174.99 200.097 177.648 223.17L177.631 223.134Z" fill="#FCFCFC" stroke="#5376C1" stroke-width="3" stroke-miterlimit="10"/>
</svg>
