<svg width="268" height="352" viewBox="0 0 268 352" fill="none" xmlns="http://www.w3.org/2000/svg">
<path d="M263.49 263.472H168.628C168.628 267.707 169.621 271.96 171.641 276.036L179.917 292.783L181.547 296.079C183.638 300.757 184.79 305.967 184.79 311.443C184.79 334.038 165.137 352.042 142.011 349.313C124.768 347.293 110.804 333.382 108.784 316.157C107.792 307.846 109.457 299.995 113.072 293.35C113.799 292.021 114.543 290.709 115.217 289.363L121.791 276.054C123.811 271.978 124.804 267.725 124.804 263.49H1.51774V154.345C5.77082 154.345 10.0416 155.337 14.1352 157.358L27.4438 163.932C28.7906 164.588 30.102 165.35 31.4311 166.076C38.0588 169.674 45.9092 171.322 54.2027 170.365C71.4631 168.309 85.3565 154.363 87.3944 137.138C90.1235 113.994 72.1188 94.3589 49.5243 94.3589C44.0485 94.3589 38.8386 95.5108 34.1602 97.6019L30.8641 99.2322L14.1175 107.508C10.0239 109.528 5.75308 110.521 1.5 110.521V1.51774H124.786C124.786 5.77082 123.794 9.98845 121.774 14.082L115.199 27.3907C114.526 28.7375 113.781 30.0488 113.055 31.3602C109.457 38.0056 107.792 45.8384 108.766 54.1673C110.786 71.41 124.768 85.3034 141.993 87.3236C165.137 90.0527 184.772 72.048 184.772 49.4712C184.772 43.9954 183.62 38.7853 181.529 34.1069L179.899 30.8108L171.623 14.0643C169.603 9.97071 168.611 5.75308 168.611 1.5H263.472V263.49L263.49 263.472Z" fill="#FCFCFC" stroke="#5376C1" stroke-width="3" stroke-miterlimit="10"/>
</svg>
