<svg width="265" height="352" viewBox="0 0 265 352" fill="none" xmlns="http://www.w3.org/2000/svg">
<path d="M177.613 136.996C179.633 154.664 194.147 168.805 211.85 170.454C219.718 171.18 227.144 169.532 233.506 166.112C234.835 165.385 236.146 164.623 237.51 163.95L250.89 157.358C254.966 155.355 259.219 154.345 263.49 154.345V263.472H154.469C154.451 267.725 155.462 272.014 157.482 276.107L165.757 292.854L167.388 296.15C169.479 300.828 170.631 306.038 170.631 311.514C170.631 334.091 151.013 352.096 127.87 349.384C110.609 347.364 96.6627 333.435 94.6424 316.192C93.6501 307.881 95.3159 300.031 98.931 293.385C99.6576 292.074 100.402 290.78 101.075 289.416L107.632 276.107C109.652 272.014 110.68 267.725 110.645 263.472H1.51774V154.345C5.7531 154.345 10.0416 155.355 14.1175 157.358L27.4261 163.932C28.7729 164.588 30.0842 165.35 31.4133 166.076C38.0588 169.674 45.8915 171.322 54.2205 170.365C71.4632 168.309 85.3566 154.363 87.3768 137.12C90.1059 114.012 72.1012 94.3588 49.5067 94.3588C44.0308 94.3588 38.8209 95.5107 34.1425 97.6018L30.8462 99.2322L14.0998 107.508C10.024 109.511 5.73536 110.521 1.5 110.521V1.51774H110.627C110.627 5.77082 109.635 10.0062 107.614 14.1175L101.058 27.4261C100.384 28.7729 99.6399 30.0842 98.9133 31.4133C95.3159 38.041 93.6502 45.8915 94.6248 54.185C96.645 71.4454 110.592 85.3389 127.852 87.3768C150.996 90.1059 170.613 72.1011 170.613 49.5066C170.613 44.0307 169.461 38.8207 167.37 34.1424L165.74 30.8462L157.464 14.0997C155.444 10.0061 154.451 5.7708 154.451 1.5H263.472V110.503C259.219 110.503 254.948 109.493 250.872 107.49L233.984 99.1613L230.847 97.6018C226.134 95.5107 220.941 94.3588 215.465 94.3588C192.906 94.3588 174.937 113.941 177.595 137.031L177.613 136.996Z" fill="#FCFCFC" stroke="#5376C1" stroke-width="3" stroke-miterlimit="10"/>
</svg>
