<svg width="265" height="352" viewBox="0 0 265 352" fill="none" xmlns="http://www.w3.org/2000/svg">
<path d="M263.49 263.454H168.628C168.628 267.707 169.621 271.925 171.641 276.019L179.917 292.765L181.547 296.061C183.638 300.74 184.79 305.95 184.79 311.425C184.79 334.02 165.137 352.025 142.011 349.296C124.768 347.275 110.804 333.364 108.784 316.139C107.792 307.828 109.457 299.978 113.072 293.332C113.799 292.003 114.543 290.692 115.217 289.345L121.791 276.036C123.811 271.943 124.804 267.725 124.804 263.472H1.51774V154.345C5.77082 154.345 10.0416 155.337 14.1352 157.358L27.4438 163.932C28.7906 164.588 30.102 165.35 31.4311 166.059C38.0588 169.692 45.9092 171.322 54.2027 170.365C71.4631 168.309 85.3565 154.363 87.3944 137.12C90.1235 114.012 72.1188 94.3589 49.5243 94.3589C44.0485 94.3589 38.8386 95.5108 34.1602 97.6019L30.8641 99.2322L14.1175 107.508C10.0239 109.528 5.75308 110.521 1.5 110.521V1.5H263.49V263.49V263.454Z" fill="#FCFCFC" stroke="#5376C1" stroke-width="3" stroke-miterlimit="10"/>
</svg>
