<svg width="266" height="265" viewBox="0 0 266 265" fill="none" xmlns="http://www.w3.org/2000/svg">
<path d="M177.666 136.996C179.686 154.664 194.182 168.805 211.903 170.454C219.736 171.18 227.197 169.532 233.559 166.112C234.888 165.385 236.199 164.623 237.564 163.95L250.943 157.358C255.019 155.355 259.272 154.345 263.543 154.345V263.472H154.522C154.522 259.237 155.532 254.984 157.535 250.925L165.864 234.037L167.423 230.901C169.514 226.187 170.666 220.994 170.666 215.519C170.666 192.96 151.084 174.973 127.994 177.631C110.326 179.686 96.1842 194.165 94.5539 211.868C93.8096 219.736 95.4576 227.161 98.8955 233.523C99.5866 234.87 100.366 236.181 101.04 237.528L107.632 250.925C109.635 254.984 110.645 259.237 110.645 263.472H1.51774V154.345C5.77082 154.345 10.0062 155.355 14.1175 157.358L27.4261 163.932C28.7729 164.588 30.0842 165.35 31.4133 166.076C38.0588 169.674 45.8915 171.322 54.185 170.365C71.4454 168.309 85.3388 154.363 87.3767 137.12C90.1058 114.012 72.1011 94.3588 49.5066 94.3588C44.0307 94.3588 38.8206 95.5107 34.1423 97.6018L30.8461 99.2322L14.0997 107.508C10.0061 109.511 5.7708 110.521 1.5 110.521V1.51774H110.627C110.627 5.77082 109.617 10.0062 107.614 14.1175L101.04 27.4261C100.384 28.7729 99.6221 30.0842 98.9309 31.4133C95.2981 38.041 93.6677 45.8915 94.6246 54.185C96.6803 71.4454 110.627 85.3389 127.87 87.3768C150.978 90.1059 170.631 72.1011 170.631 49.5066C170.631 44.0307 169.479 38.8207 167.388 34.1424L165.757 30.8462L157.482 14.0997C155.479 10.0061 154.469 5.7708 154.469 1.5H263.49V110.503C259.237 110.503 254.966 109.493 250.89 107.49L234.002 99.1613L230.865 97.6018C226.151 95.5107 220.959 94.3588 215.483 94.3588C192.924 94.3588 174.955 113.941 177.613 137.031L177.666 136.996Z" fill="#FCFCFC" stroke="#5376C1" stroke-width="3" stroke-miterlimit="10"/>
</svg>
