<svg width="265" height="438" viewBox="0 0 265 438" fill="none" xmlns="http://www.w3.org/2000/svg">
<path d="M177.613 223.117C179.669 240.802 194.147 254.926 211.85 256.574C219.718 257.301 227.144 255.653 233.506 252.233C234.835 251.506 236.164 250.744 237.51 250.071L250.908 243.478C254.984 241.458 259.219 240.466 263.472 240.466V349.61H154.469C154.469 353.863 155.462 358.134 157.482 362.228L165.757 378.974L167.388 382.27C169.479 386.949 170.631 392.159 170.631 397.635C170.631 420.211 150.978 438.234 127.852 435.505C110.609 433.485 96.645 419.574 94.6248 402.313C93.6324 394.02 95.2981 386.151 98.9132 379.541C99.6398 378.212 100.384 376.901 101.057 375.554L107.632 362.246C109.652 358.152 110.645 353.881 110.645 349.628H1.5V87.6384H110.645C110.645 83.3853 109.635 79.1145 107.632 75.0386L101.004 61.6591C100.331 60.2769 99.5867 58.9832 98.8601 57.6541C95.4399 51.2922 93.7919 43.8671 94.5184 35.9989C96.1488 18.26 110.29 3.78183 127.958 1.76162C151.049 -0.896559 170.649 17.0727 170.649 39.6317C170.649 45.1076 169.497 50.3176 167.406 55.0137L165.846 58.1503L157.517 75.0386C155.515 79.1145 154.505 83.3676 154.505 87.6384H263.507V196.641C259.254 196.641 255.019 195.649 250.943 193.629L234.055 185.3L230.918 183.74C226.204 181.649 221.012 180.497 215.536 180.497C192.959 180.497 174.99 200.079 177.648 223.17L177.613 223.117Z" fill="#FCFCFC" stroke="#5376C1" stroke-width="3" stroke-miterlimit="10"/>
</svg>
