<svg width="438" height="266" viewBox="0 0 438 266" fill="none" xmlns="http://www.w3.org/2000/svg">
<path d="M435.487 137.173C433.467 154.416 419.556 168.38 402.296 170.4C394.002 171.393 386.134 169.727 379.524 166.112C378.195 165.385 376.884 164.641 375.537 163.968L362.228 157.393C358.135 155.373 353.864 154.381 349.611 154.381V263.525H87.6388V154.381C83.3857 154.381 79.1149 155.391 75.039 157.393L61.6595 164.021C60.2772 164.677 58.9836 165.438 57.6545 166.165C51.2926 169.585 43.8497 171.233 35.9993 170.507C18.2604 168.876 3.78207 154.735 1.76186 137.049C-0.896318 113.976 17.0732 94.3766 39.6322 94.3766C45.108 94.3766 50.3179 95.5285 55.014 97.6196L58.1507 99.179L75.039 107.508C79.1149 109.511 83.368 110.521 87.6388 110.521V1.51774H196.766C196.766 5.77082 195.773 10.0062 193.753 14.1175L187.178 27.4261C186.523 28.7729 185.761 30.0842 185.034 31.4133C181.437 38.0588 179.789 45.8915 180.746 54.2205C182.801 71.4632 196.748 85.3566 213.991 87.3768C237.099 90.1059 256.752 72.1012 256.752 49.5067C256.752 44.0308 255.6 38.8207 253.509 34.1424L251.878 30.8462L243.603 14.0997C241.583 10.0061 240.59 5.7708 240.59 1.5H349.593V110.503C353.846 110.503 358.117 109.51 362.21 107.49L378.957 99.2145L382.253 97.5841C386.932 95.493 392.141 94.3412 397.617 94.3412C420.212 94.3412 438.216 113.994 435.487 137.12V137.173Z" fill="#FCFCFC" stroke="#5376C1" stroke-width="3" stroke-miterlimit="10"/>
</svg>
