<svg width="438" height="266" viewBox="0 0 438 266" fill="none" xmlns="http://www.w3.org/2000/svg">
<path d="M435.523 137.173C433.503 154.434 419.592 168.38 402.367 170.418C394.055 171.393 386.205 169.745 379.559 166.13C378.23 165.403 376.919 164.641 375.572 163.985L362.264 157.411C358.188 155.408 353.899 154.398 349.664 154.398V263.525H240.643C240.643 259.29 241.653 255.037 243.656 250.979L251.985 234.09L253.544 230.954C255.635 226.24 256.787 221.047 256.787 215.572C256.787 193.013 237.205 175.026 214.115 177.684C196.447 179.739 182.305 194.218 180.675 211.921C179.948 219.789 181.596 227.214 185.017 233.576C185.743 234.923 186.487 236.234 187.161 237.581L193.753 250.979C195.756 255.037 196.766 259.29 196.766 263.525H87.6387V154.398C83.3856 154.398 79.1148 155.408 75.0389 157.411L61.6595 164.003C60.3127 164.676 58.9836 165.438 57.6545 166.165C51.2926 169.585 43.8674 171.233 35.9992 170.507C18.2957 168.859 3.78207 154.717 1.76186 137.049C-0.896317 113.958 17.073 94.3766 39.6321 94.3766C45.1079 94.3766 50.3179 95.5285 55.014 97.6196L58.1506 99.179L75.0389 107.508C79.1148 109.51 83.3679 110.521 87.6387 110.521V1.51763H196.766C196.766 5.77071 195.756 10.0062 193.753 14.1175L187.196 27.426C186.523 28.7728 185.779 30.0841 185.052 31.4132C181.455 38.0409 179.789 45.8915 180.763 54.185C182.784 71.4454 196.766 85.3388 213.991 87.3767C237.134 90.1058 256.752 72.1011 256.752 49.5066C256.752 44.0307 255.6 38.8207 253.509 34.1424L251.878 30.8462L243.603 14.0997C241.6 10.0061 240.59 5.7708 240.59 1.5H349.611V110.503C353.846 110.503 358.135 109.493 362.21 107.49L378.957 99.2144L382.253 97.5841C386.931 95.493 392.141 94.3411 397.617 94.3411C420.212 94.3411 438.216 113.994 435.487 137.102L435.523 137.173Z" fill="#FCFCFC" stroke="#5376C1" stroke-width="3" stroke-miterlimit="10"/>
</svg>
