<svg width="352" height="265" viewBox="0 0 352 265" fill="none" xmlns="http://www.w3.org/2000/svg">
<path d="M349.366 137.156C347.346 154.416 333.435 168.362 316.21 170.4C307.899 171.375 300.048 169.709 293.403 166.094C292.074 165.368 290.763 164.623 289.416 163.95L276.125 157.393C272.031 155.373 267.76 154.38 263.507 154.38V263.507H154.505C154.505 259.272 155.515 255.019 157.517 250.961L165.846 234.073L167.406 230.936C169.497 226.222 170.649 221.03 170.649 215.554C170.649 192.977 151.049 175.008 127.958 177.666C110.29 179.722 96.1488 194.2 94.5184 211.903C93.7918 219.772 95.4399 227.197 98.8601 233.559C99.5866 234.888 100.331 236.217 101.004 237.564L107.632 250.961C109.635 255.019 110.645 259.272 110.645 263.507H1.5V1.51774H110.645C110.645 5.77082 109.652 10.0416 107.632 14.1352L101.058 27.4438C100.384 28.7906 99.6398 30.102 98.9133 31.4311C95.3159 38.0588 93.6501 45.9092 94.6247 54.2027C96.6449 71.4631 110.627 85.3566 127.852 87.3945C150.996 90.1236 170.631 72.1189 170.631 49.5244C170.631 44.0485 169.479 38.8385 167.388 34.1601L165.757 30.864L157.482 14.1175C155.461 10.0239 154.469 5.75308 154.469 1.5H263.472V110.521C267.725 110.521 271.996 109.528 276.089 107.508L292.836 99.2322L296.132 97.6019C300.81 95.5108 306.021 94.3589 311.496 94.3589C334.073 94.3589 352.078 113.976 349.349 137.12L349.366 137.156Z" fill="#FCFCFC" stroke="#5376C1" stroke-width="3" stroke-miterlimit="10"/>
</svg>
