<svg width="352" height="352" viewBox="0 0 352 352" fill="none" xmlns="http://www.w3.org/2000/svg">
<path d="M263.751 137.031C265.772 154.717 280.268 168.841 297.989 170.489C305.822 171.216 313.282 169.568 319.644 166.147C320.973 165.421 322.285 164.659 323.649 163.985L337.029 157.393C341.105 155.373 345.358 154.38 349.628 154.38V263.525H240.608C240.608 267.778 241.6 272.049 243.62 276.143L251.896 292.889L253.527 296.185C255.618 300.864 256.769 306.074 256.769 311.549C256.769 334.126 237.117 352.149 214.008 349.42C196.748 347.399 182.801 333.488 180.763 316.228C179.789 307.934 181.437 300.066 185.07 293.456C185.761 292.127 186.54 290.816 187.178 289.469L193.753 276.16C195.773 272.067 196.766 267.796 196.766 263.543H87.6388V154.398C83.3857 154.398 79.1147 155.391 75.0388 157.411L61.6595 164.003C60.2772 164.676 58.9836 165.439 57.6545 166.165C51.2926 169.585 43.8498 171.233 35.9993 170.507C18.2604 168.859 3.78207 154.735 1.76186 137.049C-0.896315 113.959 17.0729 94.3766 39.632 94.3766C45.1078 94.3766 50.3179 95.5285 55.014 97.6196L58.1507 99.179L75.0388 107.508C79.1147 109.528 83.368 110.521 87.6388 110.521V1.51774H196.766C196.766 5.7531 195.755 10.0416 193.753 14.1175L187.178 27.4261C186.523 28.7729 185.761 30.0842 185.07 31.4133C181.437 38.0588 179.806 45.8915 180.763 54.185C182.819 71.4455 196.766 85.3388 214.008 87.3767C237.117 90.1058 256.769 72.1011 256.769 49.5066C256.769 44.0308 255.618 38.8207 253.527 34.1424L251.896 30.8462L243.62 14.0997C241.618 10.0239 240.608 5.73536 240.608 1.5H349.628V110.503C345.375 110.503 341.105 109.51 337.029 107.49L320.14 99.1613L317.004 97.6019C312.29 95.5108 307.098 94.3589 301.622 94.3589C279.063 94.3589 261.093 113.941 263.751 137.031Z" fill="#FCFCFC" stroke="#5376C1" stroke-width="3" stroke-miterlimit="10"/>
</svg>
