<svg width="266" height="438" viewBox="0 0 266 438" fill="none" xmlns="http://www.w3.org/2000/svg">
<path d="M177.613 223.117C179.633 240.785 194.147 254.926 211.85 256.574C219.718 257.301 227.144 255.653 233.506 252.233C234.835 251.506 236.164 250.744 237.511 250.071L250.89 243.478C254.966 241.476 259.219 240.466 263.49 240.466V349.593H154.469C154.451 353.846 155.462 358.134 157.482 362.228L165.757 378.974L167.388 382.271C169.479 386.949 170.631 392.159 170.631 397.635C170.631 420.212 151.013 438.216 127.87 435.505C110.627 433.485 96.6627 419.556 94.6424 402.313C93.6501 394.002 95.3159 386.151 98.931 379.506C99.6576 378.195 100.402 376.901 101.075 375.536L107.632 362.228C109.652 358.134 110.68 353.846 110.645 349.593H1.51774V240.466C5.77082 240.466 10.0416 241.458 14.1352 243.478L27.4261 250.053C28.7729 250.709 30.0842 251.471 31.4133 252.197C38.0588 255.795 45.8915 257.443 54.2205 256.486C71.4632 254.43 85.3566 240.483 87.3768 223.241C90.1059 200.132 72.1011 180.48 49.5244 180.48C44.0485 180.48 38.8385 181.631 34.1601 183.723L30.864 185.353L14.1175 193.629C10.0239 195.649 5.75308 196.641 1.5 196.641V87.6384H110.627C110.627 83.3853 109.617 79.1145 107.614 75.0386L101.022 61.6591C100.349 60.2769 99.6044 58.9832 98.8778 57.6541C95.4576 51.2922 93.8095 43.8494 94.5361 35.9989C96.1665 18.26 110.308 3.78183 127.976 1.76162C151.067 -0.89656 170.649 17.0727 170.649 39.6317C170.649 45.1076 169.497 50.3176 167.406 55.0137L165.846 58.1504L157.517 75.0386C155.515 79.1145 154.505 83.3676 154.505 87.6384H263.525V196.641C259.272 196.641 255.001 195.631 250.925 193.629L234.037 185.3L230.901 183.74C226.187 181.649 220.994 180.497 215.519 180.497C192.96 180.497 174.99 200.079 177.648 223.17L177.613 223.117Z" fill="#FCFCFC" stroke="#5376C1" stroke-width="3" stroke-miterlimit="10"/>
</svg>
