<svg width="438" height="266" viewBox="0 0 438 266" fill="none" xmlns="http://www.w3.org/2000/svg">
<path d="M435.523 137.173C433.503 154.434 419.592 168.38 402.367 170.418C394.055 171.393 386.205 169.745 379.559 166.112C378.23 165.421 376.919 164.641 375.572 163.985L362.264 157.411C358.17 155.391 353.935 154.398 349.664 154.398V263.525H240.643C240.643 259.272 241.636 255.037 243.656 250.961L251.985 234.073L253.544 230.936C255.635 226.222 256.787 221.03 256.787 215.554C256.787 192.995 237.205 175.008 214.115 177.684C196.447 179.704 182.305 194.2 180.675 211.903C179.948 219.772 181.596 227.197 185.016 233.576C185.743 234.906 186.487 236.217 187.161 237.564L193.753 250.961C195.773 255.037 196.766 259.272 196.766 263.525H87.6387V154.398C83.3856 154.398 79.1147 155.391 75.0388 157.411L61.6594 164.003C60.2771 164.677 58.9835 165.439 57.6544 166.165C51.2925 169.585 43.8674 171.233 35.9992 170.489C18.2957 168.859 3.78207 154.717 1.76186 137.049C-0.896316 113.959 17.0729 94.3766 39.632 94.3766C45.1078 94.3766 50.3178 95.5285 55.0139 97.6196L58.1506 99.1791L75.0388 107.508C79.1147 109.528 83.3679 110.521 87.6387 110.521V1.5H349.628V110.521C353.881 110.521 358.117 109.528 362.228 107.508L378.975 99.2322L382.271 97.6019C386.949 95.5108 392.159 94.3589 397.635 94.3589C420.23 94.3589 438.234 114.012 435.505 137.12L435.523 137.173Z" fill="#FCFCFC" stroke="#5376C1" stroke-width="3" stroke-miterlimit="10"/>
</svg>
