<svg width="352" height="266" viewBox="0 0 352 266" fill="none" xmlns="http://www.w3.org/2000/svg">
<path d="M263.751 137.049C265.772 154.735 280.285 168.876 297.989 170.507C305.857 171.233 313.282 169.585 319.644 166.165C320.973 165.438 322.284 164.676 323.649 164.021L337.029 157.393C341.104 155.391 345.358 154.38 349.628 154.38V263.525H87.6386V154.38C83.3855 154.38 79.1147 155.391 75.0388 157.393L61.6594 164.021C60.2771 164.676 58.9835 165.438 57.6544 166.165C51.2925 169.585 43.8674 171.233 35.9992 170.507C18.2957 168.876 3.78207 154.735 1.76186 137.049C-0.896315 113.976 17.0729 94.3766 39.632 94.3766C45.1078 94.3766 50.3178 95.5285 55.0139 97.6196L58.1506 99.179L75.0388 107.508C79.1147 109.511 83.3678 110.521 87.6386 110.521V1.51774H196.766C196.766 5.77082 195.773 10.0062 193.753 14.1175L187.196 27.4261C186.523 28.7729 185.778 30.0842 185.052 31.4133C181.454 38.0588 179.789 45.8915 180.763 54.2205C182.784 71.4632 196.73 85.3565 213.991 87.3767C237.134 90.1058 256.752 72.1011 256.752 49.5066C256.752 44.0307 255.6 38.8207 253.509 34.1424L251.878 30.8462L243.603 14.0997C241.582 10.0061 240.59 5.7708 240.59 1.5H349.611V110.503C345.357 110.503 341.087 109.493 337.011 107.49L320.123 99.1613L316.986 97.6018C312.272 95.5107 307.08 94.3588 301.604 94.3588C279.045 94.3588 261.076 113.958 263.734 137.031L263.751 137.049Z" fill="#FCFCFC" stroke="#5376C1" stroke-width="3" stroke-miterlimit="10"/>
</svg>
