<svg width="438" height="438" viewBox="0 0 438 438" fill="none" xmlns="http://www.w3.org/2000/svg">
<path d="M435.47 223.294C433.45 240.554 419.538 254.501 402.278 256.539C393.984 257.513 386.152 255.865 379.506 252.25C378.177 251.524 376.866 250.762 375.519 250.106L362.21 243.531C358.134 241.529 353.846 240.519 349.611 240.519V349.646H240.59C240.572 353.899 241.582 358.187 243.603 362.281L251.878 379.027L253.509 382.324C255.6 387.002 256.752 392.212 256.752 397.688C256.752 420.265 237.134 438.269 213.991 435.558C196.73 433.538 182.784 419.609 180.763 402.366C179.771 394.055 181.437 386.205 185.052 379.559C185.778 378.248 186.523 376.954 187.196 375.59L193.753 362.281C195.773 358.187 196.801 353.899 196.766 349.646H87.6387V240.519C83.3856 240.519 79.1148 241.529 75.0389 243.531L61.6594 250.124C60.2771 250.797 58.9835 251.559 57.6544 252.286C51.2925 255.706 43.8674 257.354 35.9992 256.627C18.2957 254.979 3.78207 240.838 1.76186 223.17C-0.896316 200.079 17.0729 180.497 39.632 180.497C45.1078 180.497 50.3178 181.649 55.0139 183.74L58.1506 185.3L75.0389 193.629C79.1148 195.631 83.3679 196.641 87.6387 196.641V87.6383H196.766C196.766 83.3852 195.756 79.1145 193.753 75.0386L187.161 61.6591C186.487 60.2769 185.743 58.9832 185.017 57.6541C181.561 51.2922 179.948 43.8494 180.675 35.9989C182.305 18.26 196.447 3.78183 214.115 1.76162C237.205 -0.896559 256.787 17.0727 256.787 39.6317C256.787 45.1076 255.635 50.3176 253.544 55.0137L251.985 58.1504L243.656 75.0386C241.653 79.1145 240.643 83.3675 240.643 87.6383H349.664V196.641C353.899 196.641 358.188 195.631 362.264 193.629L379.01 185.353L382.306 183.723C386.985 181.631 392.195 180.48 397.67 180.48C420.265 180.48 438.27 200.132 435.541 223.241L435.47 223.294Z" fill="#FCFCFC" stroke="#5376C1" stroke-width="3" stroke-miterlimit="10"/>
</svg>
