<svg width="438" height="352" viewBox="0 0 438 352" fill="none" xmlns="http://www.w3.org/2000/svg">
<path d="M435.523 223.312C433.502 240.554 419.591 254.483 402.331 256.539C394.037 257.514 386.169 255.865 379.559 252.25C378.23 251.524 376.919 250.762 375.572 250.106L362.263 243.531C358.17 241.511 353.899 240.519 349.646 240.519V349.664H240.643C240.643 345.41 241.636 341.175 243.656 337.099L251.985 320.211L253.544 317.074C255.635 312.36 256.787 307.168 256.787 301.692C256.787 279.133 237.205 261.146 214.115 263.822C196.447 265.842 182.305 280.338 180.657 298.042C179.93 305.91 181.578 313.335 184.999 319.715C185.725 321.044 186.487 322.355 187.161 323.702L193.753 337.099C195.773 341.175 196.765 345.41 196.765 349.664H87.6386V240.519C83.3855 240.519 79.1147 241.511 75.0388 243.531L61.6593 250.124C60.277 250.797 58.9834 251.559 57.6543 252.286C51.2924 255.706 43.8495 257.354 35.9991 256.627C18.2602 254.979 3.78207 240.856 1.76186 223.17C-0.896315 200.079 17.0729 180.497 39.632 180.497C45.1078 180.497 50.3177 181.649 55.0138 183.74L58.1505 185.3L75.0388 193.629C79.1147 195.649 83.3678 196.641 87.6386 196.641V87.6384H196.765C196.765 83.3853 195.773 79.1145 193.753 75.0386L187.161 61.6591C186.487 60.2769 185.725 58.9833 184.999 57.6542C181.578 51.2923 179.93 43.8671 180.657 35.9989C182.305 18.26 196.447 3.78183 214.115 1.76162C237.205 -0.896559 256.787 17.0727 256.787 39.6317C256.787 45.1076 255.635 50.3176 253.544 55.0137L251.985 58.1504L243.656 75.0386C241.636 79.1145 240.643 83.3676 240.643 87.6384H349.646V196.641C353.899 196.641 358.17 195.649 362.263 193.629L379.01 185.353L382.306 183.723C386.985 181.631 392.194 180.48 397.67 180.48C420.265 180.48 438.269 200.132 435.54 223.258L435.523 223.312Z" fill="#FCFCFC" stroke="#5376C1" stroke-width="3" stroke-miterlimit="10"/>
</svg>
