<svg width="352" height="265" viewBox="0 0 352 265" fill="none" xmlns="http://www.w3.org/2000/svg">
<path d="M349.402 137.12C347.382 154.38 333.471 168.327 316.246 170.365C307.934 171.34 300.084 169.692 293.438 166.059C292.109 165.368 290.798 164.588 289.451 163.932L276.143 157.358C272.067 155.337 267.778 154.345 263.543 154.345V263.472H154.522C154.522 259.219 155.532 254.984 157.535 250.908L165.864 234.019L167.423 230.883C169.514 226.169 170.666 220.977 170.666 215.501C170.666 192.942 151.084 174.955 127.994 177.631C110.326 179.651 96.1842 194.147 94.5539 211.85C93.8273 219.718 95.4754 227.144 98.8956 233.523C99.6221 234.852 100.366 236.164 101.04 237.51L107.632 250.908C109.635 254.984 110.645 259.219 110.645 263.472H1.51774V154.345C5.77082 154.345 10.0416 155.337 14.1352 157.358L27.4261 163.932C28.7729 164.588 30.0842 165.35 31.4133 166.059C38.0588 169.692 45.8915 171.322 54.2205 170.365C71.4632 168.309 85.3566 154.363 87.3768 137.12C90.1059 114.012 72.1011 94.3589 49.5244 94.3589C44.0485 94.3589 38.8385 95.5108 34.1601 97.6019L30.864 99.2322L14.1175 107.508C10.0239 109.528 5.75308 110.521 1.5 110.521V1.5H263.49V110.521C267.725 110.521 272.014 109.528 276.089 107.508L292.836 99.2322L296.132 97.6019C300.811 95.5108 306.021 94.3589 311.496 94.3589C334.091 94.3589 352.096 114.012 349.366 137.12H349.402Z" fill="#FCFCFC" stroke="#5376C1" stroke-width="3" stroke-miterlimit="10"/>
</svg>
