<svg width="438" height="266" viewBox="0 0 438 266" fill="none" xmlns="http://www.w3.org/2000/svg">
<path d="M435.487 137.173C433.467 154.416 419.556 168.38 402.296 170.4C394.002 171.393 386.169 169.727 379.524 166.112C378.195 165.385 376.883 164.641 375.537 163.968L362.228 157.393C358.152 155.391 353.864 154.381 349.628 154.381V263.525H87.6387V154.381C83.3856 154.381 79.1148 155.391 75.0389 157.393L61.6594 164.021C60.2771 164.677 58.9836 165.438 57.6545 166.165C51.2926 169.585 43.8674 171.233 35.9992 170.507C18.2957 168.876 3.78207 154.735 1.76186 137.049C-0.896315 113.976 17.0729 94.3766 39.632 94.3766C45.1078 94.3766 50.3178 95.5285 55.0139 97.6196L58.1506 99.179L75.0389 107.508C79.1148 109.511 83.3679 110.521 87.6387 110.521V1.51774H196.766C196.766 5.77082 195.756 10.0062 193.753 14.1175L187.196 27.4261C186.523 28.7729 185.778 30.0842 185.052 31.4133C181.454 38.0588 179.789 45.8915 180.763 54.2205C182.784 71.4632 196.73 85.3566 213.991 87.3768C237.134 90.1059 256.752 72.1012 256.752 49.5067C256.752 44.0308 255.6 38.8207 253.509 34.1424L251.879 30.8462L243.603 14.0997C241.6 10.0061 240.59 5.7708 240.59 1.5H349.611V110.503C353.846 110.503 358.134 109.493 362.21 107.49L378.957 99.2145L382.253 97.5841C386.931 95.493 392.142 94.3412 397.617 94.3412C420.212 94.3412 438.217 113.994 435.487 137.12V137.173Z" fill="#FCFCFC" stroke="#5376C1" stroke-width="3" stroke-miterlimit="10"/>
</svg>
