<svg width="352" height="266" viewBox="0 0 352 266" fill="none" xmlns="http://www.w3.org/2000/svg">
<path d="M263.787 137.067C265.807 154.735 280.321 168.876 298.024 170.507C305.892 171.233 313.318 169.603 319.68 166.165C321.009 165.474 322.338 164.694 323.685 164.021L337.064 157.429C341.14 155.426 345.393 154.416 349.664 154.416V263.543H240.643C240.643 259.308 241.636 255.054 243.656 250.996L251.985 234.108L253.544 230.971C255.635 226.258 256.787 221.065 256.787 215.589C256.787 193.013 237.205 175.043 214.115 177.702C196.447 179.757 182.305 194.235 180.675 211.939C179.948 219.807 181.596 227.232 185.016 233.594C185.743 234.923 186.487 236.252 187.161 237.599L193.753 250.996C195.773 255.054 196.766 259.308 196.766 263.543H87.6386V154.416C83.3855 154.416 79.1148 155.426 75.0389 157.429L61.6594 164.021C60.3126 164.694 58.9835 165.456 57.6544 166.165C51.2925 169.621 43.8674 171.233 35.9992 170.507C18.2957 168.876 3.78207 154.735 1.76186 137.067C-0.896315 113.976 17.0729 94.3944 39.632 94.3944C45.1078 94.3944 50.3178 95.5462 55.0139 97.6373L58.1506 99.1968L75.0389 107.526C79.1148 109.528 83.3678 110.538 87.6386 110.538V1.51774H196.766C196.766 5.77082 195.773 10.0416 193.753 14.1352L187.196 27.4438C186.523 28.7906 185.778 30.102 185.052 31.4311C181.454 38.0588 179.789 45.9092 180.763 54.2027C182.784 71.4632 196.766 85.3566 213.991 87.3945C237.134 90.1236 256.752 72.1189 256.752 49.5244C256.752 44.0485 255.6 38.8385 253.509 34.1601L251.878 30.864L243.603 14.1175C241.582 10.0239 240.59 5.75308 240.59 1.5H349.611V110.521C345.357 110.521 341.087 109.511 337.011 107.508L320.123 99.1791L316.986 97.6196C312.272 95.5285 307.08 94.3766 301.604 94.3766C279.045 94.3766 261.076 113.959 263.734 137.049L263.787 137.067Z" fill="#FCFCFC" stroke="#5376C1" stroke-width="3" stroke-miterlimit="10"/>
</svg>
