<svg width="438" height="438" viewBox="0 0 438 438" fill="none" xmlns="http://www.w3.org/2000/svg">
<path d="M435.47 223.262C433.449 240.522 419.538 254.469 402.278 256.506C393.984 257.481 386.152 255.815 379.506 252.2C378.177 251.474 376.866 250.729 375.519 250.056L362.21 243.499C358.117 241.497 353.882 240.487 349.611 240.487V349.613H240.59C240.572 353.867 241.582 358.155 243.603 362.249L251.878 378.995L253.509 382.291C255.6 386.97 256.752 392.18 256.752 397.656C256.752 420.232 237.134 438.237 213.991 435.508C196.73 433.488 182.784 419.577 180.746 402.352C179.771 394.04 181.437 386.19 185.052 379.544C185.778 378.233 186.523 376.94 187.196 375.575L193.753 362.266C195.773 358.173 196.801 353.884 196.766 349.631H87.6386V240.504C83.3855 240.504 79.1147 241.514 75.0388 243.517L61.6593 250.109C60.277 250.783 58.9836 251.545 57.6545 252.253C51.2926 255.709 43.8673 257.322 35.9991 256.595C18.2602 254.965 3.78207 240.823 1.76186 223.155C-0.896315 200.065 17.0729 180.483 39.632 180.483C45.1078 180.483 50.3177 181.635 55.0138 183.726L58.1505 185.285L75.0388 193.614C79.1147 195.617 83.3678 196.627 87.6386 196.627V87.606H196.766C196.766 83.353 195.773 79.1176 193.753 75.0417L187.143 61.6445C186.47 60.2977 185.708 58.9864 184.999 57.6573C181.543 51.2777 179.93 43.8525 180.657 35.9843C182.287 18.2808 196.429 3.78493 214.097 1.76472C237.187 -0.911177 256.769 17.0758 256.769 39.6348C256.769 45.1107 255.617 50.3207 253.526 55.0168L251.967 58.1535L243.638 75.0417C241.618 79.1176 240.626 83.353 240.626 87.606H349.646V196.627C353.899 196.627 358.134 195.617 362.246 193.614L378.992 185.338L382.288 183.708C386.967 181.617 392.177 180.465 397.653 180.465C420.247 180.465 438.252 200.082 435.523 223.226L435.47 223.262Z" fill="#FCFCFC" stroke="#5376C1" stroke-width="3" stroke-miterlimit="10"/>
</svg>
