<svg width="352" height="352" viewBox="0 0 352 352" fill="none" xmlns="http://www.w3.org/2000/svg">
<path d="M349.402 223.259C347.382 240.501 333.471 254.43 316.246 256.486C307.934 257.46 300.084 255.812 293.439 252.197C292.109 251.471 290.798 250.709 289.451 250.053L276.143 243.478C272.049 241.458 267.814 240.466 263.543 240.466V349.61H154.522C154.522 345.357 155.515 341.122 157.535 337.046L165.864 320.158L167.423 317.021C169.514 312.307 170.666 307.115 170.666 301.639C170.666 279.08 151.084 261.093 127.994 263.769C110.326 265.789 96.1843 280.285 94.5539 297.989C93.8273 305.857 95.4753 313.282 98.8955 319.662C99.6221 320.991 100.366 322.302 101.04 323.649L107.632 337.046C109.652 341.122 110.645 345.357 110.645 349.61H1.51774V240.466C5.7531 240.466 10.0416 241.458 14.1175 243.478L27.4261 250.053C28.7729 250.709 30.0843 251.471 31.4134 252.197C38.0588 255.794 45.8916 257.443 54.2205 256.486C71.4632 254.43 85.3565 240.483 87.3768 223.259C90.1058 200.115 72.1011 180.48 49.5066 180.48C44.0308 180.48 38.8208 181.631 34.1424 183.723L30.8463 185.353L14.0998 193.629C10.0239 195.649 5.73536 196.641 1.5 196.641V87.6384H110.627C110.627 83.3853 109.635 79.1145 107.614 75.0387L101.022 61.6591C100.349 60.2769 99.6044 58.9833 98.8779 57.6542C95.4577 51.2923 93.8096 43.8671 94.5362 35.9989C96.1665 18.26 110.308 3.78183 127.976 1.76162C151.067 -0.89656 170.649 17.0727 170.649 39.6317C170.649 45.1076 169.497 50.3176 167.406 55.0137L165.846 58.1504L157.517 75.0387C155.497 79.1145 154.505 83.3676 154.505 87.6384H263.525V196.641C267.778 196.641 272.014 195.649 276.125 193.629L292.871 185.353L296.168 183.723C300.846 181.631 306.056 180.48 311.532 180.48C334.126 180.48 352.131 200.132 349.402 223.259Z" fill="#FCFCFC" stroke="#5376C1" stroke-width="3" stroke-miterlimit="10"/>
</svg>
