<svg width="438" height="266" viewBox="0 0 438 266" fill="none" xmlns="http://www.w3.org/2000/svg">
<path d="M435.47 137.173C433.449 154.416 419.538 168.38 402.313 170.4C394.002 171.393 386.152 169.727 379.506 166.112C378.177 165.385 376.866 164.641 375.519 163.968L362.21 157.393C358.134 155.391 353.846 154.381 349.611 154.381V263.525H87.6209V154.381C83.3678 154.381 79.1324 155.391 75.0566 157.393L61.6594 164.021C60.3126 164.677 58.9835 165.438 57.6544 166.165C51.2925 169.585 43.8674 171.233 35.9992 170.507C18.2957 168.876 3.79979 154.735 1.76185 137.049C-0.896321 113.976 17.0729 94.3766 39.6497 94.3766C45.1256 94.3766 50.3356 95.5285 55.0317 97.6196L58.1683 99.179L75.0566 107.508C79.1324 109.511 83.3678 110.521 87.6209 110.521V1.51774H196.748C196.748 5.77082 195.738 10.0062 193.735 14.1175L187.178 27.4261C186.505 28.7729 185.761 30.0842 185.034 31.4133C181.437 38.0588 179.771 45.8915 180.746 54.2205C182.766 71.4632 196.748 85.3566 213.973 87.3768C237.117 90.1059 256.734 72.1012 256.734 49.5067C256.734 44.0308 255.582 38.8207 253.491 34.1424L251.861 30.8462L243.585 14.0997C241.582 10.0061 240.572 5.7708 240.572 1.5H349.593V110.503C353.828 110.503 358.117 109.493 362.193 107.49L378.939 99.2145L382.235 97.5841C386.914 95.493 392.124 94.3412 397.6 94.3412C420.194 94.3412 438.199 113.994 435.47 137.12V137.173Z" fill="#FCFCFC" stroke="#5376C1" stroke-width="3" stroke-miterlimit="10"/>
</svg>
