<svg width="352" height="352" viewBox="0 0 352 352" fill="none" xmlns="http://www.w3.org/2000/svg">
<path d="M263.787 223.17C265.807 240.838 280.321 254.979 298.024 256.627C305.892 257.354 313.318 255.706 319.68 252.286C321.009 251.559 322.338 250.797 323.685 250.124L337.064 243.531C341.14 241.529 345.393 240.519 349.664 240.519V349.646H240.643C240.643 345.41 241.636 341.157 243.656 337.099L251.985 320.211L253.544 317.074C255.635 312.36 256.787 307.168 256.787 301.692C256.787 279.133 237.205 261.146 214.115 263.804C196.447 265.86 182.305 280.338 180.675 298.042C179.948 305.91 181.596 313.335 185.016 319.697C185.743 321.044 186.487 322.355 187.161 323.702L193.753 337.099C195.773 341.157 196.766 345.41 196.766 349.646H87.6386V240.519C83.3855 240.519 79.1148 241.529 75.0389 243.531L61.6594 250.124C60.3126 250.797 58.9835 251.559 57.6544 252.286C51.2925 255.706 43.8674 257.354 35.9992 256.627C18.2957 254.979 3.78207 240.838 1.76186 223.17C-0.896315 200.079 17.0729 180.497 39.632 180.497C45.1078 180.497 50.3178 181.649 55.0139 183.74L58.1506 185.3L75.0389 193.629C79.1148 195.631 83.3678 196.641 87.6386 196.641V87.6383H196.766C196.766 83.3852 195.773 79.1145 193.753 75.0386L187.161 61.6591C186.487 60.2769 185.743 58.9832 185.016 57.6541C181.596 51.2922 179.948 43.8493 180.675 35.9988C182.305 18.2599 196.447 3.78183 214.115 1.76162C237.205 -0.896559 256.787 17.0727 256.787 39.6317C256.787 45.1076 255.635 50.3176 253.544 55.0137L251.985 58.1503L243.656 75.0386C241.636 79.1145 240.643 83.3675 240.643 87.6383H349.664V196.641C345.411 196.641 341.14 195.631 337.064 193.629L320.176 185.3L317.039 183.74C312.325 181.649 307.133 180.497 301.657 180.497C279.098 180.497 261.129 200.079 263.787 223.17Z" fill="#FCFCFC" stroke="#5376C1" stroke-width="3" stroke-miterlimit="10"/>
</svg>
