<svg width="266" height="438" viewBox="0 0 266 438" fill="none" xmlns="http://www.w3.org/2000/svg">
<path d="M177.63 223.084C179.651 240.752 194.147 254.894 211.868 256.524C219.701 257.251 227.161 255.62 233.523 252.183C234.852 251.491 236.164 250.712 237.528 250.038L250.908 243.446C254.984 241.443 259.237 240.433 263.507 240.433V349.56H154.487C154.469 353.813 155.479 358.102 157.499 362.195L165.775 378.942L167.406 382.238C169.497 386.917 170.648 392.127 170.648 397.602C170.648 420.179 150.996 438.184 127.887 435.455C110.627 433.435 96.6803 419.523 94.6423 402.299C93.6677 393.987 95.3158 386.137 98.9487 379.491C99.6398 378.18 100.419 376.886 101.057 375.522L107.632 362.213C109.652 358.12 110.68 353.831 110.645 349.578H1.51774V240.451C5.77082 240.451 10.0062 241.461 14.1175 243.464L27.4261 250.021C28.7729 250.694 30.0842 251.438 31.4133 252.165C38.0588 255.762 45.8915 257.428 54.185 256.471C71.4454 254.415 85.3388 240.469 87.3767 223.226C90.1058 200.082 72.1011 180.465 49.5066 180.465C44.0307 180.465 38.8206 181.617 34.1422 183.708L30.8461 185.338L14.0997 193.614C10.0061 195.617 5.7708 196.627 1.5 196.627V87.606H110.627C110.627 83.3529 109.617 79.1176 107.614 75.0417L101.022 61.6445C100.348 60.2977 99.5866 58.9863 98.8777 57.6572C95.4221 51.2776 93.7918 43.8525 94.5361 35.9843C96.1665 18.2808 110.308 3.78493 127.976 1.76472C151.067 -0.911177 170.648 17.0758 170.648 39.6348C170.648 45.1107 169.497 50.3207 167.406 55.0168L165.846 58.1534L157.517 75.0417C155.514 79.1176 154.504 83.3529 154.504 87.606H263.525V196.627C259.272 196.627 255.001 195.617 250.925 193.614L234.037 185.285L230.9 183.726C226.187 181.635 220.994 180.483 215.518 180.483C192.959 180.483 174.99 200.065 177.648 223.155L177.63 223.084Z" fill="#FCFCFC" stroke="#5376C1" stroke-width="3" stroke-miterlimit="10"/>
</svg>
