<svg width="352" height="352" viewBox="0 0 352 352" fill="none" xmlns="http://www.w3.org/2000/svg">
<path d="M349.349 137.102C347.329 154.363 333.417 168.309 316.192 170.347C307.881 171.322 300.031 169.674 293.385 166.041C292.056 165.35 290.745 164.57 289.398 163.914L276.089 157.34C271.996 155.32 267.761 154.327 263.49 154.327V263.454H154.469C154.469 267.707 155.462 271.978 157.482 276.072L165.757 292.818L167.388 296.114C169.479 300.793 170.631 306.003 170.631 311.479C170.631 334.073 151.013 352.078 127.87 349.349C110.627 347.329 96.6627 333.417 94.6424 316.157C93.6501 307.863 95.3159 299.995 98.931 293.385C99.6576 292.056 100.402 290.745 101.075 289.398L107.632 276.089C109.652 271.996 110.645 267.725 110.645 263.472H1.51774V154.345C5.7531 154.345 10.0416 155.337 14.1175 157.358L27.4261 163.932C28.7729 164.588 30.0842 165.35 31.4133 166.059C38.0588 169.692 45.8915 171.322 54.2205 170.365C71.4632 168.309 85.3566 154.363 87.3768 137.12C90.1059 114.012 72.1012 94.3589 49.5067 94.3589C44.0308 94.3589 38.8209 95.5108 34.1425 97.6019L30.8462 99.2322L14.0998 107.508C10.0239 109.528 5.73536 110.521 1.5 110.521V1.5H263.49V110.521C267.743 110.521 271.978 109.528 276.089 107.508L292.836 99.2322L296.132 97.6019C300.811 95.5108 306.021 94.3589 311.496 94.3589C334.091 94.3589 352.096 114.012 349.366 137.12L349.349 137.102Z" fill="#FCFCFC" stroke="#5376C1" stroke-width="3" stroke-miterlimit="10"/>
</svg>
