<svg width="266" height="265" viewBox="0 0 266 265" fill="none" xmlns="http://www.w3.org/2000/svg">
<path d="M177.648 136.996C179.669 154.682 194.165 168.806 211.886 170.454C219.719 171.18 227.179 169.532 233.541 166.112C234.87 165.385 236.182 164.623 237.546 163.95L250.925 157.358C255.001 155.337 259.255 154.345 263.525 154.345V263.49H154.505C154.505 259.237 155.497 255.001 157.517 250.925L165.846 234.037L167.406 230.901C169.497 226.187 170.649 220.994 170.649 215.519C170.649 192.96 151.067 174.973 127.976 177.648C110.308 179.669 96.1665 194.165 94.5361 211.868C93.8096 219.736 95.44 227.161 98.8779 233.541C99.5691 234.87 100.349 236.181 101.022 237.528L107.632 250.925C109.652 255.001 110.645 259.237 110.645 263.49H1.51774V154.345C5.7531 154.345 10.0416 155.337 14.1175 157.358L27.4261 163.932C28.7729 164.588 30.0842 165.35 31.4133 166.076C38.0588 169.674 45.8917 171.322 54.1852 170.365C71.4456 168.309 85.339 154.363 87.3769 137.138C90.106 113.994 72.1013 94.3589 49.5068 94.3589C44.031 94.3589 38.8209 95.5108 34.1425 97.6019L30.8464 99.2322L14.0999 107.508C10.0241 109.528 5.73536 110.521 1.5 110.521V1.51774H110.627C110.627 5.7531 109.635 10.0416 107.614 14.1175L101.058 27.4261C100.384 28.7729 99.64 30.0842 98.9134 31.4133C95.316 38.0588 93.6501 45.8915 94.6071 54.185C96.6627 71.4455 110.609 85.3389 127.852 87.3768C150.996 90.1059 170.613 72.1011 170.613 49.5066C170.613 44.0308 169.461 38.8208 167.37 34.1424L165.74 30.8462L157.464 14.0998C155.444 10.0239 154.451 5.73536 154.451 1.5H263.472V110.503C259.219 110.503 254.948 109.511 250.872 107.49L233.984 99.1614L230.847 97.6019C226.134 95.5108 220.941 94.3589 215.465 94.3589C192.906 94.3589 174.937 113.941 177.595 137.031L177.648 136.996Z" fill="#FCFCFC" stroke="#5376C1" stroke-width="3" stroke-miterlimit="10"/>
</svg>
