<svg width="438" height="266" viewBox="0 0 438 266" fill="none" xmlns="http://www.w3.org/2000/svg">
<path d="M435.505 137.191C433.485 154.434 419.574 168.363 402.349 170.418C394.038 171.393 386.187 169.745 379.542 166.13C378.213 165.403 376.901 164.641 375.554 163.985L362.246 157.411C358.17 155.391 353.881 154.398 349.646 154.398V263.543H240.625C240.625 259.29 241.636 255.054 243.638 250.979L251.967 234.09L253.526 230.954C255.618 226.24 256.769 221.048 256.769 215.572C256.769 193.013 237.188 175.026 214.097 177.702C196.429 179.722 182.287 194.218 180.657 211.921C179.93 219.789 181.579 227.214 184.999 233.594C185.725 234.923 186.47 236.235 187.143 237.581L193.735 250.979C195.738 255.054 196.748 259.29 196.748 263.543H87.6209V154.398C83.3678 154.398 79.1325 155.391 75.0566 157.411L61.6594 164.003C60.3126 164.677 58.9835 165.438 57.6544 166.165C51.2925 169.585 43.8674 171.233 35.9992 170.507C18.2957 168.859 3.79979 154.735 1.76185 137.049C-0.896321 113.959 17.0729 94.3766 39.6497 94.3766C45.1256 94.3766 50.3356 95.5285 55.0317 97.6196L58.1684 99.1791L75.0566 107.508C79.1325 109.528 83.3678 110.521 87.6209 110.521V1.51768H196.748C196.748 5.75304 195.738 10.0416 193.735 14.1175L187.178 27.426C186.505 28.7728 185.761 30.0842 185.034 31.4133C181.437 38.0587 179.771 45.8915 180.746 54.185C182.766 71.4454 196.748 85.3388 213.973 87.3768C237.117 90.1058 256.734 72.1011 256.734 49.5066C256.734 44.0308 255.582 38.8207 253.491 34.1424L251.861 30.8462L243.585 14.0997C241.582 10.0239 240.572 5.73536 240.572 1.5H349.593V110.503C353.828 110.503 358.117 109.511 362.193 107.49L378.939 99.2145L382.235 97.5841C386.914 95.493 392.124 94.3412 397.6 94.3412C420.194 94.3412 438.199 113.994 435.47 137.12L435.505 137.191Z" fill="#FCFCFC" stroke="#5376C1" stroke-width="3" stroke-miterlimit="10"/>
</svg>
