<svg width="352" height="352" viewBox="0 0 352 352" fill="none" xmlns="http://www.w3.org/2000/svg">
<path d="M349.331 137.12C347.311 154.381 333.4 168.327 316.175 170.365C307.864 171.34 300.013 169.692 293.368 166.059C292.039 165.368 290.727 164.588 289.38 163.932L276.089 157.358C271.996 155.337 267.725 154.345 263.472 154.345V263.472H154.469C154.469 267.725 155.461 271.996 157.482 276.089L165.757 292.836L167.388 296.132C169.479 300.81 170.631 306.021 170.631 311.496C170.631 334.091 150.978 352.096 127.852 349.367C110.609 347.346 96.6449 333.435 94.6247 316.175C93.6323 307.881 95.2981 300.013 98.9132 293.403C99.6398 292.074 100.384 290.763 101.057 289.416L107.632 276.107C109.652 272.014 110.645 267.743 110.645 263.49H1.5V1.5H263.49V110.521C267.743 110.521 272.014 109.528 276.107 107.508L292.854 99.2322L296.15 97.6019C300.828 95.5108 306.038 94.3589 311.514 94.3589C334.091 94.3589 352.096 114.012 349.366 137.12H349.331Z" fill="#FCFCFC" stroke="#5376C1" stroke-width="3" stroke-miterlimit="10"/>
</svg>
