<svg width="352" height="438" viewBox="0 0 352 438" fill="none" xmlns="http://www.w3.org/2000/svg">
<path d="M349.349 223.208C347.329 240.469 333.417 254.415 316.192 256.453C307.881 257.428 300.031 255.762 293.385 252.147C292.056 251.421 290.745 250.676 289.398 250.003L276.089 243.446C271.996 241.444 267.761 240.433 263.49 240.433V349.56H154.469C154.451 353.813 155.462 358.102 157.482 362.196L165.757 378.942L167.388 382.238C169.479 386.917 170.631 392.127 170.631 397.602C170.631 420.179 151.013 438.184 127.87 435.455C110.609 433.435 96.6627 419.524 94.6424 402.299C93.6501 393.987 95.3159 386.137 98.931 379.491C99.6576 378.18 100.402 376.886 101.075 375.522L107.632 362.213C109.652 358.12 110.68 353.831 110.645 349.578H1.51774V240.451C5.7531 240.451 10.0416 241.461 14.1175 243.464L27.4261 250.021C28.7729 250.694 30.0842 251.438 31.4133 252.165C38.0588 255.762 45.8915 257.428 54.2205 256.471C71.4632 254.415 85.3566 240.469 87.3768 223.226C90.1059 200.082 72.1012 180.465 49.5067 180.465C44.0308 180.465 38.8209 181.617 34.1425 183.708L30.8462 185.338L14.0998 193.614C10.024 195.617 5.73536 196.627 1.5 196.627V87.606H110.627C110.627 83.353 109.635 79.1176 107.614 75.0417L101.022 61.6446C100.349 60.2977 99.6044 58.9864 98.8778 57.6573C95.4576 51.2777 93.8095 43.8525 94.5361 35.9843C96.1665 18.2808 110.308 3.78493 127.976 1.76472C151.067 -0.911177 170.649 17.0758 170.649 39.6348C170.649 45.1107 169.497 50.3207 167.406 55.0169L165.846 58.1535L157.517 75.0417C155.497 79.1176 154.505 83.353 154.505 87.606H263.525V196.627C267.778 196.627 272.014 195.617 276.125 193.614L292.871 185.338L296.168 183.708C300.846 181.617 306.056 180.465 311.532 180.465C334.126 180.465 352.131 200.082 349.402 223.226L349.349 223.208Z" fill="#FCFCFC" stroke="#5376C1" stroke-width="3" stroke-miterlimit="10"/>
</svg>
