<svg width="266" height="352" viewBox="0 0 266 352" fill="none" xmlns="http://www.w3.org/2000/svg">
<path d="M177.63 223.134C179.651 240.82 194.147 254.962 211.868 256.592C219.701 257.318 227.161 255.67 233.523 252.25C234.852 251.524 236.164 250.762 237.528 250.106L250.908 243.478C254.984 241.476 259.237 240.466 263.507 240.466V349.61H1.51774V240.466C5.77082 240.466 10.0062 241.476 14.1175 243.478L27.4261 250.053C28.7729 250.726 30.0842 251.471 31.4133 252.197C38.0588 255.795 45.8915 257.46 54.185 256.486C71.4454 254.465 85.3388 240.483 87.3767 223.258C90.1058 200.115 72.1011 180.48 49.5066 180.48C44.0307 180.48 38.8206 181.631 34.1422 183.723L30.8461 185.353L14.0997 193.629C10.0061 195.631 5.7708 196.641 1.5 196.641V87.6383H110.627C110.627 83.3852 109.617 79.1145 107.614 75.0386L101.022 61.6591C100.348 60.3123 99.5866 58.9832 98.8777 57.6541C95.4221 51.2922 93.7918 43.8671 94.5361 35.9989C96.1665 18.2955 110.308 3.78183 127.976 1.76162C151.067 -0.896559 170.648 17.0727 170.648 39.6317C170.648 45.1076 169.497 50.3176 167.406 55.0137L165.846 58.1504L157.517 75.0386C155.514 79.1145 154.504 83.3675 154.504 87.6383H263.525V196.641C259.272 196.641 255.001 195.631 250.925 193.629L234.037 185.3L230.9 183.74C226.187 181.649 220.994 180.497 215.518 180.497C192.959 180.497 174.99 200.097 177.648 223.17L177.63 223.134Z" fill="#FCFCFC" stroke="#5376C1" stroke-width="3" stroke-miterlimit="10"/>
</svg>
