<svg width="438" height="266" viewBox="0 0 438 266" fill="none" xmlns="http://www.w3.org/2000/svg">
<path d="M435.523 137.191C433.503 154.451 419.592 168.398 402.367 170.436C394.055 171.411 386.205 169.745 379.559 166.13C378.23 165.403 376.919 164.659 375.572 163.985L362.264 157.429C358.188 155.426 353.899 154.416 349.664 154.416V263.543H240.643C240.643 259.308 241.653 255.054 243.656 250.996L251.985 234.108L253.544 230.971C255.635 226.258 256.787 221.065 256.787 215.589C256.787 193.013 237.205 175.043 214.115 177.702C196.447 179.757 182.305 194.235 180.675 211.939C179.948 219.807 181.596 227.232 185.017 233.594C185.743 234.923 186.487 236.252 187.161 237.599L193.753 250.996C195.756 255.054 196.766 259.308 196.766 263.543H87.6387V154.416C83.3856 154.416 79.1148 155.426 75.0389 157.429L61.6595 164.021C60.3127 164.694 58.9836 165.456 57.6545 166.165C51.2926 169.621 43.8674 171.233 35.9992 170.507C18.2957 168.876 3.78207 154.735 1.76186 137.067C-0.896317 113.976 17.073 94.3943 39.6321 94.3943C45.1079 94.3943 50.3179 95.5462 55.014 97.6373L58.1506 99.1968L75.0389 107.526C79.1148 109.528 83.3679 110.538 87.6387 110.538V1.51768H196.766C196.766 5.77076 195.773 10.0416 193.753 14.1352L187.196 27.4438C186.523 28.7906 185.779 30.1019 185.052 31.431C181.455 38.0587 179.789 45.9092 180.763 54.2027C182.784 71.4632 196.766 85.3566 213.991 87.3945C237.134 90.1236 256.752 72.1188 256.752 49.5243C256.752 44.0485 255.6 38.8385 253.509 34.1601L251.878 30.8639L243.603 14.1175C241.582 10.0239 240.59 5.75308 240.59 1.5H349.611V110.521C353.846 110.521 358.135 109.51 362.21 107.508L378.957 99.2322L382.253 97.6019C386.931 95.5108 392.141 94.3589 397.617 94.3589C420.212 94.3589 438.216 113.976 435.487 137.12L435.523 137.191Z" fill="#FCFCFC" stroke="#5376C1" stroke-width="3" stroke-miterlimit="10"/>
</svg>
