<svg width="266" height="438" viewBox="0 0 266 438" fill="none" xmlns="http://www.w3.org/2000/svg">
<path d="M177.613 223.084C179.633 240.752 194.147 254.894 211.85 256.524C219.718 257.251 227.144 255.62 233.506 252.183C234.835 251.491 236.164 250.712 237.511 250.038L250.89 243.446C254.966 241.443 259.219 240.433 263.49 240.433V349.56H154.469C154.451 353.813 155.462 358.102 157.482 362.195L165.757 378.942L167.388 382.238C169.479 386.917 170.631 392.127 170.631 397.602C170.631 420.179 151.013 438.184 127.87 435.455C110.627 433.435 96.6627 419.523 94.6424 402.299C93.6501 393.987 95.3159 386.137 98.931 379.491C99.6576 378.18 100.402 376.886 101.075 375.522L107.632 362.213C109.652 358.12 110.68 353.831 110.645 349.578H1.51774V240.451C5.77082 240.451 10.0416 241.443 14.1352 243.464L27.4261 250.021C28.7729 250.694 30.0842 251.438 31.4133 252.165C38.0588 255.762 45.8915 257.428 54.2205 256.471C71.4632 254.415 85.3566 240.469 87.3768 223.226C90.1059 200.082 72.1011 180.465 49.5244 180.465C44.0485 180.465 38.8385 181.617 34.1601 183.708L30.864 185.338L14.1175 193.614C10.0239 195.634 5.75308 196.627 1.5 196.627V87.606H110.627C110.627 83.3529 109.617 79.1176 107.614 75.0417L101.022 61.6445C100.349 60.2977 99.6044 58.9863 98.8778 57.6572C95.4576 51.2776 93.8095 43.8525 94.5361 35.9843C96.1665 18.2808 110.308 3.78493 127.976 1.76472C151.067 -0.911177 170.649 17.0758 170.649 39.6348C170.649 45.1107 169.497 50.3207 167.406 55.0168L165.846 58.1534L157.517 75.0417C155.515 79.1176 154.505 83.3529 154.505 87.606H263.525V196.627C259.272 196.627 255.001 195.617 250.925 193.614L234.037 185.285L230.901 183.726C226.187 181.635 220.994 180.483 215.519 180.483C192.96 180.483 174.99 200.065 177.648 223.155L177.613 223.084Z" fill="#FCFCFC" stroke="#5376C1" stroke-width="3" stroke-miterlimit="10"/>
</svg>
