<svg width="438" height="352" viewBox="0 0 438 352" fill="none" xmlns="http://www.w3.org/2000/svg">
<path d="M397.617 94.3766C392.141 94.3766 386.932 95.5108 382.253 97.6196L378.957 99.2322L362.228 107.508C358.117 109.528 353.864 110.521 349.611 110.521V1.5H87.6388V110.521C83.3857 110.521 79.1149 109.528 75.039 107.508L58.1507 99.1613L55.014 97.6196C50.3002 95.5108 45.108 94.3766 39.6322 94.3766C17.0732 94.3766 -0.896318 113.941 1.76186 137.031C3.78207 154.699 18.2604 168.859 35.9993 170.471C43.832 171.216 51.2926 169.568 57.6545 166.147C58.9836 165.421 60.2772 164.659 61.6595 163.985L75.039 157.375C79.1149 155.355 83.3857 154.363 87.6388 154.363V263.49H196.766C196.766 267.761 195.773 272.014 193.753 276.107L187.161 289.434C186.523 290.78 185.743 292.092 185.034 293.421C183.758 295.76 182.713 298.276 181.969 300.899C181.756 301.643 181.561 302.405 181.384 303.167C181.384 303.167 181.366 303.167 181.384 303.185C181.224 303.947 181.065 304.709 180.941 305.489C180.409 308.927 180.32 312.506 180.746 316.175C181.773 324.823 185.761 332.602 191.68 338.486C197.581 344.369 205.378 348.339 214.008 349.366C219.608 350.022 225.013 349.473 229.975 347.913C230.578 347.754 231.162 347.541 231.747 347.311C232.899 346.885 234.033 346.407 235.15 345.893C236.833 345.096 238.428 344.156 239.952 343.129C240.962 342.438 241.937 341.711 242.876 340.949C243.355 340.559 243.815 340.151 244.276 339.726C244.719 339.319 245.162 338.893 245.588 338.468C252.499 331.574 256.769 322.04 256.769 311.496C256.769 307.403 256.114 303.433 254.909 299.729C254.501 298.507 254.04 297.302 253.509 296.132L251.896 292.854L243.621 276.107C242.859 274.565 242.256 273.006 241.777 271.447C240.998 268.824 240.608 266.166 240.608 263.49H349.611V154.363C353.864 154.363 358.117 155.355 362.228 157.375L375.537 163.968C376.884 164.623 378.195 165.385 379.524 166.076C386.152 169.709 394.002 171.357 402.296 170.383C419.556 168.327 433.449 154.381 435.487 137.138C438.216 114.012 420.212 94.3766 397.617 94.3766Z" fill="#FCFCFC" stroke="#5376C1" stroke-width="3" stroke-miterlimit="10"/>
<path d="M251.896 292.836L243.62 276.107C242.858 274.566 242.256 273.006 241.777 271.447C242.256 273.006 242.876 274.566 243.638 276.09L251.896 292.836Z" fill="#FCFCFC" stroke="#5376C1" stroke-width="3" stroke-miterlimit="10"/>
<path d="M253.526 296.132C254.058 297.302 254.519 298.507 254.909 299.729C254.501 298.507 254.04 297.302 253.509 296.132L251.896 292.854L253.526 296.132Z" fill="#FCFCFC" stroke="#5376C1" stroke-width="3" stroke-miterlimit="10"/>
</svg>
