<svg width="266" height="352" viewBox="0 0 266 352" fill="none" xmlns="http://www.w3.org/2000/svg">
<path d="M177.666 223.102C179.686 240.77 194.182 254.912 211.903 256.542C219.772 257.268 227.197 255.638 233.559 252.2C234.888 251.509 236.199 250.729 237.564 250.056L250.943 243.464C255.019 241.461 259.272 240.451 263.543 240.451V349.578H154.522C154.522 345.343 155.532 341.09 157.535 337.031L165.864 320.143L167.423 317.007C169.514 312.293 170.666 307.1 170.666 301.625C170.666 279.048 151.084 261.079 127.994 263.737C110.326 265.792 96.1842 280.271 94.5539 297.974C93.8273 305.842 95.4577 313.267 98.8956 319.629C99.6221 320.958 100.366 322.287 101.04 323.634L107.632 337.031C109.635 341.09 110.645 345.343 110.645 349.578H1.51774V240.451C5.77082 240.451 10.0062 241.461 14.1175 243.464L27.4261 250.021C28.7729 250.694 30.0842 251.438 31.4133 252.165C38.0588 255.762 45.8915 257.428 54.2205 256.471C71.4632 254.415 85.3566 240.469 87.3768 223.226C90.1059 200.082 72.1012 180.465 49.5067 180.465C44.0308 180.465 38.8209 181.617 34.1425 183.708L30.8462 185.338L14.0998 193.614C10.0062 195.617 5.7708 196.627 1.5 196.627V87.606H110.627C110.627 83.353 109.617 79.1176 107.614 75.0417L101.022 61.6446C100.349 60.2977 99.6044 58.9864 98.8778 57.6573C95.4222 51.2777 93.8096 43.8525 94.5361 35.9843C96.1665 18.2808 110.308 3.78493 127.976 1.76472C151.067 -0.911177 170.649 17.0758 170.649 39.6348C170.649 45.1107 169.497 50.3207 167.406 55.0168L165.846 58.1535L157.517 75.0417C155.515 79.1176 154.504 83.353 154.504 87.606H263.525V196.627C259.272 196.627 255.001 195.617 250.925 193.614L234.037 185.285L230.901 183.726C226.187 181.635 220.994 180.483 215.519 180.483C192.96 180.483 174.99 200.065 177.648 223.155L177.666 223.102Z" fill="#FCFCFC" stroke="#5376C1" stroke-width="3" stroke-miterlimit="10"/>
</svg>
