<svg width="438" height="352" viewBox="0 0 438 352" fill="none" xmlns="http://www.w3.org/2000/svg">
<path d="M435.47 137.173C433.449 154.416 419.538 168.345 402.313 170.4C394.002 171.375 386.152 169.727 379.506 166.112C378.177 165.385 376.866 164.623 375.519 163.968L362.21 157.393C358.117 155.373 353.881 154.38 349.611 154.38V263.525H240.59C240.59 267.778 241.582 272.049 243.603 276.143L251.878 292.889L253.509 296.185C255.6 300.864 256.752 306.074 256.752 311.549C256.752 334.126 237.134 352.149 213.99 349.42C196.73 347.399 182.783 333.488 180.763 316.228C179.771 307.934 181.437 300.066 185.052 293.456C185.778 292.127 186.523 290.816 187.196 289.469L193.753 276.16C195.773 272.067 196.766 267.796 196.766 263.543H87.6386V154.398C83.3855 154.398 79.1147 155.391 75.0388 157.411L61.6594 164.003C60.2771 164.676 58.9835 165.439 57.6544 166.165C51.2925 169.585 43.8673 171.233 35.9991 170.507C18.2956 168.859 3.78207 154.735 1.76186 137.049C-0.896316 113.959 17.0729 94.3766 39.632 94.3766C45.1078 94.3766 50.3178 95.5285 55.0139 97.6196L58.1505 99.179L75.0388 107.508C79.1147 109.528 83.3678 110.521 87.6386 110.521V1.51774H196.766C196.766 5.7531 195.773 10.0416 193.753 14.1175L187.196 27.4261C186.523 28.7729 185.778 30.0842 185.052 31.4133C181.454 38.0588 179.789 45.8915 180.763 54.185C182.783 71.4455 196.73 85.3388 213.99 87.3767C237.134 90.1058 256.752 72.1011 256.752 49.5066C256.752 44.0308 255.6 38.8208 253.509 34.1424L251.878 30.8462L243.603 14.0998C241.582 10.0239 240.59 5.73536 240.59 1.5H349.611V110.503C353.864 110.503 358.099 109.511 362.21 107.49L378.957 99.2145L382.253 97.5842C386.931 95.4931 392.141 94.3412 397.617 94.3412C420.212 94.3412 438.216 113.994 435.487 137.12L435.47 137.173Z" fill="#FCFCFC" stroke="#5376C1" stroke-width="3" stroke-miterlimit="10"/>
</svg>
