<svg width="352" height="352" viewBox="0 0 352 352" fill="none" xmlns="http://www.w3.org/2000/svg">
<path d="M349.578 263.525H254.717C254.717 267.778 255.709 272.014 257.729 276.125L266.005 292.871L267.635 296.168C269.727 300.846 270.879 306.056 270.879 311.532C270.879 334.126 251.226 352.131 228.1 349.402C210.857 347.382 196.893 333.471 194.872 316.21C193.88 307.917 195.546 300.084 199.161 293.438C199.887 292.109 200.632 290.798 201.305 289.451L207.88 276.143C209.9 272.049 210.892 267.814 210.892 263.543H87.6062V154.416C83.3531 154.416 79.1178 155.426 75.0419 157.429L61.6446 164.021C60.2978 164.694 58.9864 165.456 57.6573 166.165C51.2777 169.621 43.8526 171.233 35.9844 170.507C18.2809 168.876 3.78515 154.735 1.76493 137.067C-0.910964 113.976 17.076 94.3944 39.6351 94.3944C45.1109 94.3944 50.3208 95.5462 55.0169 97.6373L58.1536 99.1968L75.0419 107.526C79.1178 109.528 83.3531 110.538 87.6062 110.538V1.51774H210.892C210.892 5.77082 209.9 9.98845 207.88 14.082L201.305 27.3907C200.632 28.7375 199.887 30.0488 199.161 31.3779C195.563 38.0233 193.898 45.8561 194.872 54.185C196.893 71.4277 210.875 85.3211 228.1 87.3413C251.243 90.0704 270.879 72.0657 270.879 49.4712C270.879 43.9954 269.727 38.7853 267.635 34.1069L266.005 30.8108L257.729 14.0643C255.709 9.97071 254.717 5.75308 254.717 1.5H349.578V263.49V263.525Z" fill="#FCFCFC" stroke="#5376C1" stroke-width="3" stroke-miterlimit="10"/>
</svg>
