<svg width="266" height="438" viewBox="0 0 266 438" fill="none" xmlns="http://www.w3.org/2000/svg">
<path d="M177.613 223.099C179.633 240.785 194.147 254.909 211.85 256.557C219.718 257.283 227.144 255.635 233.505 252.215C234.835 251.488 236.146 250.726 237.51 250.053L250.89 243.461C254.966 241.44 259.219 240.448 263.49 240.448V349.593H154.469C154.469 353.846 155.461 358.117 157.482 362.21L165.757 378.957L167.388 382.253C169.479 386.931 170.631 392.141 170.631 397.617C170.631 420.194 151.013 438.216 127.87 435.487C110.627 433.467 96.6627 419.556 94.6424 402.295C93.65 394.002 95.3158 386.134 98.9309 379.524C99.6575 378.195 100.402 376.883 101.075 375.536L107.632 362.228C109.652 358.134 110.645 353.864 110.645 349.61H1.51774V240.466C5.77082 240.466 10.0062 241.458 14.1175 243.478L27.4261 250.053C28.7729 250.709 30.0842 251.471 31.4133 252.197C38.0588 255.795 45.8915 257.443 54.2205 256.486C71.4632 254.43 85.3565 240.483 87.3767 223.258C90.1058 200.115 72.1011 180.48 49.5066 180.48C44.0307 180.48 38.8207 181.631 34.1424 183.723L30.8462 185.353L14.0997 193.629C10.0061 195.649 5.7708 196.641 1.5 196.641V87.6384H110.627C110.627 83.3853 109.617 79.1145 107.614 75.0386L101.022 61.6592C100.349 60.2769 99.6044 58.9833 98.8778 57.6542C95.4576 51.2923 93.8095 43.8671 94.5361 35.9989C96.1665 18.26 110.308 3.78183 127.976 1.76162C151.067 -0.896559 170.649 17.0727 170.649 39.6317C170.649 45.1076 169.497 50.3176 167.406 55.0138L165.846 58.1504L157.517 75.0386C155.515 79.1145 154.504 83.3676 154.504 87.6384H263.525V196.641C259.272 196.641 255.001 195.649 250.925 193.629L234.037 185.3L230.9 183.74C226.187 181.649 220.994 180.497 215.518 180.497C192.959 180.497 174.99 200.079 177.648 223.17L177.613 223.099Z" fill="#FCFCFC" stroke="#5376C1" stroke-width="3" stroke-miterlimit="10"/>
</svg>
