<svg width="352" height="266" viewBox="0 0 352 266" fill="none" xmlns="http://www.w3.org/2000/svg">
<path d="M349.614 1.55322V263.525H254.752C254.752 259.272 255.745 255.001 257.765 250.925L266.094 234.037L267.653 230.901C269.744 226.187 270.896 220.994 270.896 215.519C270.896 192.96 251.314 174.99 228.224 177.648C210.538 179.669 196.396 194.165 194.766 211.886C194.039 219.754 195.688 227.179 199.108 233.541C199.834 234.87 200.596 236.181 201.252 237.546L207.88 250.925C209.9 255.001 210.892 259.254 210.892 263.525H87.6061V154.398C83.3531 154.398 79.1178 155.408 75.0419 157.411L61.6446 164.003C60.2978 164.677 58.9864 165.439 57.6573 166.165C51.2777 169.585 43.8526 171.233 35.9844 170.507C18.2809 168.859 3.78515 154.717 1.76493 137.049C-0.910964 113.959 17.076 94.3767 39.6351 94.3767C45.1109 94.3767 50.3208 95.5286 55.0169 97.6197L58.1536 99.1791L75.0419 107.508C79.1178 109.511 83.3531 110.521 87.6061 110.521V1.51774H210.892C210.892 5.7531 209.9 9.98849 207.88 14.0644L201.305 27.373C200.632 28.7198 199.888 30.0311 199.161 31.3602C195.564 38.0057 193.898 45.8384 194.872 54.1674C196.893 71.41 210.875 85.3034 228.1 87.3236C251.243 90.0527 270.879 72.048 270.879 49.4535C270.879 43.9776 269.727 38.7676 267.636 34.0892L266.005 30.7931L257.729 14.0466C255.709 9.97075 254.717 5.73536 254.717 1.5H349.578L349.614 1.55322Z" fill="#FCFCFC" stroke="#5376C1" stroke-width="3" stroke-miterlimit="10"/>
</svg>
