<svg width="352" height="438" viewBox="0 0 352 438" fill="none" xmlns="http://www.w3.org/2000/svg">
<path d="M263.752 223.17C265.772 240.838 280.268 254.979 297.971 256.627C305.839 257.354 313.264 255.706 319.644 252.286C320.973 251.559 322.285 250.797 323.631 250.124L337.029 243.531C341.105 241.529 345.34 240.519 349.593 240.519V349.646H240.59C240.572 353.899 241.583 358.187 243.603 362.281L251.878 379.027L253.509 382.324C255.6 387.002 256.752 392.212 256.752 397.688C256.752 420.265 237.099 438.269 213.991 435.558C196.73 433.538 182.784 419.609 180.746 402.366C179.771 394.055 181.419 386.205 185.034 379.559C185.761 378.248 186.523 376.954 187.178 375.59L193.753 362.281C195.773 358.187 196.801 353.899 196.766 349.646H87.6388V240.519C83.3857 240.519 79.1149 241.529 75.039 243.531L61.6595 250.124C60.2772 250.797 58.9836 251.559 57.6545 252.286C51.2926 255.706 43.8497 257.354 35.9993 256.627C18.2604 254.979 3.78207 240.838 1.76186 223.17C-0.896318 200.079 17.0732 180.497 39.6322 180.497C45.108 180.497 50.3179 181.649 55.014 183.74L58.1507 185.3L75.039 193.629C79.1149 195.631 83.368 196.641 87.6388 196.641V87.6383H196.766C196.766 83.3852 195.773 79.1145 193.753 75.0386L187.161 61.6591C186.487 60.2769 185.725 58.9832 184.999 57.6541C181.579 51.2922 179.931 43.8493 180.657 35.9988C182.305 18.2599 196.447 3.78183 214.115 1.76162C237.205 -0.896559 256.787 17.0727 256.787 39.6317C256.787 45.1076 255.635 50.3176 253.544 55.0137L251.985 58.1503L243.656 75.0386C241.636 79.1145 240.643 83.3675 240.643 87.6383H349.646V196.641C345.393 196.641 341.158 195.631 337.082 193.629L320.194 185.3L317.057 183.74C312.343 181.649 307.151 180.497 301.675 180.497C279.116 180.497 261.129 200.079 263.805 223.17H263.752Z" fill="#FCFCFC" stroke="#5376C1" stroke-width="3" stroke-miterlimit="10"/>
</svg>
