<svg width="352" height="352" viewBox="0 0 352 352" fill="none" xmlns="http://www.w3.org/2000/svg">
<path d="M349.367 223.258C347.346 240.501 333.435 254.465 316.175 256.486C307.881 257.478 300.049 255.812 293.403 252.197C292.074 251.471 290.763 250.726 289.416 250.053L276.107 243.478C272.014 241.476 267.778 240.466 263.508 240.466V349.61H1.51774V240.466C5.7531 240.466 10.0416 241.476 14.1175 243.478L27.4261 250.053C28.7729 250.726 30.0842 251.471 31.4133 252.197C38.0588 255.795 45.8915 257.46 54.185 256.486C71.4454 254.465 85.339 240.483 87.3769 223.258C90.106 200.115 72.1013 180.48 49.5068 180.48C44.0309 180.48 38.8209 181.631 34.1425 183.723L30.8464 185.353L14.0997 193.629C10.0239 195.631 5.73536 196.641 1.5 196.641V87.6383H110.627C110.627 83.3852 109.635 79.1145 107.614 75.0386L101.004 61.6591C100.331 60.3123 99.569 58.9832 98.8602 57.6541C95.4046 51.2922 93.7918 43.8671 94.5184 35.9989C96.1487 18.2955 110.29 3.78183 127.958 1.76162C151.049 -0.896559 170.631 17.0727 170.631 39.6317C170.631 45.1076 169.479 50.3176 167.388 55.0137L165.828 58.1504L157.499 75.0386C155.479 79.1145 154.487 83.3675 154.487 87.6383H263.508V196.641C267.761 196.641 271.996 195.631 276.107 193.629L292.854 185.353L296.15 183.723C300.828 181.631 306.038 180.48 311.514 180.48C334.109 180.48 352.113 200.132 349.384 223.258H349.367Z" fill="#FCFCFC" stroke="#5376C1" stroke-width="3" stroke-miterlimit="10"/>
</svg>
