<svg width="352" height="352" viewBox="0 0 352 352" fill="none" xmlns="http://www.w3.org/2000/svg">
<path d="M349.367 223.258C347.346 240.501 333.435 254.465 316.21 256.486C307.899 257.478 300.048 255.812 293.403 252.197C292.074 251.471 290.763 250.726 289.416 250.053L276.107 243.478C272.014 241.476 267.778 240.466 263.507 240.466V349.61H1.51768V240.466C5.75304 240.466 10.0416 241.476 14.1175 243.478L27.426 250.053C28.7728 250.726 30.0842 251.471 31.4133 252.197C38.0587 255.795 45.8915 257.46 54.2204 256.486C71.4631 254.465 85.3565 240.483 87.3768 223.258C90.1058 200.115 72.1011 180.48 49.5066 180.48C44.0308 180.48 38.8208 181.631 34.1424 183.723L30.8462 185.353L14.0997 193.629C10.0239 195.631 5.73536 196.641 1.5 196.641V87.6383H110.627C110.627 83.3852 109.635 79.1145 107.614 75.0386L101.022 61.6591C100.349 60.3123 99.6043 58.9832 98.8778 57.6541C95.4576 51.2922 93.8095 43.8671 94.5361 35.9989C96.1664 18.2955 110.308 3.78183 127.976 1.76162C151.067 -0.896559 170.648 17.0727 170.648 39.6317C170.648 45.1076 169.497 50.3176 167.406 55.0137L165.846 58.1504L157.517 75.0386C155.497 79.1145 154.505 83.3675 154.505 87.6383H263.525V196.641C267.778 196.641 272.014 195.631 276.125 193.629L292.871 185.353L296.168 183.723C300.846 181.631 306.056 180.48 311.532 180.48C334.126 180.48 352.131 200.132 349.402 223.258H349.367Z" fill="#FCFCFC" stroke="#5376C1" stroke-width="3" stroke-miterlimit="10"/>
</svg>
