<svg width="352" height="266" viewBox="0 0 352 266" fill="none" xmlns="http://www.w3.org/2000/svg">
<path d="M263.787 137.049C265.807 154.717 280.303 168.859 298.024 170.489C305.857 171.233 313.318 169.585 319.68 166.165C321.009 165.438 322.32 164.676 323.685 164.003L337.064 157.411C341.14 155.391 345.393 154.398 349.664 154.398V263.525H240.643C240.643 259.272 241.653 255.037 243.656 250.961L251.985 234.073L253.544 230.936C255.635 226.222 256.787 221.03 256.787 215.554C256.787 192.995 237.205 175.008 214.115 177.684C196.447 179.704 182.305 194.2 180.675 211.903C179.931 219.772 181.579 227.197 185.016 233.576C185.708 234.905 186.487 236.217 187.161 237.564L193.753 250.961C195.756 255.037 196.766 259.272 196.766 263.525H87.6388V154.398C83.3857 154.398 79.1149 155.391 75.0391 157.411L61.6595 164.003C60.2772 164.676 58.9836 165.438 57.6545 166.165C51.2926 169.585 43.8498 171.233 35.9993 170.489C18.2604 168.859 3.78207 154.717 1.76186 137.049C-0.896315 113.959 17.0729 94.3766 39.632 94.3766C45.1078 94.3766 50.3179 95.5285 55.014 97.6196L58.1507 99.1791L75.0391 107.508C79.1149 109.528 83.368 110.521 87.6388 110.521V1.5H349.628V110.521C345.375 110.521 341.105 109.528 337.029 107.508L320.14 99.1791L317.004 97.6196C312.29 95.5285 307.098 94.3766 301.622 94.3766C279.063 94.3766 261.094 113.959 263.752 137.049H263.787Z" fill="#FCFCFC" stroke="#5376C1" stroke-width="3" stroke-miterlimit="10"/>
</svg>
