<svg width="265" height="352" viewBox="0 0 265 352" fill="none" xmlns="http://www.w3.org/2000/svg">
<path d="M263.507 87.6556V349.645H1.51774V240.501C5.77082 240.501 10.0416 241.493 14.1352 243.513L27.4438 250.088C28.7906 250.761 30.102 251.506 31.4311 252.232C38.0588 255.83 45.9092 257.495 54.2027 256.521C71.4631 254.5 85.3565 240.518 87.3944 223.293C90.1235 200.15 72.1188 180.515 49.5243 180.515C44.0485 180.515 38.8386 181.666 34.1602 183.758L30.8641 185.388L14.1175 193.664C10.0239 195.684 5.75308 196.676 1.5 196.676V87.6734H124.786C124.786 83.3848 123.794 79.1318 121.774 75.0559L115.146 61.6587C114.49 60.3119 113.728 59.0005 113.002 57.6714C109.581 51.2918 107.933 43.8667 108.66 35.9985C110.29 18.295 124.432 3.79911 142.117 1.76118C165.208 -0.896998 184.79 17.1077 184.79 39.649C184.79 45.1249 183.638 50.3349 181.547 55.031L179.988 58.1677L171.659 75.0559C169.638 79.1318 168.646 83.3848 168.646 87.6734H263.507V87.6556Z" fill="#FCFCFC" stroke="#5376C1" stroke-width="3" stroke-miterlimit="10"/>
</svg>
