<svg width="352" height="265" viewBox="0 0 352 265" fill="none" xmlns="http://www.w3.org/2000/svg">
<path d="M349.366 137.138C347.346 154.398 333.435 168.345 316.21 170.383C307.899 171.357 300.048 169.709 293.403 166.094C292.074 165.368 290.763 164.606 289.416 163.95L276.125 157.375C272.031 155.355 267.76 154.363 263.507 154.363V263.49H154.505C154.505 259.254 155.515 255.001 157.517 250.943L165.846 234.055L167.406 230.918C169.497 226.204 170.649 221.012 170.649 215.536C170.649 192.977 151.049 174.99 127.958 177.648C110.29 179.704 96.1488 194.182 94.5184 211.886C93.7918 219.754 95.4399 227.179 98.8601 233.541C99.5866 234.888 100.331 236.199 101.004 237.546L107.632 250.943C109.635 255.001 110.645 259.254 110.645 263.49H1.5V1.51774H110.645C110.645 5.77082 109.635 10.0062 107.632 14.1175L101.058 27.4261C100.384 28.7729 99.6398 30.0842 98.9133 31.4133C95.3159 38.0411 93.6501 45.8916 94.6247 54.1851C96.6449 71.4455 110.627 85.3389 127.852 87.3768C150.996 90.1059 170.631 72.1012 170.631 49.5067C170.631 44.0308 169.479 38.8207 167.388 34.1424L165.757 30.8462L157.482 14.0997C155.479 10.0061 154.469 5.7708 154.469 1.5H263.472V110.503C267.725 110.503 271.996 109.511 276.089 107.49L292.836 99.2145L296.132 97.5842C300.81 95.4931 306.021 94.3412 311.496 94.3412C334.073 94.3412 352.078 113.994 349.349 137.102L349.366 137.138Z" fill="#FCFCFC" stroke="#5376C1" stroke-width="3" stroke-miterlimit="10"/>
</svg>
