<svg width="352" height="265" viewBox="0 0 352 265" fill="none" xmlns="http://www.w3.org/2000/svg">
<path d="M263.752 137.049C265.772 154.699 280.268 168.859 297.971 170.471C305.822 171.198 313.265 169.568 319.644 166.13C320.973 165.421 322.285 164.659 323.631 163.985L337.029 157.393C341.105 155.373 345.34 154.363 349.611 154.363V263.49H240.608C240.608 259.254 241.6 255.001 243.621 250.943L251.967 234.055L253.509 230.918C255.618 226.204 256.769 221.012 256.769 215.536C256.769 192.959 237.188 174.972 214.097 177.631C196.429 179.686 182.287 194.182 180.639 211.886C179.913 219.736 181.561 227.179 184.981 233.541C185.708 234.87 186.47 236.199 187.143 237.546L193.753 250.943C195.773 255.001 196.766 259.254 196.766 263.49H87.6388V154.363C83.3857 154.363 79.1149 155.373 75.039 157.393L61.6595 163.985C60.2772 164.659 58.9836 165.421 57.6545 166.13C51.2926 169.568 43.832 171.198 35.9993 170.471C18.2604 168.859 3.78207 154.699 1.76186 137.049C-0.896318 113.941 17.0732 94.3766 39.6322 94.3766C45.108 94.3766 50.3002 95.5108 55.014 97.6196L58.1507 99.1613L75.039 107.508C79.1149 109.51 83.3857 110.521 87.6388 110.521V1.5H196.766C196.766 5.7708 195.773 10.0239 193.753 14.1175L187.161 27.4438C186.523 28.7906 185.743 30.1019 185.034 31.431C183.758 33.7702 182.713 36.2866 181.969 38.9094C181.738 39.6536 181.543 40.4157 181.384 41.1777C181.384 41.1777 181.366 41.1777 181.384 41.1954C181.207 41.9574 181.065 42.7194 180.941 43.4991C180.391 46.937 180.32 50.5167 180.746 54.185C181.773 62.8329 185.761 70.6125 191.68 76.4959C197.563 82.3794 205.378 86.3667 214.008 87.3945C219.608 88.0502 225.013 87.5008 229.975 85.9236C230.578 85.7641 231.162 85.5515 231.747 85.3211C232.899 84.9135 234.051 84.4351 235.15 83.9034C236.833 83.106 238.428 82.1668 239.952 81.1389C240.962 80.4478 241.937 79.7212 242.876 78.9592C243.355 78.5693 243.815 78.1618 244.276 77.7364C244.737 77.3288 245.18 76.9036 245.588 76.4782C252.499 69.5847 256.769 60.0507 256.769 49.5066C256.769 45.413 256.114 41.4435 254.909 37.7398C254.501 36.517 254.04 35.312 253.509 34.1424L251.896 30.8639L243.621 14.1175C242.858 12.5757 242.256 11.0162 241.777 9.45679C240.998 6.83405 240.608 4.1759 240.608 1.5H349.611V110.521C345.34 110.521 341.105 109.51 337.029 107.508L320.14 99.1613L317.004 97.6196C312.29 95.5108 307.098 94.3766 301.622 94.3766C279.063 94.3766 261.058 113.941 263.752 137.049Z" fill="#FCFCFC" stroke="#5376C1" stroke-width="3" stroke-miterlimit="10"/>
</svg>
