<svg width="352" height="352" viewBox="0 0 352 352" fill="none" xmlns="http://www.w3.org/2000/svg">
<path d="M349.384 223.241C347.364 240.501 333.453 254.448 316.193 256.486C307.899 257.46 300.066 255.812 293.421 252.197C292.092 251.471 290.78 250.709 289.434 250.053L276.125 243.478C272.031 241.476 267.796 240.466 263.525 240.466V349.593H154.505C154.505 345.357 155.497 341.104 157.517 337.046L165.846 320.158L167.406 317.021C169.497 312.307 170.649 307.115 170.649 301.639C170.649 279.08 151.067 261.093 127.976 263.751C110.308 265.807 96.1665 280.285 94.5361 297.989C93.8095 305.857 95.44 313.282 98.8779 319.644C99.5691 320.991 100.349 322.302 101.022 323.649L107.632 337.046C109.652 341.104 110.645 345.357 110.645 349.593H1.51774V240.466C5.7531 240.466 10.0416 241.476 14.1175 243.478L27.4261 250.053C28.7729 250.709 30.0842 251.471 31.4133 252.197C38.0588 255.795 45.8917 257.443 54.1852 256.486C71.4456 254.43 85.339 240.484 87.3769 223.241C90.106 200.132 72.1013 180.48 49.5068 180.48C44.0309 180.48 38.8209 181.631 34.1425 183.723L30.8464 185.353L14.0999 193.629C10.0241 195.631 5.73536 196.641 1.5 196.641V87.6384H110.627C110.627 83.3853 109.635 79.1146 107.614 75.0387L101.004 61.6591C100.331 60.2769 99.569 58.9833 98.8602 57.6542C95.4046 51.2923 93.7918 43.8494 94.5184 35.9989C96.1487 18.26 110.29 3.78183 127.958 1.76162C151.049 -0.896559 170.631 17.0727 170.631 39.6317C170.631 45.1076 169.479 50.3176 167.388 55.0137L165.829 58.1504L157.499 75.0387C155.479 79.1146 154.487 83.3676 154.487 87.6384H263.508V196.641C267.761 196.641 271.996 195.631 276.107 193.629L292.854 185.353L296.15 183.723C300.828 181.631 306.038 180.48 311.514 180.48C334.109 180.48 352.113 200.132 349.384 223.241Z" fill="#FCFCFC" stroke="#5376C1" stroke-width="3" stroke-miterlimit="10"/>
</svg>
