<svg width="266" height="265" viewBox="0 0 266 265" fill="none" xmlns="http://www.w3.org/2000/svg">
<path d="M177.648 136.996C179.669 154.664 194.165 168.806 211.886 170.436C219.719 171.18 227.179 169.532 233.541 166.112C234.87 165.385 236.182 164.623 237.546 163.95L250.925 157.358C255.001 155.337 259.255 154.345 263.525 154.345V263.472H154.505C154.505 259.219 155.497 254.984 157.517 250.908L165.846 234.019L167.406 230.883C169.497 226.169 170.649 220.977 170.649 215.501C170.649 192.942 151.067 174.955 127.976 177.631C110.308 179.651 96.1665 194.147 94.5361 211.85C93.8096 219.718 95.44 227.144 98.8779 233.523C99.5691 234.852 100.349 236.164 101.022 237.51L107.632 250.908C109.652 254.984 110.645 259.219 110.645 263.472H1.51774V154.345C5.7531 154.345 10.0416 155.337 14.1175 157.358L27.4261 163.932C28.7729 164.588 30.0842 165.35 31.4133 166.059C38.0588 169.692 45.8917 171.322 54.1852 170.365C71.4456 168.309 85.339 154.363 87.3769 137.12C90.106 114.012 72.1013 94.3589 49.5068 94.3589C44.031 94.3589 38.8209 95.5108 34.1425 97.6019L30.8464 99.2322L14.0999 107.508C10.0241 109.528 5.73536 110.521 1.5 110.521V1.5H263.49V110.521C259.237 110.521 254.966 109.528 250.89 107.508L234.002 99.1791L230.865 97.6196C226.151 95.5285 220.959 94.3766 215.483 94.3766C192.924 94.3766 174.955 113.959 177.613 137.049L177.648 136.996Z" fill="#FCFCFC" stroke="#5376C1" stroke-width="3" stroke-miterlimit="10"/>
</svg>
