<svg width="265" height="352" viewBox="0 0 265 352" fill="none" xmlns="http://www.w3.org/2000/svg">
<path d="M177.613 136.978C179.633 154.646 194.147 168.788 211.85 170.418C219.718 171.162 227.144 169.514 233.505 166.094C234.835 165.368 236.146 164.606 237.51 163.932L250.89 157.34C254.966 155.32 259.219 154.327 263.49 154.327V263.454H154.469C154.469 267.707 155.461 271.978 157.482 276.072L165.757 292.818L167.388 296.114C169.479 300.793 170.631 306.003 170.631 311.479C170.631 334.073 151.013 352.078 127.87 349.349C110.627 347.329 96.6627 333.417 94.6424 316.157C93.6501 307.863 95.3158 299.995 98.9309 293.385C99.6575 292.056 100.402 290.745 101.075 289.398L107.632 276.089C109.652 271.996 110.645 267.725 110.645 263.472H1.51774V154.345C5.77082 154.345 10.0062 155.337 14.1175 157.358L27.4261 163.932C28.7729 164.588 30.0842 165.35 31.4133 166.059C38.0588 169.692 45.8915 171.322 54.2205 170.365C71.4632 168.309 85.3565 154.363 87.3767 137.12C90.1058 114.012 72.1011 94.3589 49.5066 94.3589C44.0307 94.3589 38.8207 95.5108 34.1424 97.6019L30.8462 99.2322L14.0997 107.508C10.0061 109.528 5.7708 110.521 1.5 110.521V1.5H263.49V110.521C259.237 110.521 254.966 109.528 250.89 107.508L234.002 99.1791L230.865 97.6196C226.151 95.5285 220.959 94.3766 215.483 94.3766C192.924 94.3766 174.955 113.958 177.613 137.049V136.978Z" fill="#FCFCFC" stroke="#5376C1" stroke-width="3" stroke-miterlimit="10"/>
</svg>
