<svg width="2620" height="1310" viewBox="0 0 2620 1310" fill="none" xmlns="http://www.w3.org/2000/svg">
<g id="puzzle 1" clip-path="url(#clip0_23_6)">
<g id="Row 1">
<g id="1" class="piece" clip-path="url(#clip1_23_6)">
<path id="Vector" d="M347.831 135.62C345.811 152.88 331.9 166.827 314.675 168.865C306.364 169.84 298.513 168.192 291.868 164.559C290.539 163.868 289.227 163.088 287.88 162.432L274.589 155.858C270.496 153.837 266.225 152.845 261.972 152.845V261.972H152.969C152.969 266.225 153.961 270.496 155.982 274.589L164.257 291.336L165.888 294.632C167.979 299.31 169.131 304.521 169.131 309.996C169.131 332.591 149.478 350.596 126.352 347.866C109.109 345.846 95.1449 331.935 93.1247 314.675C92.1323 306.381 93.7981 298.513 97.4132 291.903C98.1398 290.574 98.8841 289.263 99.5575 287.916L106.132 274.607C108.152 270.514 109.145 266.243 109.145 261.99H0V0H261.99V109.021C266.243 109.021 270.514 108.028 274.607 106.008L291.354 97.7322L294.65 96.1019C299.328 94.0108 304.538 92.8589 310.014 92.8589C332.591 92.8589 350.596 112.512 347.866 135.62H347.831Z" fill="#FCFCFC" stroke="#5376C1" stroke-width="3" stroke-miterlimit="10"/>
</g>
<g id="2" class="piece">
<path id="Vector_2" d="M609.902 135.62C607.882 152.881 593.971 166.827 576.746 168.865C568.434 169.84 560.584 168.192 553.939 164.559C552.609 163.868 551.298 163.088 549.951 162.432L536.643 155.858C532.567 153.837 528.278 152.845 524.043 152.845V261.972H415.022C415.022 257.719 416.033 253.484 418.035 249.408L426.364 232.519L427.923 229.383C430.014 224.669 431.166 219.477 431.166 214.001C431.166 191.442 411.584 173.455 388.494 176.131C370.826 178.151 356.684 192.647 355.054 210.35C354.327 218.218 355.976 225.644 359.396 232.023C360.122 233.352 360.867 234.664 361.54 236.011L368.132 249.408C370.135 253.484 371.145 257.719 371.145 261.972H262.018V152.845C266.271 152.845 270.542 153.837 274.635 155.858L287.926 162.432C289.273 163.088 290.584 163.85 291.913 164.559C298.559 168.192 306.392 169.822 314.721 168.865C331.963 166.809 345.857 152.863 347.877 135.62C350.606 112.512 332.601 92.859 310.024 92.859C304.549 92.859 299.339 94.0108 294.66 96.1019L291.364 97.7323L274.618 106.008C270.524 108.028 266.253 109.021 262 109.021V6.10352e-05H523.99V109.021C528.225 109.021 532.514 108.028 536.59 106.008L553.336 97.7323L556.632 96.1019C561.311 94.0108 566.521 92.859 571.996 92.859C594.591 92.859 612.596 112.512 609.867 135.62H609.902Z" fill="#FCFCFC" stroke="#5376C1" stroke-width="3" stroke-miterlimit="10"/>
</g>
<g id="3" class="piece">
<g id="3_2">
<path id="Vector_3" d="M872.203 135.544C870.183 152.804 856.272 166.751 839.047 168.788C830.736 169.763 822.885 168.115 816.24 164.482C814.911 163.791 813.599 163.011 812.253 162.356L798.944 155.781C794.85 153.761 790.615 152.769 786.344 152.769V261.896H677.324C677.324 266.149 678.316 270.419 680.336 274.513L688.612 291.259L690.242 294.556C692.333 299.234 693.485 304.444 693.485 309.92C693.485 332.514 673.868 350.519 650.724 347.79C633.481 345.77 619.517 331.859 617.497 314.598C616.504 306.305 618.17 298.437 621.785 291.827C622.512 290.497 623.256 289.186 623.93 287.839L630.487 274.531C632.507 270.437 633.499 266.166 633.499 261.913H524.372V152.786C528.608 152.786 532.896 153.779 536.972 155.799L550.281 162.373C551.627 163.029 552.939 163.791 554.268 164.5C560.913 168.133 568.746 169.763 577.075 168.806C594.318 166.751 608.211 152.804 610.231 135.561C612.96 112.453 594.956 92.8001 572.361 92.8001C566.885 92.8001 561.675 93.952 556.997 96.0431L553.701 97.6734L536.954 105.949C532.878 107.969 528.59 108.962 524.354 108.962V-0.0587769H786.344V108.962C790.597 108.962 794.833 107.969 798.944 105.949L815.69 97.6734L818.987 96.0431C823.665 93.952 828.875 92.8001 834.351 92.8001C856.945 92.8001 874.95 112.453 872.221 135.561L872.203 135.544Z" fill="#FCFCFC" stroke="#5376C1" stroke-width="3" stroke-miterlimit="10"/>
</g>
</g>
<g id="4" class="piece">
<g id="4_2">
<path id="Vector_4" d="M962.457 135.455C964.477 153.123 978.991 167.264 996.694 168.895C1004.56 169.639 1011.99 167.991 1018.35 164.571C1019.68 163.844 1020.99 163.082 1022.35 162.409L1035.73 155.816C1039.81 153.796 1044.06 152.804 1048.33 152.804V261.931H939.313C939.313 266.184 940.306 270.455 942.326 274.548L950.602 291.295L952.232 294.591C954.323 299.269 955.475 304.479 955.475 309.955C955.475 332.55 935.858 350.554 912.714 347.825C895.471 345.805 881.507 331.894 879.487 314.634C878.494 306.34 880.16 298.472 883.775 291.862C884.502 290.533 885.246 289.221 885.919 287.875L892.476 274.566C894.497 270.472 895.489 266.202 895.489 261.949H786.362V152.822C790.615 152.822 794.85 153.814 798.962 155.834L812.27 162.409C813.617 163.064 814.928 163.826 816.258 164.535C822.903 168.168 830.736 169.798 839.065 168.842C856.307 166.786 870.201 152.839 872.221 135.597C874.95 112.488 856.945 92.8355 834.351 92.8355C828.875 92.8355 823.665 93.9873 818.987 96.0784L815.69 97.7088L798.944 105.985C794.85 108.005 790.615 108.997 786.344 108.997V-0.0234375H1048.33V108.997C1044.08 108.997 1039.81 108.005 1035.73 105.985L1018.85 97.6556L1015.71 96.0961C1011 94.005 1005.8 92.8532 1000.33 92.8532C977.768 92.8532 959.799 112.435 962.457 135.526V135.455Z" fill="#FCFCFC" stroke="#5376C1" stroke-width="3" stroke-miterlimit="10"/>
</g>
</g>
<g id="5" class="piece">
<g id="5_2">
<path id="Vector_5" d="M1396.18 135.544C1394.16 152.804 1380.25 166.751 1363.03 168.789C1354.72 169.763 1346.86 168.115 1340.22 164.482C1338.89 163.791 1337.58 163.011 1336.23 162.356L1322.92 155.781C1318.83 153.761 1314.59 152.769 1310.32 152.769V261.896H1201.3C1201.3 257.642 1202.3 253.407 1204.32 249.331L1212.64 232.443L1214.2 229.306C1216.3 224.592 1217.45 219.4 1217.45 213.924C1217.45 191.365 1197.87 173.378 1174.77 176.054C1157.11 178.074 1142.97 192.57 1141.33 210.274C1140.61 218.142 1142.26 225.567 1145.68 231.947C1146.4 233.276 1147.15 234.587 1147.82 235.934L1154.41 249.331C1156.43 253.407 1157.43 257.642 1157.43 261.896H1048.3V152.769C1044.05 152.769 1039.77 153.761 1035.7 155.781L1022.32 162.373C1020.94 163.047 1019.64 163.809 1018.31 164.535C1011.95 167.956 1004.53 169.604 996.659 168.859C978.956 167.229 964.442 153.088 962.422 135.42C959.764 112.329 977.733 92.747 1000.29 92.747C1005.77 92.747 1010.98 93.8989 1015.67 95.99L1018.81 97.5494L1035.7 105.878C1039.77 107.899 1044.03 108.891 1048.3 108.891V-0.129639H1310.29V108.891C1314.54 108.891 1318.78 107.899 1322.89 105.878L1339.63 97.6026L1342.93 95.9723C1347.61 93.8812 1352.82 92.7293 1358.3 92.7293C1380.89 92.7293 1398.89 112.382 1396.17 135.49L1396.18 135.544Z" fill="#FCFCFC" stroke="#5376C1" stroke-width="3" stroke-miterlimit="10"/>
</g>
</g>
<g id="6" class="piece">
<g id="6_2">
<path id="Vector_6" d="M1658.17 135.544C1656.15 152.804 1642.24 166.751 1624.98 168.788C1616.69 169.763 1608.85 168.115 1602.21 164.482C1600.88 163.791 1599.57 163.011 1598.22 162.356L1584.91 155.781C1580.84 153.761 1576.55 152.769 1572.31 152.769V261.896H1463.29C1463.29 257.642 1464.3 253.407 1466.31 249.331L1474.63 232.443L1476.19 229.306C1478.29 224.592 1479.44 219.4 1479.44 213.924C1479.44 191.365 1459.86 173.378 1436.76 176.054C1419.1 178.074 1404.96 192.57 1403.32 210.274C1402.6 218.142 1404.23 225.567 1407.67 231.947C1408.39 233.276 1409.14 234.587 1409.81 235.934L1416.4 249.331C1418.41 253.407 1419.42 257.642 1419.42 261.896H1310.29V152.769C1314.54 152.769 1318.78 153.761 1322.89 155.781L1336.2 162.356C1337.54 163.011 1338.86 163.773 1340.18 164.482C1346.83 168.115 1354.66 169.745 1362.99 168.788C1380.23 166.733 1394.13 152.786 1396.15 135.544C1398.88 112.435 1380.87 92.7824 1358.28 92.7824C1352.8 92.7824 1347.59 93.9343 1342.91 96.0254L1339.62 97.6557L1322.87 105.932C1318.78 107.952 1314.54 108.944 1310.27 108.944V-0.0764771H1572.26V108.944C1576.5 108.944 1580.78 107.952 1584.86 105.932L1601.61 97.6557L1604.9 96.0254C1609.58 93.9343 1614.79 92.7824 1620.27 92.7824C1642.86 92.7824 1660.87 112.435 1658.14 135.544H1658.17Z" fill="#FCFCFC" stroke="#5376C1" stroke-width="3" stroke-miterlimit="10"/>
</g>
</g>
<g id="7" class="piece">
<g id="7_2">
<path id="Vector_7" d="M1748.43 135.455C1750.45 153.123 1764.94 167.265 1782.66 168.895C1790.5 169.639 1797.96 167.991 1804.32 164.571C1805.65 163.844 1806.96 163.082 1808.32 162.409L1821.7 155.817C1825.78 153.796 1830.03 152.804 1834.3 152.804V261.931H1725.28C1725.28 257.678 1726.27 253.443 1728.29 249.367L1736.62 232.478L1738.18 229.342C1740.27 224.628 1741.43 219.436 1741.43 213.96C1741.43 191.401 1721.84 173.414 1698.75 176.09C1681.09 178.11 1666.94 192.606 1665.31 210.309C1664.59 218.177 1666.22 225.603 1669.66 231.982C1670.35 233.311 1671.13 234.623 1671.8 235.969L1678.41 249.367C1680.43 253.443 1681.42 257.678 1681.42 261.931H1572.3V152.804C1576.53 152.804 1580.82 153.796 1584.9 155.817L1598.2 162.391C1599.55 163.047 1600.86 163.809 1602.19 164.518C1608.84 168.151 1616.67 169.781 1624.96 168.824C1642.22 166.768 1656.12 152.822 1658.15 135.579C1660.88 112.471 1642.88 92.8179 1620.28 92.8179C1614.81 92.8179 1609.6 93.9698 1604.92 96.0609L1601.62 97.6912L1584.88 105.967C1580.8 107.987 1576.51 108.98 1572.28 108.98V-0.0410156H1834.27V108.98C1830.01 108.98 1825.74 107.987 1821.67 105.967L1804.78 97.6381L1801.64 96.0786C1796.93 93.9875 1791.74 92.8356 1786.26 92.8356C1763.7 92.8356 1745.73 112.418 1748.39 135.508L1748.43 135.455Z" fill="#FCFCFC" stroke="#5376C1" stroke-width="3" stroke-miterlimit="10"/>
</g>
</g>
<g id="8" class="piece">
<g id="8_2">
<path id="Vector_8" d="M2010.42 135.455C2012.44 153.123 2026.93 167.264 2044.65 168.895C2052.49 169.639 2059.95 167.991 2066.31 164.571C2067.64 163.844 2068.95 163.082 2070.31 162.409L2083.69 155.817C2087.77 153.796 2092.02 152.804 2096.29 152.804V261.931H1987.27C1987.27 257.678 1988.28 253.442 1990.28 249.367L1998.61 232.478L2000.17 229.342C2002.26 224.628 2003.42 219.435 2003.42 213.96C2003.42 191.401 1983.83 173.414 1960.74 176.09C1943.08 178.11 1928.93 192.606 1927.3 210.309C1926.56 218.177 1928.21 225.602 1931.65 231.982C1932.34 233.311 1933.12 234.623 1933.79 235.969L1940.38 249.367C1942.38 253.442 1943.39 257.678 1943.39 261.931H1834.27V152.804C1830.01 152.804 1825.74 153.796 1821.67 155.817L1808.29 162.409C1806.91 163.082 1805.61 163.844 1804.28 164.571C1797.92 167.991 1790.48 169.639 1782.63 168.895C1764.89 167.264 1750.41 153.123 1748.39 135.455C1745.73 112.364 1763.7 92.7823 1786.26 92.7823C1791.74 92.7823 1796.95 93.9342 1801.64 96.0253L1804.78 97.5848L1821.67 105.914C1825.74 107.934 1830 108.926 1834.27 108.926V-0.0942993H2096.26V108.926C2092 108.926 2087.73 107.934 2083.66 105.914L2066.77 97.5848L2063.63 96.0253C2058.92 93.9342 2053.73 92.7823 2048.25 92.7823C2025.69 92.7823 2007.72 112.364 2010.38 135.455H2010.42Z" fill="#FCFCFC" stroke="#5376C1" stroke-width="3" stroke-miterlimit="10"/>
</g>
</g>
<g id="9" class="piece">
<g id="9_2">
<path id="Vector_9" d="M2406.27 92.7823C2400.8 92.7823 2395.59 93.9165 2390.91 96.0253L2387.61 97.6379L2370.88 105.914C2366.77 107.934 2362.52 108.926 2358.26 108.926V-0.0942993H2096.29V108.926C2092.04 108.926 2087.77 107.934 2083.69 105.914L2066.8 97.567L2063.67 96.0253C2058.95 93.9165 2053.76 92.7823 2048.29 92.7823C2025.73 92.7823 2007.76 112.346 2010.42 135.437C2012.44 153.105 2026.91 167.264 2044.65 168.877C2052.49 169.621 2059.95 167.973 2066.31 164.553C2067.64 163.826 2068.93 163.064 2070.31 162.391L2083.69 155.781C2087.77 153.761 2092.04 152.768 2096.29 152.768V261.895H2205.42C2205.42 266.166 2204.43 270.419 2202.41 274.513L2195.81 287.839C2195.18 289.186 2194.4 290.497 2193.69 291.826C2192.41 294.166 2191.37 296.682 2190.62 299.305C2190.41 300.049 2190.22 300.811 2190.04 301.573C2190.04 301.573 2190.02 301.573 2190.04 301.591C2189.88 302.353 2189.72 303.115 2189.59 303.895C2189.06 307.332 2188.97 310.912 2189.4 314.58C2190.43 323.228 2194.41 331.008 2200.33 336.891C2206.23 342.775 2214.03 346.744 2222.66 347.772C2228.26 348.428 2233.67 347.878 2238.63 346.319C2239.23 346.16 2239.82 345.947 2240.4 345.717C2241.55 345.291 2242.69 344.813 2243.8 344.299C2245.49 343.501 2247.08 342.562 2248.61 341.534C2249.62 340.843 2250.59 340.117 2251.53 339.355C2252.01 338.965 2252.47 338.557 2252.93 338.132C2253.37 337.724 2253.82 337.299 2254.24 336.874C2261.15 329.98 2265.42 320.446 2265.42 309.902C2265.42 305.808 2264.77 301.839 2263.56 298.135C2263.16 296.912 2262.69 295.707 2262.16 294.538L2260.55 291.259L2252.27 274.513C2251.51 272.971 2250.91 271.412 2250.43 269.852C2249.65 267.229 2249.26 264.571 2249.26 261.895H2358.26V152.768C2362.52 152.768 2366.77 153.761 2370.88 155.781L2384.19 162.373C2385.54 163.029 2386.85 163.791 2388.18 164.482C2394.81 168.115 2402.66 169.763 2410.95 168.788C2428.21 166.733 2442.1 152.786 2444.14 135.544C2446.87 112.417 2428.87 92.7823 2406.27 92.7823Z" fill="#FCFCFC" stroke="#5376C1" stroke-width="3" stroke-miterlimit="10"/>
<path id="Vector_10" d="M2260.55 291.242L2252.27 274.513C2251.51 272.971 2250.91 271.412 2250.43 269.852C2250.91 271.412 2251.53 272.971 2252.29 274.495L2260.55 291.242Z" fill="#FCFCFC" stroke="#5376C1" stroke-width="3" stroke-miterlimit="10"/>
<path id="Vector_11" d="M2262.18 294.538C2262.71 295.707 2263.17 296.912 2263.56 298.135C2263.16 296.912 2262.69 295.707 2262.16 294.538L2260.55 291.259L2262.18 294.538Z" fill="#FCFCFC" stroke="#5376C1" stroke-width="3" stroke-miterlimit="10"/>
</g>
</g>
<g id="10" class="piece">
<g id="10_2">
<path id="Vector_12" d="M2620.25 261.913H2525.39C2525.39 266.166 2526.39 270.384 2528.41 274.478L2536.68 291.224L2538.31 294.52C2540.4 299.199 2541.56 304.409 2541.56 309.884C2541.56 332.479 2521.9 350.484 2498.78 347.755C2481.53 345.734 2467.57 331.823 2465.55 314.598C2464.56 306.287 2466.22 298.437 2469.84 291.791C2470.56 290.462 2471.31 289.151 2471.98 287.804L2478.56 274.495C2480.58 270.402 2481.57 266.184 2481.57 261.931H2358.28V152.804C2362.54 152.804 2366.81 153.796 2370.9 155.817L2384.21 162.391C2385.56 163.047 2386.87 163.809 2388.2 164.518C2394.82 168.151 2402.67 169.781 2410.97 168.824C2428.23 166.768 2442.12 152.822 2444.16 135.579C2446.89 112.471 2428.88 92.8179 2406.29 92.8179C2400.81 92.8179 2395.6 93.9698 2390.93 96.0609L2387.63 97.6912L2370.88 105.967C2366.79 107.987 2362.52 108.98 2358.26 108.98V-0.0410156H2620.25V261.949V261.913Z" fill="#FCFCFC" stroke="#5376C1" stroke-width="3" stroke-miterlimit="10"/>
</g>
</g>
</g>
<g id="Row 2">
<g id="11" class="piece">
<path id="Vector_13" d="M348.224 397.533C346.203 414.793 332.292 428.74 315.067 430.778C306.756 431.752 298.906 430.087 292.26 426.471C290.931 425.745 289.62 425.001 288.273 424.327L274.982 417.77C270.888 415.75 266.618 414.758 262.364 414.758V523.885H153.362C153.362 519.649 154.372 515.396 156.374 511.338L164.703 494.45L166.263 491.313C168.354 486.599 169.506 481.407 169.506 475.931C169.506 453.354 149.906 435.385 126.815 438.043C109.147 440.099 95.0058 454.577 93.3755 472.281C92.6489 480.149 94.2969 487.574 97.7171 493.936C98.4437 495.265 99.188 496.594 99.8614 497.941L106.489 511.338C108.492 515.396 109.502 519.649 109.502 523.885H0.357056V261.895H109.502C109.502 266.148 108.509 270.419 106.489 274.512L99.9146 287.821C99.2412 289.168 98.4969 290.479 97.7703 291.808C94.1729 298.436 92.5071 306.286 93.4818 314.58C95.502 331.84 109.484 345.734 126.709 347.772C149.853 350.501 169.488 332.496 169.488 309.902C169.488 304.426 168.336 299.216 166.245 294.537L164.615 291.241L156.339 274.495C154.319 270.401 153.326 266.13 153.326 261.877H262.329V370.898C266.582 370.898 270.853 369.905 274.947 367.885L291.693 359.609L294.989 357.979C299.668 355.888 304.878 354.736 310.353 354.736C332.93 354.736 350.935 374.353 348.206 397.497L348.224 397.533Z" fill="#FCFCFC" stroke="#5376C1" stroke-width="3" stroke-miterlimit="10"/>
</g>
<g id="12" class="piece">
<path id="Vector_14" d="M438.478 397.445C440.498 415.113 455.012 429.254 472.715 430.884C480.583 431.611 488.008 429.981 494.37 426.543C495.699 425.852 497.029 425.072 498.375 424.399L511.755 417.806C515.831 415.804 520.084 414.794 524.355 414.794V523.921H415.334C415.316 528.174 416.326 532.462 418.347 536.556L426.622 553.302L428.253 556.598C430.344 561.277 431.496 566.487 431.496 571.963C431.496 594.539 411.878 612.544 388.734 609.815C371.492 607.795 357.528 593.884 355.507 576.659C354.515 568.348 356.181 560.497 359.796 553.852C360.522 552.54 361.267 551.247 361.94 549.882L368.497 536.574C370.517 532.48 371.545 528.191 371.51 523.938H262.383V414.811C266.636 414.811 270.906 415.804 275 417.824L288.291 424.381C289.638 425.054 290.949 425.799 292.278 426.525C298.924 430.122 306.756 431.788 315.085 430.831C332.328 428.776 346.221 414.829 348.242 397.586C350.971 374.443 332.966 354.825 310.389 354.825C304.913 354.825 299.703 355.977 295.025 358.068L291.729 359.699L274.982 367.974C270.889 369.995 266.618 370.987 262.365 370.987V261.966H371.492C371.492 257.713 370.482 253.478 368.479 249.402L361.887 236.005C361.214 234.658 360.469 233.347 359.743 232.018C356.323 225.638 354.674 218.213 355.401 210.345C357.031 192.641 371.173 178.145 388.841 176.125C411.932 173.449 431.513 191.436 431.513 213.995C431.513 219.471 430.362 224.681 428.27 229.377L426.711 232.514L418.382 249.402C416.38 253.478 415.369 257.713 415.369 261.966H524.39V370.987C520.137 370.987 515.866 369.977 511.79 367.974L494.902 359.645L491.765 358.086C487.052 355.995 481.859 354.843 476.383 354.843C453.824 354.843 435.855 374.425 438.513 397.516L438.478 397.445Z" fill="#FCFCFC" stroke="#5376C1" stroke-width="3" stroke-miterlimit="10"/>
</g>
<g id="13" class="piece">
<path id="Vector_15" d="M700.467 397.444C702.487 415.112 717.001 429.254 734.704 430.884C742.573 431.611 749.998 429.98 756.36 426.542C757.689 425.851 759.018 425.072 760.365 424.398L773.744 417.806C777.82 415.803 782.073 414.793 786.344 414.793V523.92H677.323C677.323 519.685 678.316 515.432 680.336 511.374L688.665 494.485L690.224 491.349C692.315 486.635 693.467 481.443 693.467 475.967C693.467 453.39 673.885 435.421 650.795 438.079C633.127 440.135 618.985 454.613 617.355 472.316C616.628 480.184 618.276 487.61 621.697 493.971C622.423 495.301 623.167 496.63 623.841 497.976L630.433 511.374C632.453 515.432 633.446 519.685 633.446 523.92H524.319V414.793C520.066 414.793 515.795 415.803 511.719 417.806L498.34 424.398C496.993 425.072 495.664 425.834 494.335 426.542C487.973 429.998 480.548 431.611 472.679 430.884C454.976 429.254 440.462 415.112 438.442 397.444C435.784 374.354 453.753 354.772 476.312 354.772C481.788 354.772 486.998 355.924 491.694 358.015L494.831 359.574L511.719 367.903C515.795 369.906 520.048 370.916 524.319 370.916V261.895H633.446C633.446 266.148 632.453 270.419 630.433 274.513L623.876 287.821C623.203 289.168 622.459 290.479 621.732 291.808C618.135 298.436 616.469 306.287 617.444 314.58C619.464 331.84 633.446 345.734 650.671 347.772C673.815 350.501 693.432 332.496 693.432 309.902C693.432 304.426 692.28 299.216 690.189 294.537L688.559 291.241L680.283 274.495C678.263 270.401 677.27 266.13 677.27 261.877H786.291V370.898C782.038 370.898 777.767 369.888 773.691 367.885L756.803 359.556L753.666 357.997C748.952 355.906 743.76 354.754 738.284 354.754C715.725 354.754 697.756 374.336 700.414 397.427L700.467 397.444Z" fill="#FCFCFC" stroke="#5376C1" stroke-width="3" stroke-miterlimit="10"/>
</g>
<g id="14" class="piece">
<path id="Vector_16" d="M1134.19 397.533C1132.17 414.794 1118.26 428.74 1101.04 430.778C1092.72 431.753 1084.87 430.087 1078.23 426.472C1076.9 425.745 1075.59 425.001 1074.24 424.328L1060.93 417.771C1056.86 415.768 1052.57 414.758 1048.33 414.758V523.885H939.312C939.312 519.65 940.322 515.397 942.325 511.339L950.654 494.45L952.213 491.314C954.304 486.6 955.456 481.408 955.456 475.932C955.456 453.355 935.874 435.386 912.784 438.044C895.116 440.099 880.974 454.578 879.344 472.281C878.617 480.149 880.265 487.575 883.686 493.936C884.412 495.265 885.156 496.595 885.83 497.941L892.422 511.339C894.425 515.397 895.435 519.65 895.435 523.885H786.308V414.758C782.055 414.758 777.784 415.768 773.708 417.771L760.329 424.363C758.982 425.036 757.653 425.798 756.324 426.507C749.962 429.963 742.536 431.576 734.668 430.849C716.965 429.219 702.451 415.077 700.431 397.409C697.773 374.319 715.742 354.737 738.301 354.737C743.777 354.737 748.987 355.889 753.683 357.98L756.82 359.539L773.708 367.868C777.784 369.87 782.037 370.881 786.308 370.881V261.86H895.435C895.435 266.113 894.442 270.384 892.422 274.477L885.865 287.786C885.192 289.133 884.448 290.444 883.721 291.773C880.124 298.401 878.458 306.252 879.432 314.545C881.453 331.805 895.435 345.699 912.66 347.737C935.803 350.466 955.421 332.461 955.421 309.867C955.421 304.391 954.269 299.181 952.178 294.502L950.547 291.206L942.272 274.46C940.252 270.366 939.259 266.095 939.259 261.842H1048.28V370.863C1052.52 370.863 1056.8 369.853 1060.88 367.85L1077.63 359.575L1080.92 357.944C1085.6 355.853 1090.81 354.701 1096.29 354.701C1118.88 354.701 1136.89 374.319 1134.16 397.462L1134.19 397.533Z" fill="#FCFCFC" stroke="#5376C1" stroke-width="3" stroke-miterlimit="10"/>
</g>
<g id="15" class="piece">
<path id="Vector_17" d="M1396.18 397.533C1394.16 414.794 1380.25 428.74 1363.03 430.778C1354.72 431.753 1346.86 430.087 1340.22 426.472C1338.89 425.745 1337.58 425.001 1336.23 424.328L1322.92 417.771C1318.83 415.768 1314.59 414.758 1310.32 414.758V523.885H1201.3C1201.29 528.138 1202.3 532.427 1204.32 536.52L1212.59 553.267L1214.22 556.563C1216.31 561.241 1217.46 566.451 1217.46 571.927C1217.46 594.504 1197.85 612.509 1174.7 609.78C1157.44 607.759 1143.5 593.848 1141.48 576.623C1140.48 568.312 1142.15 560.462 1145.77 553.816C1146.49 552.505 1147.24 551.211 1147.91 549.847L1154.47 536.538C1156.49 532.444 1157.51 528.156 1157.48 523.903H1048.35V414.776C1052.59 414.776 1056.88 415.786 1060.95 417.788L1074.26 424.345C1075.61 425.019 1076.92 425.763 1078.25 426.49C1084.89 430.087 1092.73 431.753 1101.05 430.796C1118.3 428.74 1132.19 414.794 1134.21 397.551C1136.94 374.407 1118.94 354.79 1096.34 354.79C1090.86 354.79 1085.65 355.942 1080.98 358.033L1077.68 359.663L1060.93 367.939C1056.86 369.941 1052.57 370.951 1048.33 370.951V261.931H1157.46C1157.46 257.678 1156.47 253.442 1154.45 249.366L1147.86 235.969C1147.18 234.622 1146.44 233.311 1145.71 231.982C1142.29 225.602 1140.64 218.177 1141.37 210.309C1143 192.606 1157.14 178.11 1174.81 176.089C1197.9 173.414 1217.48 191.401 1217.48 213.96C1217.48 219.435 1216.33 224.645 1214.24 229.342L1212.68 232.478L1204.35 249.366C1202.33 253.442 1201.34 257.678 1201.34 261.931H1310.36V370.951C1314.61 370.951 1318.85 369.941 1322.96 367.939L1339.71 359.663L1343 358.033C1347.68 355.942 1352.89 354.79 1358.37 354.79C1380.96 354.79 1398.97 374.407 1396.24 397.551L1396.18 397.533Z" fill="#FCFCFC" stroke="#5376C1" stroke-width="3" stroke-miterlimit="10"/>
</g>
<g id="16" class="piece">
<path id="Vector_18" d="M1486.44 397.444C1488.46 415.113 1502.95 429.254 1520.67 430.884C1528.54 431.611 1535.97 429.981 1542.33 426.543C1543.66 425.852 1544.97 425.072 1546.33 424.398L1559.71 417.806C1563.79 415.804 1568.04 414.794 1572.31 414.794V523.92H1463.29C1463.29 519.685 1464.3 515.432 1466.31 511.374L1474.63 494.486L1476.19 491.349C1478.29 486.635 1479.44 481.443 1479.44 475.967C1479.44 453.39 1459.86 435.421 1436.76 438.079C1419.1 440.135 1404.96 454.613 1403.32 472.316C1402.6 480.185 1404.23 487.61 1407.67 493.972C1408.39 495.301 1409.14 496.63 1409.81 497.977L1416.4 511.374C1418.41 515.432 1419.42 519.685 1419.42 523.92H1310.29V414.794C1314.54 414.794 1318.78 415.804 1322.89 417.806L1336.2 424.363C1337.54 425.036 1338.86 425.781 1340.18 426.507C1346.83 430.105 1354.66 431.77 1362.99 430.813C1380.23 428.758 1394.13 414.811 1396.15 397.569C1398.88 374.425 1380.87 354.807 1358.28 354.807C1352.8 354.807 1347.59 355.959 1342.91 358.05L1339.62 359.681L1322.87 367.957C1318.78 369.959 1314.54 370.969 1310.27 370.969V261.948H1419.4C1419.4 257.695 1418.39 253.46 1416.39 249.384L1409.79 235.987C1409.12 234.64 1408.38 233.329 1407.65 232C1404.19 225.62 1402.58 218.195 1403.31 210.327C1404.94 192.623 1419.08 178.127 1436.75 176.107C1459.84 173.431 1479.42 191.418 1479.42 213.977C1479.42 219.453 1478.27 224.663 1476.18 229.359L1474.62 232.496L1466.29 249.384C1464.29 253.46 1463.28 257.695 1463.28 261.948H1572.3V370.969C1568.04 370.969 1563.77 369.959 1559.7 367.957L1542.81 359.628L1539.67 358.068C1534.96 355.977 1529.77 354.825 1524.29 354.825C1501.73 354.825 1483.76 374.407 1486.42 397.498L1486.44 397.444Z" fill="#FCFCFC" stroke="#5376C1" stroke-width="3" stroke-miterlimit="10"/>
</g>
<g id="17" class="piece">
<path id="Vector_19" d="M1920.16 397.533C1918.14 414.793 1904.23 428.74 1886.97 430.778C1878.68 431.753 1870.84 430.087 1864.2 426.472C1862.87 425.745 1861.56 425.001 1860.21 424.327L1846.9 417.771C1842.81 415.768 1838.57 414.758 1834.3 414.758V523.885H1725.28C1725.26 528.138 1726.27 532.427 1728.29 536.52L1736.57 553.267L1738.2 556.563C1740.29 561.241 1741.44 566.451 1741.44 571.927C1741.44 594.504 1721.83 612.508 1698.68 609.779C1681.42 607.759 1667.48 593.848 1665.44 576.623C1664.46 568.312 1666.13 560.461 1669.74 553.816C1670.47 552.505 1671.22 551.211 1671.89 549.846L1678.45 536.538C1680.47 532.444 1681.49 528.156 1681.46 523.903H1572.33V414.776C1568.08 414.776 1563.81 415.786 1559.73 417.788L1546.35 424.381C1544.97 425.054 1543.68 425.816 1542.35 426.525C1535.98 429.98 1528.56 431.593 1520.69 430.867C1502.95 429.236 1488.47 415.095 1486.45 397.427C1483.8 374.336 1501.77 354.754 1524.32 354.754C1529.8 354.754 1535.01 355.906 1539.71 357.997L1542.84 359.557L1559.73 367.885C1563.81 369.888 1568.06 370.898 1572.33 370.898V261.877H1681.46C1681.46 257.624 1680.47 253.389 1678.45 249.313L1671.84 235.916C1671.16 234.569 1670.4 233.258 1669.69 231.929C1666.24 225.549 1664.62 218.124 1665.35 210.256C1666.98 192.552 1681.12 178.056 1698.79 176.036C1721.88 173.36 1741.46 191.347 1741.46 213.906C1741.46 219.382 1740.31 224.592 1738.22 229.288L1736.66 232.425L1728.33 249.313C1726.31 253.389 1725.32 257.624 1725.32 261.877H1834.34V370.898C1838.59 370.898 1842.83 369.888 1846.94 367.885L1863.68 359.61L1866.98 357.979C1871.66 355.888 1876.87 354.736 1882.35 354.736C1904.94 354.736 1922.94 374.354 1920.22 397.498L1920.16 397.533Z" fill="#FCFCFC" stroke="#5376C1" stroke-width="3" stroke-miterlimit="10"/>
</g>
<g id="18" class="piece">
<path id="Vector_20" d="M2010.42 397.445C2012.44 415.113 2026.93 429.254 2044.65 430.884C2052.49 431.611 2059.95 429.981 2066.31 426.543C2067.64 425.852 2068.95 425.072 2070.31 424.399L2083.69 417.806C2087.77 415.804 2092.02 414.794 2096.29 414.794V523.921H1987.27C1987.25 528.174 1988.26 532.462 1990.28 536.556L1998.56 553.302L2000.19 556.598C2002.28 561.277 2003.43 566.487 2003.43 571.963C2003.43 594.539 1983.78 612.544 1960.67 609.815C1943.41 607.795 1929.46 593.884 1927.43 576.659C1926.45 568.348 1928.1 560.497 1931.73 553.852C1932.42 552.54 1933.2 551.247 1933.84 549.882L1940.42 536.574C1942.44 532.48 1943.46 528.191 1943.43 523.938H1834.3V414.811C1838.56 414.811 1842.79 415.821 1846.9 417.824L1860.21 424.381C1861.56 425.054 1862.87 425.799 1864.2 426.525C1870.84 430.122 1878.68 431.788 1886.97 430.831C1904.23 428.776 1918.12 414.829 1920.16 397.586C1922.89 374.443 1904.89 354.825 1882.29 354.825C1876.82 354.825 1871.61 355.977 1866.93 358.068L1863.63 359.699L1846.88 367.974C1842.79 369.977 1838.56 370.987 1834.28 370.987V261.966H1943.41C1943.41 257.713 1942.4 253.478 1940.4 249.402L1933.81 236.005C1933.13 234.658 1932.37 233.347 1931.66 232.018C1928.21 225.638 1926.58 218.213 1927.32 210.345C1928.95 192.641 1943.09 178.145 1960.76 176.125C1983.85 173.449 2003.43 191.436 2003.43 213.995C2003.43 219.471 2002.28 224.681 2000.19 229.377L1998.63 232.514L1990.3 249.402C1988.3 253.478 1987.29 257.713 1987.29 261.966H2096.31V370.987C2092.06 370.987 2087.79 369.977 2083.71 367.974L2066.82 359.645L2063.69 358.086C2058.97 355.995 2053.78 354.843 2048.3 354.843C2025.74 354.843 2007.77 374.425 2010.43 397.516L2010.42 397.445Z" fill="#FCFCFC" stroke="#5376C1" stroke-width="3" stroke-miterlimit="10"/>
</g>
<g id="19" class="piece">
<path id="Vector_21" d="M2272.41 397.445C2274.43 415.095 2288.92 429.254 2306.62 430.867C2314.48 431.593 2321.92 429.963 2328.3 426.525C2329.63 425.816 2330.94 425.054 2332.29 424.381L2345.68 417.789C2349.76 415.768 2353.99 414.758 2358.26 414.758V523.885H2249.26C2249.26 519.65 2250.25 515.397 2252.27 511.339L2260.62 494.45L2262.16 491.314C2264.27 486.6 2265.42 481.408 2265.42 475.932C2265.42 453.355 2245.84 435.368 2222.75 438.026C2205.08 440.082 2190.94 454.578 2189.29 472.281C2188.57 480.132 2190.21 487.575 2193.63 493.936C2194.36 495.265 2195.12 496.595 2195.8 497.941L2202.41 511.339C2204.43 515.397 2205.42 519.65 2205.42 523.885H2096.29V414.758C2092.04 414.758 2087.77 415.768 2083.69 417.789L2070.31 424.381C2068.93 425.054 2067.64 425.816 2066.31 426.525C2059.95 429.963 2052.49 431.593 2044.65 430.867C2026.91 429.254 2012.44 415.095 2010.42 397.445C2007.76 374.336 2025.73 354.772 2048.29 354.772C2053.76 354.772 2058.95 355.906 2063.67 358.015L2066.8 359.557L2083.69 367.903C2087.77 369.906 2092.04 370.916 2096.29 370.916V261.895H2205.42C2205.42 266.166 2204.43 270.419 2202.41 274.513L2195.81 287.839C2195.18 289.186 2194.4 290.497 2193.69 291.826C2192.41 294.166 2191.37 296.682 2190.62 299.305C2190.39 300.049 2190.2 300.811 2190.04 301.573C2190.04 301.573 2190.02 301.573 2190.04 301.591C2189.86 302.353 2189.72 303.115 2189.59 303.895C2189.05 307.332 2188.97 310.912 2189.4 314.58C2190.43 323.228 2194.41 331.008 2200.33 336.891C2206.22 342.775 2214.03 346.762 2222.66 347.79C2228.26 348.446 2233.67 347.896 2238.63 346.319C2239.23 346.16 2239.82 345.947 2240.4 345.717C2241.55 345.309 2242.7 344.831 2243.8 344.299C2245.49 343.501 2247.08 342.562 2248.61 341.534C2249.62 340.843 2250.59 340.117 2251.53 339.355C2252.01 338.965 2252.47 338.557 2252.93 338.132C2253.39 337.724 2253.83 337.299 2254.24 336.874C2261.15 329.98 2265.42 320.446 2265.42 309.902C2265.42 305.808 2264.77 301.839 2263.56 298.135C2263.16 296.912 2262.69 295.707 2262.16 294.538L2260.55 291.259L2252.27 274.513C2251.51 272.971 2250.91 271.412 2250.43 269.852C2249.65 267.23 2249.26 264.571 2249.26 261.895H2358.26V370.916C2353.99 370.916 2349.76 369.906 2345.68 367.903L2328.79 359.557L2325.66 358.015C2320.94 355.906 2315.75 354.772 2310.28 354.772C2287.72 354.772 2269.71 374.336 2272.41 397.445Z" fill="#FCFCFC" stroke="#5376C1" stroke-width="3" stroke-miterlimit="10"/>
</g>
<g id="20" class="piece">
<path id="Vector_22" d="M2620.25 523.902H2525.39C2525.39 528.155 2526.39 532.391 2528.41 536.502L2536.68 553.249L2538.31 556.545C2540.4 561.223 2541.55 566.433 2541.55 571.909C2541.55 594.503 2521.9 612.508 2498.78 609.779C2481.53 607.759 2467.57 593.848 2465.55 576.587C2464.56 568.294 2466.22 560.461 2469.84 553.816C2470.56 552.487 2471.31 551.175 2471.98 549.828L2478.56 536.52C2480.58 532.426 2481.57 528.191 2481.57 523.92H2358.28V414.793C2354.03 414.793 2349.79 415.803 2345.72 417.806L2332.32 424.398C2330.97 425.071 2329.66 425.833 2328.33 426.542C2321.95 429.998 2314.53 431.61 2306.66 430.884C2288.96 429.254 2274.46 415.112 2272.44 397.444C2269.77 374.353 2287.75 354.772 2310.31 354.772C2315.79 354.772 2321 355.923 2325.69 358.014L2328.83 359.574L2345.72 367.903C2349.79 369.905 2354.03 370.915 2358.28 370.915V261.895H2481.57C2481.57 266.148 2480.58 270.366 2478.56 274.459L2471.98 287.768C2471.31 289.115 2470.56 290.426 2469.84 291.755C2466.24 298.4 2464.57 306.233 2465.55 314.562C2467.57 331.805 2481.55 345.698 2498.78 347.718C2521.92 350.448 2541.55 332.443 2541.55 309.848C2541.55 304.373 2540.4 299.162 2538.31 294.484L2536.68 291.188L2528.41 274.441C2526.39 270.348 2525.39 266.13 2525.39 261.877H2620.25V523.867V523.902Z" fill="#FCFCFC" stroke="#5376C1" stroke-width="3" stroke-miterlimit="10"/>
</g>
</g>
<g id="Row 3">
<g id="21" class="piece">
<path id="Vector_23" d="M176.488 659.47C178.543 677.156 193.022 691.28 210.725 692.928C218.593 693.654 226.019 692.006 232.38 688.586C233.709 687.859 235.039 687.097 236.385 686.424L249.783 679.832C253.858 677.811 258.094 676.819 262.347 676.819V785.964H153.344C153.344 790.217 154.336 794.488 156.357 798.581L164.632 815.328L166.263 818.624C168.354 823.302 169.506 828.512 169.506 833.988C169.506 856.565 149.853 874.587 126.727 871.858C109.484 869.838 95.5198 855.927 93.4996 838.666C92.5072 830.373 94.173 822.505 97.7881 815.895C98.5147 814.566 99.259 813.254 99.9324 811.907L106.507 798.599C108.527 794.505 109.52 790.235 109.52 785.981H0.374878V523.992H109.52C109.52 519.739 108.509 515.468 106.507 511.392L99.8792 498.012C99.2058 496.63 98.4615 495.337 97.735 494.007C94.3148 487.646 92.6667 480.22 93.3933 472.352C95.0237 454.613 109.165 440.135 126.833 438.115C149.924 435.457 169.523 453.426 169.523 475.985C169.523 481.461 168.372 486.671 166.28 491.367L164.721 494.504L156.392 511.392C154.39 515.468 153.379 519.721 153.379 523.992H262.382V632.995C258.129 632.995 253.894 632.002 249.818 629.982L232.93 621.653L229.793 620.094C225.079 618.003 219.887 616.851 214.411 616.851C191.834 616.851 173.865 636.432 176.523 659.523L176.488 659.47Z" fill="#FCFCFC" stroke="#5376C1" stroke-width="3" stroke-miterlimit="10"/>
</g>
<g id="22" class="piece">
<path id="Vector_24" d="M610.214 659.594C608.194 676.837 594.283 690.765 577.058 692.821C568.746 693.796 560.896 692.148 554.251 688.532C552.921 687.806 551.61 687.044 550.263 686.388L536.955 679.814C532.879 677.793 528.59 676.801 524.355 676.801V785.946H415.334C415.334 781.693 416.344 777.457 418.347 773.381L426.676 756.493L428.235 753.356C430.326 748.643 431.478 743.45 431.478 737.975C431.478 715.415 411.896 697.428 388.806 700.104C371.138 702.125 356.996 716.621 355.366 734.324C354.639 742.192 356.287 749.617 359.708 755.997C360.434 757.326 361.178 758.637 361.852 759.984L368.444 773.381C370.447 777.457 371.457 781.693 371.457 785.946H262.33V676.801C258.077 676.801 253.841 677.793 249.765 679.814L236.368 686.406C235.021 687.079 233.692 687.841 232.363 688.568C226.001 691.988 218.576 693.636 210.708 692.91C193.005 691.262 178.509 677.138 176.471 659.452C173.813 636.361 191.782 616.779 214.359 616.779C219.834 616.779 225.044 617.931 229.741 620.022L232.877 621.582L249.765 629.911C253.841 631.931 258.077 632.923 262.33 632.923V523.921H371.457C371.457 528.156 370.447 532.444 368.444 536.52L361.887 549.829C361.214 551.176 360.47 552.487 359.743 553.816C356.146 560.462 354.48 568.294 355.454 576.588C357.475 593.848 371.457 607.742 388.682 609.78C411.826 612.509 431.443 594.504 431.443 571.909C431.443 566.434 430.291 561.224 428.2 556.545L426.57 553.249L418.294 536.503C416.291 532.427 415.281 528.138 415.281 523.903H524.302V632.906C528.537 632.906 532.826 631.913 536.902 629.893L553.648 621.617L556.944 619.987C561.623 617.896 566.833 616.744 572.308 616.744C594.903 616.744 612.908 636.397 610.179 659.523L610.214 659.594Z" fill="#FCFCFC" stroke="#5376C1" stroke-width="3" stroke-miterlimit="10"/>
</g>
<g id="23" class="piece">
<path id="Vector_25" d="M872.204 659.594C870.183 676.837 856.272 690.766 839.047 692.821C830.736 693.796 822.886 692.148 816.24 688.533C814.911 687.806 813.6 687.044 812.253 686.388L798.944 679.814C794.851 677.794 790.615 676.801 786.344 676.801V785.946H677.324C677.324 781.693 678.316 777.457 680.336 773.382L688.665 756.493L690.225 753.357C692.316 748.643 693.468 743.451 693.468 737.975C693.468 715.416 673.886 697.429 650.795 700.105C633.127 702.125 618.986 716.621 617.355 734.324C616.629 742.192 618.277 749.617 621.697 755.997C622.424 757.326 623.168 758.638 623.841 759.984L630.434 773.382C632.454 777.457 633.446 781.693 633.446 785.946H524.319V676.801C528.555 676.801 532.843 677.794 536.919 679.814L550.228 686.388C551.575 687.044 552.886 687.806 554.215 688.533C560.86 692.13 568.693 693.778 577.022 692.821C594.265 690.766 608.158 676.819 610.178 659.594C612.907 636.45 594.903 616.815 572.308 616.815C566.832 616.815 561.622 617.967 556.944 620.058L553.648 621.688L536.901 629.964C532.825 631.984 528.537 632.977 524.302 632.977V523.974H633.428C633.428 519.721 632.436 515.45 630.416 511.374L623.824 497.995C623.15 496.612 622.406 495.319 621.679 493.99C618.259 487.628 616.611 480.203 617.338 472.334C618.968 454.596 633.11 440.117 650.778 438.097C673.868 435.439 693.45 453.408 693.45 475.967C693.45 481.443 692.298 486.653 690.207 491.349L688.648 494.486L680.319 511.374C678.299 515.45 677.306 519.703 677.306 523.974H786.327V632.977C790.58 632.977 794.815 631.984 798.926 629.964L815.673 621.688L818.969 620.058C823.647 617.967 828.858 616.815 834.333 616.815C856.928 616.815 874.933 636.468 872.204 659.594Z" fill="#FCFCFC" stroke="#5376C1" stroke-width="3" stroke-miterlimit="10"/>
</g>
<g id="24" class="piece">
<path id="Vector_26" d="M962.457 659.47C964.477 677.156 978.991 691.279 996.694 692.928C1004.56 693.654 1011.99 692.006 1018.35 688.586C1019.68 687.859 1020.99 687.097 1022.35 686.424L1035.73 679.832C1039.81 677.811 1044.06 676.819 1048.33 676.819V785.964H939.313C939.313 790.217 940.305 794.488 942.325 798.581L950.601 815.328L952.232 818.624C954.323 823.302 955.475 828.512 955.475 833.988C955.475 856.565 935.857 874.587 912.713 871.858C895.471 869.838 881.506 855.927 879.486 838.666C878.494 830.373 880.16 822.505 883.775 815.895C884.501 814.566 885.246 813.254 885.919 811.907L892.476 798.599C894.496 794.505 895.488 790.234 895.488 785.981H786.361V676.837C790.615 676.837 794.85 677.829 798.961 679.849L812.27 686.424C813.617 687.079 814.928 687.842 816.257 688.568C822.903 692.166 830.735 693.814 839.064 692.857C856.307 690.801 870.2 676.854 872.22 659.629C874.95 636.486 856.945 616.851 834.35 616.851C828.874 616.851 823.664 618.002 818.986 620.094L815.69 621.724L798.943 630C794.85 632.02 790.615 633.012 786.344 633.012V524.009H895.471C895.471 519.756 894.461 515.485 892.458 511.41L885.866 498.03C885.192 496.648 884.448 495.354 883.722 494.025C880.301 487.663 878.653 480.238 879.38 472.37C881.01 454.631 895.152 440.153 912.82 438.133C935.91 435.474 955.492 453.444 955.492 476.003C955.492 481.479 954.34 486.689 952.249 491.385L950.69 494.521L942.361 511.41C940.358 515.485 939.348 519.739 939.348 524.009H1048.37V633.012C1044.12 633.012 1039.85 632.02 1035.77 630L1018.88 621.671L1015.74 620.111C1011.03 618.02 1005.84 616.868 1000.36 616.868C977.803 616.868 959.834 636.45 962.492 659.541L962.457 659.47Z" fill="#FCFCFC" stroke="#5376C1" stroke-width="3" stroke-miterlimit="10"/>
</g>
<g id="25" class="piece">
<path id="Vector_27" d="M1396.18 659.594C1394.16 676.837 1380.25 690.765 1363.03 692.821C1354.72 693.796 1346.87 692.148 1340.22 688.532C1338.89 687.806 1337.58 687.044 1336.23 686.388L1322.92 679.814C1318.83 677.793 1314.6 676.801 1310.32 676.801V785.946H1201.3C1201.3 790.199 1202.3 794.47 1204.32 798.563L1212.59 815.31L1214.22 818.606C1216.31 823.284 1217.47 828.494 1217.47 833.97C1217.47 856.547 1197.85 874.569 1174.7 871.84C1157.44 869.82 1143.5 855.909 1141.48 838.648C1140.48 830.355 1142.15 822.487 1145.77 815.877C1146.49 814.548 1147.24 813.236 1147.91 811.89L1154.47 798.581C1156.49 794.487 1157.48 790.217 1157.48 785.963H1048.35V676.819C1044.1 676.819 1039.83 677.811 1035.75 679.831L1022.37 686.424C1020.99 687.097 1019.7 687.859 1018.37 688.586C1012.01 692.006 1004.58 693.654 996.713 692.927C979.009 691.279 964.496 677.156 962.475 659.47C959.817 636.379 977.787 616.797 1000.35 616.797C1005.82 616.797 1011.03 617.949 1015.73 620.04L1018.86 621.6L1035.75 629.929C1039.83 631.949 1044.08 632.941 1048.35 632.941V523.938H1157.48C1157.48 528.174 1156.49 532.462 1154.47 536.538L1147.91 549.847C1147.24 551.193 1146.49 552.505 1145.77 553.834C1142.17 560.479 1140.5 568.312 1141.48 576.606C1143.5 593.866 1157.44 607.759 1174.7 609.797C1197.85 612.526 1217.47 594.522 1217.47 571.927C1217.47 566.451 1216.31 561.241 1214.22 556.563L1212.59 553.267L1204.32 536.52C1202.3 532.445 1201.3 528.156 1201.3 523.921H1310.32V632.923C1314.58 632.923 1318.81 631.931 1322.92 629.911L1339.67 621.635L1342.97 620.005C1347.64 617.914 1352.85 616.762 1358.33 616.762C1380.93 616.762 1398.93 636.415 1396.2 659.541L1396.18 659.594Z" fill="#FCFCFC" stroke="#5376C1" stroke-width="3" stroke-miterlimit="10"/>
</g>
<g id="26" class="piece">
<path id="Vector_28" d="M1658.17 659.594C1656.15 676.837 1642.24 690.765 1624.98 692.821C1616.69 693.796 1608.85 692.148 1602.21 688.533C1600.88 687.806 1599.57 687.044 1598.22 686.388L1584.91 679.814C1580.84 677.794 1576.55 676.801 1572.31 676.801V785.946H1463.29C1463.29 781.693 1464.3 777.457 1466.31 773.382L1474.63 756.493L1476.19 753.357C1478.28 748.643 1479.44 743.45 1479.44 737.975C1479.44 715.416 1459.85 697.429 1436.76 700.105C1419.1 702.125 1404.95 716.621 1403.32 734.324C1402.6 742.192 1404.23 749.617 1407.67 755.997C1408.39 757.326 1409.14 758.637 1409.81 759.984L1416.4 773.382C1418.41 777.457 1419.42 781.693 1419.42 785.946H1310.29V676.801C1314.54 676.801 1318.78 677.794 1322.89 679.814L1336.2 686.388C1337.54 687.044 1338.85 687.806 1340.18 688.533C1346.83 692.13 1354.66 693.778 1362.99 692.821C1380.23 690.765 1394.13 676.819 1396.15 659.594C1398.88 636.45 1380.87 616.815 1358.28 616.815C1352.8 616.815 1347.59 617.967 1342.91 620.058L1339.62 621.688L1322.87 629.964C1318.78 631.984 1314.54 632.977 1310.27 632.977V523.974H1419.4C1419.4 519.721 1418.39 515.45 1416.38 511.374L1409.79 497.995C1409.12 496.612 1408.38 495.319 1407.65 493.99C1404.19 487.628 1402.58 480.203 1403.31 472.334C1404.94 454.595 1419.08 440.117 1436.75 438.097C1459.84 435.439 1479.42 453.408 1479.42 475.967C1479.42 481.443 1478.27 486.653 1476.18 491.349L1474.62 494.486L1466.29 511.374C1464.29 515.45 1463.28 519.703 1463.28 523.974H1572.3V632.977C1576.53 632.977 1580.82 631.984 1584.9 629.964L1601.64 621.688L1604.94 620.058C1609.62 617.967 1614.83 616.815 1620.3 616.815C1642.9 616.815 1660.9 636.468 1658.17 659.594Z" fill="#FCFCFC" stroke="#5376C1" stroke-width="3" stroke-miterlimit="10"/>
</g>
<g id="Frame 92">
<g id="27" class="piece">
<path id="Vector_29" d="M1748.43 659.47C1750.45 677.156 1764.94 691.279 1782.66 692.927C1790.5 693.654 1797.96 692.006 1804.32 688.586C1805.65 687.859 1806.96 687.097 1808.32 686.424L1821.7 679.831C1825.78 677.811 1830.03 676.819 1834.3 676.819V785.964H1725.28C1725.28 781.711 1726.27 777.475 1728.3 773.399L1736.62 756.511L1738.18 753.374C1740.27 748.661 1741.43 743.468 1741.43 737.992C1741.43 715.433 1721.84 697.446 1698.75 700.122C1681.09 702.142 1666.94 716.638 1665.31 734.342C1664.59 742.21 1666.22 749.635 1669.66 756.015C1670.35 757.344 1671.13 758.655 1671.8 760.002L1678.41 773.399C1680.43 777.475 1681.42 781.711 1681.42 785.964H1572.3V676.819C1576.53 676.819 1580.82 677.811 1584.9 679.831L1598.2 686.406C1599.55 687.062 1600.86 687.824 1602.19 688.55C1608.84 692.148 1616.67 693.796 1624.96 692.839C1642.22 690.783 1656.12 676.837 1658.15 659.612C1660.88 636.468 1642.88 616.833 1620.28 616.833C1614.81 616.833 1609.6 617.985 1604.92 620.076L1601.62 621.706L1584.88 629.982C1580.8 632.002 1576.51 632.994 1572.28 632.994V523.992H1681.4C1681.4 528.227 1680.41 532.515 1678.39 536.591L1671.84 549.9C1671.16 551.247 1670.42 552.558 1669.69 553.887C1666.09 560.533 1664.43 568.365 1665.38 576.659C1667.44 593.919 1681.39 607.813 1698.63 609.851C1721.77 612.58 1741.39 594.575 1741.39 571.98C1741.39 566.505 1740.24 561.295 1738.15 556.616L1736.52 553.32L1728.24 536.574C1726.22 532.498 1725.23 528.209 1725.23 523.974H1834.25V632.977C1830 632.977 1825.73 631.984 1821.65 629.964L1804.76 621.635L1801.63 620.076C1796.91 617.985 1791.72 616.833 1786.24 616.833C1763.68 616.833 1745.71 636.415 1748.37 659.505L1748.43 659.47Z" fill="#FCFCFC" stroke="#5376C1" stroke-width="3" stroke-miterlimit="10"/>
</g>
</g>
<g id="28" class="piece">
<path id="Vector_30" d="M2010.42 659.47C2012.44 677.155 2026.93 691.279 2044.65 692.927C2052.49 693.654 2059.95 692.006 2066.31 688.585C2067.64 687.859 2068.95 687.097 2070.31 686.423L2083.69 679.831C2087.77 677.811 2092.02 676.819 2096.29 676.819V785.963H1987.27C1987.27 790.216 1988.26 794.487 1990.28 798.581L1998.56 815.327L2000.19 818.623C2002.28 823.302 2003.43 828.512 2003.43 833.988C2003.43 856.564 1983.78 874.587 1960.67 871.858C1943.41 869.837 1929.47 855.926 1927.43 838.666C1926.45 830.372 1928.1 822.504 1931.73 815.894C1932.43 814.565 1933.2 813.254 1933.84 811.907L1940.42 798.598C1942.44 794.505 1943.43 790.234 1943.43 785.981H1834.3V676.836C1830.05 676.836 1825.78 677.829 1821.7 679.849L1808.32 686.441C1806.94 687.115 1805.65 687.877 1804.32 688.603C1797.96 692.023 1790.51 693.671 1782.66 692.945C1764.92 691.297 1750.45 677.173 1748.43 659.487C1745.77 636.397 1763.74 616.815 1786.3 616.815C1791.77 616.815 1796.98 617.967 1801.68 620.058L1804.82 621.617L1821.7 629.946C1825.78 631.966 1830.03 632.959 1834.3 632.959V523.956H1943.43C1943.43 528.191 1942.42 532.48 1940.42 536.556L1933.84 549.864C1933.19 551.211 1932.43 552.522 1931.73 553.851C1928.1 560.497 1926.47 568.33 1927.43 576.623C1929.48 593.884 1943.43 607.777 1960.67 609.815C1983.78 612.544 2003.43 594.539 2003.43 571.945C2003.43 566.469 2002.28 561.259 2000.19 556.58L1998.56 553.284L1990.28 536.538C1988.28 532.462 1987.27 528.173 1987.27 523.938H2096.29V632.941C2092.04 632.941 2087.77 631.949 2083.69 629.928L2066.8 621.599L2063.67 620.04C2058.95 617.949 2053.76 616.797 2048.29 616.797C2025.73 616.797 2007.76 636.379 2010.42 659.47Z" fill="#FCFCFC" stroke="#5376C1" stroke-width="3" stroke-miterlimit="10"/>
</g>
<g id="29" class="piece">
<path id="Vector_31" d="M2444.14 659.594C2442.12 676.837 2428.21 690.766 2410.95 692.821C2402.66 693.796 2394.79 692.148 2388.18 688.533C2386.85 687.806 2385.54 687.044 2384.19 686.388L2370.88 679.814C2366.79 677.794 2362.52 676.801 2358.26 676.801V785.946H2249.26C2249.26 781.693 2250.25 777.457 2252.27 773.382L2260.6 756.493L2262.16 753.357C2264.25 748.643 2265.41 743.451 2265.41 737.975C2265.41 715.416 2245.82 697.429 2222.73 700.105C2205.06 702.125 2190.92 716.621 2189.28 734.324C2188.55 742.192 2190.2 749.617 2193.62 755.997C2194.34 757.326 2195.11 758.638 2195.78 759.984L2202.37 773.382C2204.39 777.457 2205.38 781.693 2205.38 785.946H2096.26V676.801C2092 676.801 2087.73 677.794 2083.66 679.814L2070.28 686.406C2068.9 687.08 2067.6 687.842 2066.27 688.568C2059.91 691.988 2052.47 693.636 2044.62 692.91C2026.88 691.262 2012.4 677.138 2010.38 659.452C2007.72 636.362 2025.69 616.78 2048.25 616.78C2053.73 616.78 2058.94 617.932 2063.63 620.023L2066.77 621.582L2083.66 629.911C2087.73 631.931 2091.99 632.924 2096.26 632.924V523.921H2205.38C2205.38 519.668 2204.39 515.397 2202.37 511.321L2195.78 497.941C2195.11 496.559 2194.34 495.266 2193.62 493.937C2190.2 487.575 2188.55 480.149 2189.28 472.281C2190.92 454.542 2205.06 440.064 2222.73 438.044C2245.82 435.386 2265.41 453.355 2265.41 475.914C2265.41 481.39 2264.25 486.6 2262.16 491.296L2260.6 494.433L2252.27 511.321C2250.25 515.397 2249.26 519.65 2249.26 523.921H2358.26V632.924C2362.52 632.924 2366.79 631.931 2370.88 629.911L2387.63 621.635L2390.92 620.005C2395.6 617.914 2400.81 616.762 2406.29 616.762C2428.88 616.762 2446.89 636.415 2444.16 659.541L2444.14 659.594Z" fill="#FCFCFC" stroke="#5376C1" stroke-width="3" stroke-miterlimit="10"/>
</g>
<g id="30" class="piece">
<path id="Vector_32" d="M2620.26 785.946H2525.39C2525.39 790.181 2526.39 794.434 2528.41 798.51L2536.68 815.257L2538.31 818.553C2540.4 823.231 2541.56 828.441 2541.56 833.917C2541.56 856.512 2521.9 874.516 2498.78 871.787C2481.53 869.767 2467.57 855.856 2465.55 838.631C2464.56 830.32 2466.22 822.469 2469.84 815.824C2470.56 814.495 2471.31 813.183 2471.98 811.836L2478.56 798.528C2480.58 794.452 2481.57 790.199 2481.57 785.964H2358.28V676.819C2362.54 676.819 2366.81 677.811 2370.9 679.831L2384.21 686.406C2385.56 687.062 2386.87 687.824 2388.2 688.55C2394.82 692.148 2402.67 693.796 2410.97 692.839C2428.23 690.783 2442.12 676.837 2444.16 659.612C2446.89 636.468 2428.88 616.833 2406.29 616.833C2400.81 616.833 2395.6 617.985 2390.93 620.076L2387.63 621.706L2370.88 629.982C2366.79 632.002 2362.52 632.994 2358.27 632.994V523.992H2481.55C2481.55 528.245 2480.56 532.462 2478.54 536.556L2471.96 549.864C2471.29 551.211 2470.55 552.523 2469.82 553.834C2466.22 560.479 2464.56 568.312 2465.53 576.641C2467.55 593.884 2481.53 607.777 2498.76 609.797C2521.9 612.526 2541.54 594.522 2541.54 571.945C2541.54 566.469 2540.39 561.259 2538.29 556.581L2536.66 553.285L2528.39 536.538C2526.37 532.445 2525.38 528.227 2525.38 523.974H2620.24V785.964L2620.26 785.946Z" fill="#FCFCFC" stroke="#5376C1" stroke-width="3" stroke-miterlimit="10"/>
</g>
</g>
<g id="Row 4">
<g id="31" class="piece">
<path id="Vector_33" d="M348.224 921.654C346.203 938.915 332.292 952.861 315.067 954.899C306.756 955.874 298.906 954.226 292.26 950.611C290.931 949.884 289.62 949.122 288.273 948.467L274.982 941.892C270.888 939.872 266.618 938.879 262.364 938.879V1048.01H153.362C153.362 1043.77 154.372 1039.52 156.374 1035.46L164.703 1018.57L166.263 1015.43C168.354 1010.72 169.506 1005.53 169.506 1000.05C169.506 977.494 149.906 959.507 126.815 962.165C109.147 964.221 95.0058 978.699 93.3755 996.402C92.6489 1004.27 94.2969 1011.7 97.7171 1018.06C98.4437 1019.4 99.188 1020.72 99.8614 1022.06L106.489 1035.46C108.492 1039.52 109.502 1043.77 109.502 1048.01H0.357056V786.034H109.502C109.502 790.287 108.492 794.523 106.489 798.634L99.9146 811.943C99.2412 813.289 98.4969 814.601 97.7703 815.93C94.1729 822.558 92.5071 830.408 93.4818 838.702C95.502 855.962 109.484 869.855 126.709 871.893C149.853 874.622 169.488 856.618 169.488 834.023C169.488 828.547 168.336 823.337 166.245 818.659L164.615 815.363L156.339 798.616C154.336 794.523 153.326 790.287 153.326 786.017H262.329V895.02C266.582 895.02 270.853 894.027 274.947 892.007L291.693 883.731L294.989 882.101C299.668 880.01 304.878 878.858 310.353 878.858C332.93 878.858 350.935 898.511 348.206 921.619L348.224 921.654Z" fill="#FCFCFC" stroke="#5376C1" stroke-width="3" stroke-miterlimit="10"/>
</g>
<g id="32" class="piece">
<path id="Vector_34" d="M438.478 921.549C440.498 939.217 455.012 953.358 472.715 955.006C480.583 955.733 488.008 954.085 494.37 950.664C495.699 949.938 497.029 949.176 498.375 948.502L511.755 941.91C515.831 939.908 520.084 938.898 524.355 938.898V1048.02H415.334C415.316 1052.28 416.326 1056.57 418.347 1060.66L426.622 1077.41L428.253 1080.7C430.344 1085.38 431.496 1090.59 431.496 1096.07C431.496 1118.64 411.878 1136.65 388.734 1133.94C371.492 1131.92 357.528 1117.99 355.507 1100.74C354.515 1092.43 356.181 1084.58 359.796 1077.94C360.522 1076.63 361.267 1075.33 361.94 1073.97L368.497 1060.66C370.517 1056.57 371.545 1052.28 371.51 1048.02H262.383V938.898C266.636 938.898 270.906 939.89 275 941.91L288.291 948.485C289.638 949.14 290.949 949.902 292.278 950.629C298.924 954.226 306.756 955.874 315.085 954.917C332.328 952.862 346.221 938.915 348.242 921.672C350.971 898.564 332.966 878.911 310.389 878.911C304.913 878.911 299.703 880.063 295.025 882.154L291.729 883.785L274.982 892.06C270.889 894.081 266.618 895.073 262.365 895.073V786.07H371.492C371.492 781.817 370.482 777.546 368.479 773.47L361.887 760.091C361.214 758.709 360.469 757.415 359.743 756.086C356.323 749.724 354.674 742.281 355.401 734.431C357.031 716.692 371.173 702.214 388.841 700.193C411.932 697.535 431.513 715.504 431.513 738.064C431.513 743.539 430.362 748.749 428.27 753.445L426.711 756.582L418.382 773.47C416.38 777.546 415.369 781.799 415.369 786.07H524.39V895.073C520.137 895.073 515.866 894.063 511.79 892.06L494.902 883.732L491.765 882.172C487.052 880.081 481.859 878.929 476.383 878.929C453.824 878.929 435.855 898.511 438.513 921.602L438.478 921.549Z" fill="#FCFCFC" stroke="#5376C1" stroke-width="3" stroke-miterlimit="10"/>
</g>
<g id="33" class="piece">
<path id="Vector_35" d="M700.467 921.548C702.487 939.216 717.001 953.358 734.704 955.006C742.573 955.732 749.998 954.084 756.36 950.664C757.689 949.938 759.018 949.176 760.365 948.502L773.744 941.91C777.82 939.908 782.073 938.897 786.344 938.897V1048.02H677.323C677.323 1043.79 678.316 1039.54 680.336 1035.48L688.665 1018.59L690.224 1015.45C692.315 1010.74 693.467 1005.55 693.467 1000.07C693.467 977.512 673.885 959.525 650.795 962.183C633.127 964.239 618.985 978.717 617.355 996.42C616.628 1004.29 618.276 1011.71 621.697 1018.08C622.423 1019.42 623.167 1020.73 623.841 1022.08L630.433 1035.48C632.453 1039.54 633.446 1043.79 633.446 1048.02H524.319V938.897C520.066 938.897 515.795 939.908 511.719 941.91L498.34 948.502C496.993 949.176 495.664 949.938 494.335 950.664C487.973 954.084 480.548 955.732 472.679 955.006C454.976 953.358 440.462 939.216 438.442 921.548C435.784 898.458 453.753 878.876 476.312 878.876C481.788 878.876 486.998 880.028 491.694 882.119L494.831 883.678L511.719 892.007C515.795 894.01 520.048 895.02 524.319 895.02V786.017H633.446C633.446 781.764 632.453 777.493 630.433 773.417L623.841 760.038C623.167 758.655 622.423 757.362 621.697 756.033C618.276 749.671 616.628 742.228 617.355 734.377C618.985 716.638 633.127 702.16 650.795 700.14C673.885 697.482 693.467 715.451 693.467 738.01C693.467 743.486 692.315 748.696 690.224 753.392L688.665 756.529L680.336 773.417C678.316 777.493 677.323 781.746 677.323 786.017H786.344V895.02C782.091 895.02 777.82 894.01 773.744 892.007L756.856 883.678L753.719 882.119C749.005 880.028 743.813 878.876 738.337 878.876C715.778 878.876 697.809 898.458 700.467 921.548Z" fill="#FCFCFC" stroke="#5376C1" stroke-width="3" stroke-miterlimit="10"/>
</g>
<g id="34" class="piece">
<path id="Vector_36" d="M1134.19 921.655C1132.17 938.915 1118.26 952.861 1101.04 954.899C1092.72 955.874 1084.87 954.226 1078.23 950.611C1076.9 949.884 1075.59 949.122 1074.24 948.467L1060.93 941.892C1056.86 939.89 1052.57 938.879 1048.33 938.879V1048.01H939.312C939.312 1043.77 940.322 1039.52 942.325 1035.46L950.654 1018.57L952.213 1015.43C954.304 1010.72 955.456 1005.53 955.456 1000.05C955.456 977.494 935.874 959.507 912.784 962.165C895.116 964.221 880.974 978.699 879.344 996.402C878.617 1004.27 880.265 1011.7 883.686 1018.06C884.412 1019.4 885.156 1020.72 885.83 1022.06L892.422 1035.46C894.425 1039.52 895.435 1043.77 895.435 1048.01H786.308V938.879C782.055 938.879 777.784 939.89 773.708 941.892L760.329 948.484C758.982 949.158 757.653 949.92 756.324 950.646C749.962 954.067 742.536 955.715 734.668 954.988C716.965 953.34 702.451 939.198 700.431 921.53C697.773 898.44 715.742 878.858 738.301 878.858C743.777 878.858 748.987 880.01 753.683 882.101L756.82 883.66L773.708 891.989C777.784 893.992 782.037 895.002 786.308 895.002V785.999H895.435C895.435 790.252 894.425 794.487 892.422 798.599L885.865 811.907C885.192 813.254 884.448 814.565 883.721 815.895C880.124 822.522 878.458 830.373 879.432 838.666C881.453 855.927 895.435 869.82 912.66 871.858C935.803 874.587 955.421 856.582 955.421 833.988C955.421 828.512 954.269 823.302 952.178 818.624L950.547 815.328L942.272 798.581C940.269 794.487 939.259 790.252 939.259 785.981H1048.28V894.984C1052.52 894.984 1056.8 893.974 1060.88 891.972L1077.63 883.696L1080.92 882.065C1085.6 879.974 1090.81 878.822 1096.29 878.822C1118.88 878.822 1136.89 898.475 1134.16 921.584L1134.19 921.655Z" fill="#FCFCFC" stroke="#5376C1" stroke-width="3" stroke-miterlimit="10"/>
</g>
<g id="35" class="piece">
<path id="Vector_37" d="M1224.45 921.548C1226.47 939.216 1240.98 953.358 1258.68 955.006C1266.55 955.732 1273.98 954.084 1280.34 950.664C1281.67 949.937 1282.98 949.175 1284.34 948.502L1297.72 941.91C1301.8 939.907 1306.05 938.897 1310.32 938.897V1048.02H1201.3C1201.29 1052.28 1202.3 1056.57 1204.32 1060.66L1212.59 1077.41L1214.22 1080.7C1216.31 1085.38 1217.46 1090.59 1217.46 1096.07C1217.46 1118.64 1197.85 1136.65 1174.7 1133.94C1157.44 1131.92 1143.5 1117.99 1141.48 1100.74C1140.48 1092.43 1142.15 1084.58 1145.77 1077.94C1146.49 1076.63 1147.24 1075.33 1147.91 1073.97L1154.47 1060.66C1156.49 1056.57 1157.51 1052.28 1157.48 1048.02H1048.35V938.897C1052.59 938.897 1056.88 939.907 1060.95 941.91L1074.26 948.484C1075.61 949.14 1076.92 949.902 1078.25 950.629C1084.89 954.226 1092.73 955.874 1101.05 954.917C1118.3 952.861 1132.19 938.915 1134.21 921.672C1136.94 898.564 1118.94 878.911 1096.34 878.911C1090.86 878.911 1085.65 880.063 1080.98 882.154L1077.68 883.784L1060.93 892.06C1056.86 894.063 1052.57 895.073 1048.33 895.073V786.07H1157.46C1157.46 790.323 1156.47 794.558 1154.45 798.67L1147.89 811.978C1147.22 813.325 1146.47 814.636 1145.75 815.965C1142.15 822.593 1140.48 830.444 1141.46 838.737C1143.48 855.998 1157.43 869.891 1174.69 871.929C1197.83 874.658 1217.45 856.653 1217.45 834.059C1217.45 828.583 1216.3 823.373 1214.2 818.694L1212.57 815.398L1204.3 798.652C1202.28 794.558 1201.29 790.323 1201.29 786.052H1310.31V895.055C1306.05 895.055 1301.78 894.045 1297.71 892.042L1280.82 883.713L1277.68 882.154C1272.97 880.063 1267.78 878.911 1262.3 878.911C1239.74 878.911 1221.77 898.493 1224.43 921.584L1224.45 921.548Z" fill="#FCFCFC" stroke="#5376C1" stroke-width="3" stroke-miterlimit="10"/>
</g>
<g id="Frame 94">
<g id="36" class="piece">
<path id="Vector_38" d="M1658.17 921.655C1656.15 938.915 1642.24 952.862 1624.98 954.9C1616.69 955.874 1608.85 954.226 1602.21 950.611C1600.88 949.884 1599.57 949.122 1598.22 948.467L1584.91 941.892C1580.84 939.89 1576.55 938.88 1572.31 938.88V1048.01H1463.29C1463.27 1052.26 1464.28 1056.55 1466.3 1060.64L1474.58 1077.39L1476.21 1080.68C1478.3 1085.36 1479.45 1090.57 1479.45 1096.05C1479.45 1118.63 1459.84 1136.63 1436.69 1133.92C1419.43 1131.9 1405.49 1117.97 1403.46 1100.73C1402.47 1092.42 1404.14 1084.57 1407.75 1077.92C1408.48 1076.61 1409.22 1075.31 1409.9 1073.95L1416.45 1060.64C1418.47 1056.55 1419.5 1052.26 1419.47 1048.01H1310.34V938.88C1306.09 938.88 1301.82 939.89 1297.74 941.892L1284.36 948.484C1282.98 949.158 1281.69 949.92 1280.36 950.647C1273.99 954.067 1266.57 955.715 1258.7 954.988C1241 953.34 1226.48 939.199 1224.46 921.531C1221.81 898.44 1239.77 878.858 1262.33 878.858C1267.81 878.858 1273.02 880.01 1277.72 882.101L1280.85 883.661L1297.74 891.989C1301.82 893.992 1306.07 895.002 1310.34 895.002V785.999H1419.47C1419.47 781.746 1418.46 777.475 1416.45 773.399L1409.86 760.02C1409.19 758.638 1408.44 757.344 1407.72 756.015C1404.26 749.653 1402.65 742.21 1403.38 734.36C1405.01 716.621 1419.15 702.143 1436.82 700.122C1459.91 697.464 1479.49 715.433 1479.49 737.993C1479.49 743.468 1478.34 748.678 1476.25 753.374L1474.69 756.511L1466.36 773.399C1464.35 777.475 1463.34 781.728 1463.34 785.999H1572.37V895.002C1576.6 895.002 1580.89 893.992 1584.97 891.989L1601.71 883.714L1605.01 882.083C1609.69 879.992 1614.9 878.84 1620.37 878.84C1642.97 878.84 1660.97 898.493 1658.24 921.601L1658.17 921.655Z" fill="#FCFCFC" stroke="#5376C1" stroke-width="3" stroke-miterlimit="10"/>
</g>
</g>
<g id="37" class="piece">
<path id="Vector_39" d="M1920.16 921.655C1918.14 938.915 1904.23 952.862 1886.97 954.899C1878.68 955.874 1870.84 954.226 1864.2 950.611C1862.87 949.884 1861.56 949.122 1860.21 948.467L1846.9 941.892C1842.81 939.89 1838.57 938.88 1834.3 938.88V1048.01H1725.28C1725.28 1043.77 1726.27 1039.52 1728.29 1035.46L1736.62 1018.57L1738.18 1015.44C1740.27 1010.72 1741.43 1005.53 1741.43 1000.05C1741.43 977.494 1721.84 959.507 1698.75 962.165C1681.09 964.221 1666.94 978.699 1665.31 996.402C1664.59 1004.27 1666.22 1011.7 1669.66 1018.06C1670.35 1019.4 1671.13 1020.72 1671.8 1022.06L1678.41 1035.46C1680.43 1039.52 1681.42 1043.77 1681.42 1048.01H1572.3V938.88C1576.53 938.88 1580.82 939.89 1584.89 941.892L1598.2 948.467C1599.55 949.122 1600.86 949.884 1602.19 950.611C1608.84 954.208 1616.67 955.856 1624.96 954.899C1642.22 952.844 1656.12 938.897 1658.15 921.655C1660.88 898.546 1642.88 878.893 1620.28 878.893C1614.81 878.893 1609.6 880.045 1604.92 882.136L1601.62 883.767L1584.88 892.043C1580.8 894.045 1576.51 895.055 1572.28 895.055V786.052H1681.4C1681.4 781.799 1680.41 777.528 1678.39 773.453L1671.78 760.073C1671.11 758.691 1670.35 757.397 1669.64 756.068C1666.18 749.706 1664.57 742.263 1665.3 734.413C1666.93 716.674 1681.07 702.196 1698.74 700.175C1721.83 697.517 1741.41 715.487 1741.41 738.046C1741.41 743.521 1740.26 748.731 1738.17 753.428L1736.61 756.564L1728.28 773.453C1726.26 777.528 1725.26 781.781 1725.26 786.052H1834.28V895.055C1838.54 895.055 1842.77 894.045 1846.88 892.043L1863.63 883.767L1866.93 882.136C1871.61 880.045 1876.82 878.893 1882.29 878.893C1904.89 878.893 1922.89 898.546 1920.16 921.655Z" fill="#FCFCFC" stroke="#5376C1" stroke-width="3" stroke-miterlimit="10"/>
</g>
<g id="38" class="piece">
<path id="Vector_40" d="M2010.42 921.548C2012.44 939.216 2026.93 953.358 2044.65 955.006C2052.49 955.732 2059.95 954.084 2066.31 950.664C2067.64 949.938 2068.95 949.176 2070.31 948.502L2083.69 941.91C2087.77 939.907 2092.02 938.897 2096.29 938.897V1048.02H1987.27C1987.27 1043.79 1988.28 1039.54 1990.28 1035.48L1998.61 1018.59L2000.17 1015.45C2002.26 1010.74 2003.42 1005.55 2003.42 1000.07C2003.42 977.512 1983.83 959.525 1960.74 962.183C1943.08 964.239 1928.93 978.717 1927.3 996.42C1926.56 1004.29 1928.21 1011.71 1931.64 1018.08C1932.34 1019.42 1933.12 1020.73 1933.79 1022.08L1940.38 1035.48C1942.38 1039.54 1943.39 1043.79 1943.39 1048.02H1834.27V938.897C1838.52 938.897 1842.76 939.907 1846.87 941.91L1860.18 948.484C1861.52 949.14 1862.83 949.902 1864.16 950.629C1870.81 954.226 1878.64 955.874 1886.93 954.917C1904.19 952.862 1918.09 938.915 1920.13 921.672C1922.86 898.564 1904.85 878.911 1882.26 878.911C1876.78 878.911 1871.57 880.063 1866.89 882.154L1863.6 883.784L1846.85 892.06C1842.76 894.063 1838.52 895.073 1834.25 895.073V786.07H1943.38C1943.38 790.323 1942.37 794.558 1940.36 798.67L1933.79 811.978C1933.13 813.325 1932.37 814.636 1931.68 815.966C1928.05 822.593 1926.42 830.444 1927.37 838.737C1929.43 855.998 1943.38 869.891 1960.62 871.929C1983.73 874.658 2003.38 856.653 2003.38 834.059C2003.38 828.583 2002.23 823.373 2000.14 818.695L1998.51 815.398L1990.23 798.652C1988.23 794.558 1987.22 790.323 1987.22 786.052H2096.24V895.055C2091.99 895.055 2087.72 894.045 2083.64 892.043L2066.75 883.714L2063.61 882.154C2058.9 880.063 2053.71 878.911 2048.23 878.911C2025.67 878.911 2007.7 898.493 2010.36 921.584L2010.42 921.548Z" fill="#FCFCFC" stroke="#5376C1" stroke-width="3" stroke-miterlimit="10"/>
</g>
<g id="39" class="piece">
<path id="Vector_41" d="M2272.41 921.548C2274.43 939.216 2288.92 953.358 2306.62 955.006C2314.49 955.732 2321.92 954.084 2328.3 950.664C2329.63 949.938 2330.94 949.176 2332.29 948.502L2345.68 941.91C2349.76 939.907 2353.99 938.897 2358.25 938.897V1048.02H2249.24C2249.23 1052.28 2250.24 1056.57 2252.26 1060.66L2260.53 1077.41L2262.16 1080.7C2264.25 1085.38 2265.41 1090.59 2265.41 1096.07C2265.41 1118.64 2245.75 1136.65 2222.64 1133.94C2205.38 1131.92 2191.44 1117.99 2189.4 1100.74C2188.42 1092.43 2190.07 1084.58 2193.69 1077.94C2194.41 1076.63 2195.18 1075.33 2195.83 1073.97L2202.41 1060.66C2204.43 1056.57 2205.45 1052.28 2205.42 1048.02H2096.29V938.897C2092.04 938.897 2087.77 939.907 2083.69 941.91L2070.31 948.502C2068.93 949.176 2067.64 949.938 2066.31 950.664C2059.95 954.084 2052.5 955.732 2044.65 955.006C2026.91 953.358 2012.44 939.216 2010.42 921.548C2007.76 898.458 2025.73 878.876 2048.29 878.876C2053.76 878.876 2058.97 880.028 2063.67 882.119L2066.8 883.678L2083.69 892.007C2087.77 894.01 2092.02 895.02 2096.29 895.02V786.017H2205.42C2205.42 781.764 2204.43 777.493 2202.41 773.417L2195.81 760.038C2195.14 758.655 2194.38 757.362 2193.65 756.033C2190.23 749.671 2188.58 742.228 2189.31 734.377C2190.96 716.638 2205.1 702.16 2222.77 700.14C2245.86 697.482 2265.44 715.451 2265.44 738.01C2265.44 743.486 2264.29 748.696 2262.2 753.392L2260.64 756.529L2252.31 773.417C2250.29 777.493 2249.3 781.746 2249.3 786.017H2358.3V895.02C2354.05 895.02 2349.81 894.01 2345.74 892.007L2328.85 883.678L2325.71 882.119C2321 880.028 2315.8 878.876 2310.33 878.876C2287.77 878.876 2269.78 898.458 2272.46 921.548H2272.41Z" fill="#FCFCFC" stroke="#5376C1" stroke-width="3" stroke-miterlimit="10"/>
</g>
<g id="40" class="piece">
<path id="Vector_42" d="M2620.25 786.052V1048.02H2525.39C2525.39 1043.77 2526.39 1039.5 2528.41 1035.42L2536.73 1018.54L2538.29 1015.4C2540.39 1010.69 2541.54 1005.49 2541.54 1000.02C2541.54 977.459 2521.96 959.489 2498.86 962.147C2481.18 964.168 2467.04 978.664 2465.41 996.385C2464.68 1004.25 2466.33 1011.68 2469.75 1018.04C2470.48 1019.37 2471.24 1020.68 2471.89 1022.04L2478.52 1035.42C2480.54 1039.5 2481.53 1043.75 2481.53 1048.02H2358.25V938.897C2353.99 938.897 2349.76 939.907 2345.68 941.91L2332.29 948.502C2330.94 949.176 2329.63 949.938 2328.3 950.664C2321.92 954.084 2314.49 955.732 2306.63 955.006C2288.92 953.358 2274.43 939.216 2272.41 921.548C2269.73 898.458 2287.72 878.876 2310.28 878.876C2315.75 878.876 2320.96 880.028 2325.66 882.119L2328.79 883.678L2345.68 892.007C2349.76 894.01 2353.99 895.02 2358.25 895.02V786.017H2481.53C2481.53 790.252 2480.54 794.488 2478.52 798.563L2471.95 811.872C2471.27 813.219 2470.53 814.53 2469.8 815.859C2466.2 822.505 2464.54 830.337 2465.51 838.666C2467.53 855.909 2481.52 869.802 2498.74 871.823C2521.88 874.552 2541.52 856.547 2541.52 833.952C2541.52 828.477 2540.37 823.267 2538.28 818.588L2536.65 815.292L2528.37 798.546C2526.35 794.47 2525.36 790.234 2525.36 785.999H2620.22L2620.25 786.052Z" fill="#FCFCFC" stroke="#5376C1" stroke-width="3" stroke-miterlimit="10"/>
</g>
</g>
<g id="Row 5">
<g id="41" class="piece">
<path id="Vector_43" d="M176.488 1183.66C178.544 1201.35 193.022 1215.49 210.725 1217.12C218.593 1217.85 226.019 1216.2 232.38 1212.78C233.71 1212.05 235.039 1211.29 236.385 1210.63L249.783 1204.01C253.859 1202 258.094 1200.99 262.347 1200.99V1310.14H0.357239V1048.15H109.502C109.502 1043.89 108.492 1039.62 106.489 1035.55L99.8616 1022.17C99.1882 1020.82 98.4439 1019.49 97.7173 1018.16C94.2971 1011.8 92.6491 1004.38 93.3756 996.508C95.006 978.805 109.147 964.291 126.815 962.271C149.906 959.612 169.506 977.582 169.506 1000.14C169.506 1005.62 168.354 1010.83 166.263 1015.52L164.703 1018.66L156.374 1035.55C154.372 1039.62 153.362 1043.88 153.362 1048.15H262.365V1157.15C258.112 1157.15 253.876 1156.14 249.8 1154.14L232.912 1145.81L229.775 1144.25C225.062 1142.16 219.869 1141.01 214.393 1141.01C191.817 1141.01 173.847 1160.61 176.506 1183.68L176.488 1183.66Z" fill="#FCFCFC" stroke="#5376C1" stroke-width="3" stroke-miterlimit="10"/>
</g>
<g id="42" class="piece">
<path id="Vector_44" d="M610.213 1183.77C608.193 1201.01 594.282 1214.98 577.057 1217C568.746 1217.99 560.895 1216.32 554.25 1212.71C552.921 1211.98 551.609 1211.24 550.262 1210.56L536.954 1203.99C532.878 1201.99 528.589 1200.98 524.354 1200.98V1310.12H262.364V1200.98C258.111 1200.98 253.876 1201.99 249.8 1203.99L236.403 1210.62C235.056 1211.27 233.727 1212.03 232.398 1212.76C226.036 1216.18 218.611 1217.83 210.743 1217.1C193.039 1215.47 178.543 1201.33 176.505 1183.64C173.847 1160.57 191.816 1140.97 214.393 1140.97C219.869 1140.97 225.079 1142.12 229.775 1144.21L232.912 1145.77L249.8 1154.1C253.876 1156.11 258.111 1157.12 262.364 1157.12V1048.11H371.491C371.491 1052.37 370.481 1056.6 368.479 1060.71L361.922 1074.02C361.248 1075.37 360.504 1076.68 359.778 1078.01C356.18 1084.65 354.514 1092.49 355.489 1100.82C357.509 1118.06 371.491 1131.95 388.716 1133.97C411.86 1136.7 431.477 1118.7 431.477 1096.1C431.477 1090.63 430.326 1085.42 428.234 1080.74L426.604 1077.44L418.328 1060.69C416.326 1056.6 415.316 1052.37 415.316 1048.09H524.336V1157.1C528.572 1157.1 532.86 1156.09 536.936 1154.09L553.683 1145.81L556.979 1144.18C561.657 1142.09 566.867 1140.94 572.343 1140.94C594.937 1140.94 612.942 1160.59 610.213 1183.71V1183.77Z" fill="#FCFCFC" stroke="#5376C1" stroke-width="3" stroke-miterlimit="10"/>
</g>
<g id="43" class="piece">
<path id="Vector_45" d="M872.203 1183.77C870.183 1201.01 856.272 1214.97 839.047 1217C830.736 1217.99 822.885 1216.32 816.24 1212.71C814.911 1211.98 813.599 1211.24 812.253 1210.56L798.944 1203.99C794.85 1201.99 790.615 1200.98 786.344 1200.98V1310.12H524.355V1200.98C528.59 1200.98 532.878 1201.99 536.954 1203.99L550.263 1210.56C551.61 1211.24 552.921 1211.98 554.25 1212.71C560.896 1216.3 568.728 1217.97 577.057 1217C594.3 1214.97 608.193 1200.99 610.214 1183.77C612.943 1160.62 594.938 1140.99 572.343 1140.99C566.868 1140.99 561.658 1142.14 556.979 1144.23L553.683 1145.86L536.937 1154.14C532.861 1156.14 528.572 1157.15 524.337 1157.15V1048.15H633.464C633.464 1043.89 632.471 1039.62 630.451 1035.55L623.859 1022.17C623.186 1020.82 622.441 1019.49 621.715 1018.16C618.294 1011.8 616.646 1004.38 617.373 996.508C619.003 978.805 633.145 964.291 650.813 962.271C673.903 959.613 693.485 977.582 693.485 1000.14C693.485 1005.62 692.333 1010.83 690.242 1015.52L688.683 1018.66L680.354 1035.55C678.334 1039.62 677.341 1043.88 677.341 1048.15H786.362V1157.15C790.615 1157.15 794.85 1156.14 798.962 1154.14L815.708 1145.86L819.004 1144.23C823.683 1142.14 828.893 1140.99 834.369 1140.99C856.963 1140.99 874.968 1160.64 872.239 1183.77H872.203Z" fill="#FCFCFC" stroke="#5376C1" stroke-width="3" stroke-miterlimit="10"/>
</g>
<g id="44" class="piece">
<path id="Vector_46" d="M962.457 1183.66C964.477 1201.35 978.991 1215.49 996.694 1217.12C1004.56 1217.84 1011.99 1216.2 1018.35 1212.78C1019.68 1212.05 1020.99 1211.29 1022.35 1210.63L1035.73 1204C1039.81 1202 1044.06 1200.99 1048.33 1200.99V1310.14H786.344V1200.99C790.597 1200.99 794.832 1202 798.944 1204L812.252 1210.58C813.599 1211.25 814.911 1212 816.24 1212.72C822.885 1216.32 830.718 1217.99 839.047 1217.01C856.289 1214.99 870.183 1201.01 872.203 1183.78C874.932 1160.64 856.927 1141.01 834.333 1141.01C828.857 1141.01 823.647 1142.16 818.969 1144.25L815.673 1145.88L798.926 1154.16C794.832 1156.16 790.597 1157.17 786.326 1157.17V1048.16H895.453C895.453 1043.91 894.443 1039.64 892.441 1035.57L885.848 1022.19C885.175 1020.84 884.431 1019.51 883.704 1018.18C880.284 1011.82 878.636 1004.39 879.362 996.525C880.993 978.822 895.134 964.308 912.802 962.288C935.893 959.63 955.475 977.599 955.475 1000.16C955.475 1005.63 954.323 1010.84 952.232 1015.54L950.672 1018.68L942.343 1035.57C940.341 1039.64 939.331 1043.89 939.331 1048.16H1048.35V1157.17C1044.1 1157.17 1039.83 1156.16 1035.75 1154.16L1018.86 1145.83L1015.73 1144.27C1011.01 1142.18 1005.82 1141.02 1000.34 1141.02C977.786 1141.02 959.817 1160.62 962.475 1183.7L962.457 1183.66Z" fill="#FCFCFC" stroke="#5376C1" stroke-width="3" stroke-miterlimit="10"/>
</g>
<g id="45" class="piece">
<path id="Vector_47" d="M1224.45 1183.66C1226.47 1201.35 1240.98 1215.49 1258.68 1217.12C1266.55 1217.85 1273.98 1216.2 1280.34 1212.78C1281.67 1212.05 1282.98 1211.29 1284.34 1210.63L1297.72 1204.01C1301.8 1202 1306.05 1200.99 1310.32 1200.99V1310.14H1048.33V1200.99C1044.08 1200.99 1039.81 1202 1035.73 1204.01L1022.35 1210.63C1020.97 1211.29 1019.68 1212.05 1018.35 1212.78C1011.99 1216.2 1004.56 1217.85 996.694 1217.12C978.991 1215.49 964.477 1201.35 962.457 1183.66C959.799 1160.59 977.768 1140.99 1000.33 1140.99C1005.8 1140.99 1011.01 1142.14 1015.71 1144.23L1018.85 1145.79L1035.73 1154.12C1039.81 1156.12 1044.06 1157.13 1048.33 1157.13V1048.13H1157.46C1157.46 1052.38 1156.47 1056.62 1154.45 1060.73L1147.89 1074.04C1147.22 1075.39 1146.47 1076.7 1145.75 1078.03C1142.15 1084.67 1140.48 1092.5 1141.46 1100.83C1143.48 1118.08 1157.42 1131.97 1174.69 1133.99C1197.83 1136.72 1217.45 1118.71 1217.45 1096.12C1217.45 1090.64 1216.29 1085.43 1214.2 1080.75L1212.57 1077.46L1204.3 1060.71C1202.28 1056.62 1201.28 1052.38 1201.28 1048.11H1310.31V1157.12C1306.05 1157.12 1301.78 1156.1 1297.71 1154.1L1280.82 1145.77L1277.68 1144.21C1272.97 1142.12 1267.77 1140.97 1262.3 1140.97C1239.74 1140.97 1221.77 1160.57 1224.43 1183.64L1224.45 1183.66Z" fill="#FCFCFC" stroke="#5376C1" stroke-width="3" stroke-miterlimit="10"/>
</g>
<g id="46" class="piece">
<path id="Vector_48" d="M1658.17 1183.77C1656.15 1201.01 1642.24 1214.98 1624.98 1217C1616.69 1217.99 1608.85 1216.32 1602.21 1212.71C1600.88 1211.98 1599.57 1211.24 1598.22 1210.56L1584.91 1203.99C1580.84 1201.99 1576.55 1200.98 1572.31 1200.98V1310.12H1310.32V1200.98C1306.07 1200.98 1301.8 1201.99 1297.72 1203.99L1284.34 1210.62C1282.96 1211.27 1281.67 1212.03 1280.34 1212.76C1273.98 1216.18 1266.55 1217.83 1258.68 1217.1C1240.98 1215.47 1226.47 1201.33 1224.45 1183.64C1221.79 1160.57 1239.76 1140.97 1262.32 1140.97C1267.79 1140.97 1273 1142.12 1277.7 1144.21L1280.84 1145.77L1297.72 1154.1C1301.8 1156.11 1306.05 1157.12 1310.32 1157.12V1048.11H1419.45C1419.45 1052.37 1418.44 1056.6 1416.44 1060.71L1409.88 1074.02C1409.21 1075.37 1408.46 1076.68 1407.74 1078.01C1404.14 1084.65 1402.47 1092.49 1403.45 1100.82C1405.47 1118.06 1419.42 1131.95 1436.68 1133.97C1459.82 1136.7 1479.44 1118.7 1479.44 1096.1C1479.44 1090.63 1478.29 1085.42 1476.19 1080.74L1474.56 1077.44L1466.29 1060.69C1464.29 1056.6 1463.28 1052.37 1463.28 1048.09H1572.3V1157.1C1576.53 1157.1 1580.82 1156.09 1584.9 1154.09L1601.64 1145.81L1604.94 1144.18C1609.62 1142.09 1614.83 1140.94 1620.3 1140.94C1642.9 1140.94 1660.9 1160.59 1658.17 1183.71V1183.77Z" fill="#FCFCFC" stroke="#5376C1" stroke-width="3" stroke-miterlimit="10"/>
</g>
<g id="47" class="piece">
<path id="Vector_49" d="M1920.16 1183.77C1918.14 1201.01 1904.23 1214.97 1886.97 1217C1878.68 1217.99 1870.84 1216.32 1864.2 1212.71C1862.87 1211.98 1861.56 1211.24 1860.21 1210.56L1846.9 1203.99C1842.81 1201.99 1838.57 1200.98 1834.3 1200.98V1310.12H1572.31V1200.98C1576.55 1200.98 1580.84 1201.99 1584.91 1203.99L1598.22 1210.56C1599.57 1211.24 1600.88 1211.98 1602.21 1212.71C1608.85 1216.3 1616.69 1217.97 1624.98 1217C1642.24 1214.97 1656.13 1200.99 1658.17 1183.77C1660.9 1160.62 1642.9 1140.99 1620.3 1140.99C1614.83 1140.99 1609.62 1142.14 1604.94 1144.23L1601.64 1145.86L1584.9 1154.14C1580.82 1156.14 1576.53 1157.15 1572.3 1157.15V1048.15H1681.42C1681.42 1043.89 1680.43 1039.62 1678.41 1035.55L1671.8 1022.17C1671.13 1020.82 1670.36 1019.49 1669.66 1018.16C1666.2 1011.8 1664.59 1004.38 1665.31 996.508C1666.94 978.805 1681.09 964.291 1698.75 962.271C1721.84 959.613 1741.43 977.582 1741.43 1000.14C1741.43 1005.62 1740.27 1010.83 1738.18 1015.52L1736.62 1018.66L1728.29 1035.55C1726.27 1039.62 1725.28 1043.88 1725.28 1048.15H1834.3V1157.15C1838.56 1157.15 1842.79 1156.14 1846.9 1154.14L1863.65 1145.86L1866.95 1144.23C1871.62 1142.14 1876.83 1140.99 1882.31 1140.99C1904.9 1140.99 1922.91 1160.64 1920.18 1183.77H1920.16Z" fill="#FCFCFC" stroke="#5376C1" stroke-width="3" stroke-miterlimit="10"/>
</g>
<g id="48" class="piece">
<path id="Vector_50" d="M2010.42 1183.66C2012.44 1201.35 2026.93 1215.49 2044.65 1217.12C2052.49 1217.84 2059.95 1216.2 2066.31 1212.78C2067.64 1212.05 2068.95 1211.29 2070.31 1210.63L2083.69 1204C2087.77 1202 2092.02 1200.99 2096.29 1200.99V1310.14H1834.3V1200.99C1838.56 1200.99 1842.79 1202 1846.9 1204L1860.21 1210.58C1861.56 1211.25 1862.87 1212 1864.2 1212.72C1870.84 1216.32 1878.68 1217.99 1886.97 1217.01C1904.23 1214.99 1918.12 1201.01 1920.16 1183.78C1922.89 1160.64 1904.89 1141.01 1882.29 1141.01C1876.82 1141.01 1871.61 1142.16 1866.93 1144.25L1863.63 1145.88L1846.88 1154.16C1842.79 1156.16 1838.56 1157.17 1834.28 1157.17V1048.16H1943.41C1943.41 1043.91 1942.4 1039.64 1940.4 1035.57L1933.81 1022.19C1933.13 1020.84 1932.37 1019.51 1931.66 1018.18C1928.21 1011.82 1926.58 1004.39 1927.32 996.525C1928.95 978.822 1943.09 964.308 1960.76 962.288C1983.85 959.63 2003.43 977.599 2003.43 1000.16C2003.43 1005.63 2002.28 1010.84 2000.19 1015.54L1998.63 1018.68L1990.3 1035.57C1988.3 1039.64 1987.29 1043.89 1987.29 1048.16H2096.31V1157.17C2092.06 1157.17 2087.79 1156.16 2083.71 1154.16L2066.82 1145.83L2063.69 1144.27C2058.97 1142.18 2053.78 1141.02 2048.3 1141.02C2025.74 1141.02 2007.77 1160.62 2010.43 1183.7L2010.42 1183.66Z" fill="#FCFCFC" stroke="#5376C1" stroke-width="3" stroke-miterlimit="10"/>
</g>
<g id="49" class="piece">
<path id="Vector_51" d="M2444.14 1183.77C2442.12 1201.01 2428.21 1214.98 2410.95 1217C2402.66 1217.99 2394.79 1216.32 2388.18 1212.71C2386.85 1211.98 2385.54 1211.24 2384.19 1210.56L2370.88 1203.99C2366.79 1201.97 2362.52 1200.98 2358.26 1200.98V1310.12H2096.29V1200.98C2092.04 1200.98 2087.77 1201.99 2083.69 1203.99L2070.31 1210.62C2068.93 1211.27 2067.64 1212.03 2066.31 1212.76C2059.95 1216.18 2052.5 1217.83 2044.65 1217.1C2026.91 1215.47 2012.44 1201.33 2010.42 1183.64C2007.76 1160.57 2025.73 1140.97 2048.29 1140.97C2053.76 1140.97 2058.97 1142.12 2063.67 1144.21L2066.8 1145.77L2083.69 1154.1C2087.77 1156.11 2092.02 1157.12 2096.29 1157.12V1048.11H2205.42C2205.42 1052.37 2204.43 1056.6 2202.41 1060.71L2195.83 1074.02C2195.18 1075.37 2194.41 1076.68 2193.69 1078.01C2190.09 1084.65 2188.44 1092.49 2189.4 1100.82C2191.46 1118.06 2205.4 1131.95 2222.64 1133.97C2245.75 1136.7 2265.41 1118.7 2265.41 1096.1C2265.41 1090.63 2264.25 1085.42 2262.16 1080.74L2260.53 1077.44L2252.26 1060.69C2250.24 1056.6 2249.24 1052.37 2249.24 1048.09H2358.25V1157.1C2362.5 1157.1 2366.77 1156.11 2370.86 1154.09L2387.61 1145.81L2390.91 1144.18C2395.59 1142.09 2400.8 1140.94 2406.27 1140.94C2428.87 1140.94 2446.87 1160.59 2444.14 1183.71V1183.77Z" fill="#FCFCFC" stroke="#5376C1" stroke-width="3" stroke-miterlimit="10"/>
</g>
<g id="50" class="piece">
<path id="Vector_52" d="M2620.25 1048.15V1310.14H2358.26V1200.99C2362.52 1200.99 2366.79 1201.99 2370.88 1204.01L2384.19 1210.58C2385.54 1211.25 2386.85 1212 2388.18 1212.72C2394.81 1216.32 2402.66 1217.99 2410.95 1217.01C2428.21 1214.99 2442.1 1201.01 2444.14 1183.79C2446.87 1160.64 2428.87 1141.01 2406.27 1141.01C2400.79 1141.01 2395.58 1142.16 2390.91 1144.25L2387.61 1145.88L2370.86 1154.16C2366.77 1156.18 2362.5 1157.17 2358.25 1157.17V1048.17H2481.53C2481.53 1043.88 2480.54 1039.62 2478.52 1035.55L2471.89 1022.15C2471.24 1020.8 2470.47 1019.49 2469.75 1018.16C2466.33 1011.78 2464.68 1004.36 2465.41 996.49C2467.04 978.787 2481.18 964.291 2498.86 962.253C2521.95 959.595 2541.54 977.6 2541.54 1000.14C2541.54 1005.62 2540.38 1010.83 2538.29 1015.52L2536.73 1018.66L2528.41 1035.55C2526.38 1039.62 2525.39 1043.88 2525.39 1048.17H2620.25V1048.15Z" fill="#FCFCFC" stroke="#5376C1" stroke-width="3" stroke-miterlimit="10"/>
</g>
</g>
</g>
<defs>
<style>
  .piece { opacity: 1; transition: opacity 0.5s ease; }
  .piece.unlocked { opacity: 0; }
</style>
<clipPath id="clip0_23_6">
<rect width="2620" height="1310" fill="white"/>
</clipPath>
<clipPath id="clip1_23_6">
<rect width="408.555" height="438" fill="white" transform="translate(0.000244141)"/>
</clipPath>
</defs>
</svg>
